M48
; DRILL file {KiCad (5.1.10-1-10_14)} date Sunday, November 21, 2021 at 05:37:38 PM
; FORMAT={-:-/ absolute / metric / decimal}
; #@! TF.CreationDate,2021-11-21T17:37:38-05:00
; #@! TF.GenerationSoftware,Kicad,Pcbnew,(5.1.10-1-10_14)
; #@! TF.FileFunction,Plated,1,2,PTH
FMAT,2
METRIC
T1C0.300
T2C0.500
T3C0.800
T4C0.813
T5C1.200
T6C1.300
T7C4.200
%
G90
G05
T1
X47.59Y-67.401
X51.285Y-76.634
X59.451Y-65.865
X62.817Y-76.876
X63.909Y-74.628
X70.373Y-74.094
X79.441Y-67.046
X82.559Y-60.715
X116.874Y-52.575
X123.701Y-38.103
X132.171Y-72.418
X132.806Y-88.89
X150.472Y-49.621
X186.54Y-63.744
X198.948Y-98.834
X209.87Y-79.708
X232.675Y-41.4
T2
X66.728Y-80.406
X78.4Y-70.602
X82.718Y-62.791
X115.957Y-54.178
T4
X124.212Y-47.171
X126.714Y-47.612
X126.855Y-32.182
X129.215Y-48.053
X129.357Y-32.623
X131.716Y-48.494
X131.858Y-33.064
X134.218Y-48.935
X134.359Y-33.505
X136.719Y-49.376
X136.861Y-33.946
X139.221Y-49.817
X139.362Y-34.387
X141.722Y-50.258
X141.864Y-34.829
X144.224Y-50.699
X144.365Y-35.27
X146.725Y-51.141
X146.866Y-35.711
X149.226Y-51.582
X149.368Y-36.152
X151.728Y-52.023
X151.869Y-36.593
X154.371Y-37.034
T5
X132.87Y-129.26
X137.87Y-131.36
T6
X164.879Y-41.386
X171.281Y-42.514
T7
X52.92Y-95.54
X59.54Y-58.03
X92.02Y-106.97
X115.8Y-67.94
X137.91Y-109.96
X160.02Y-67.94
X183.8Y-106.98
X216.32Y-58.02
X222.91Y-95.53
T3
X38.323Y-92.85G85X38.717Y-92.92
G05
X40.712Y-86.732G85X41.106Y-86.802
G05
X41.623Y-74.08G85X42.017Y-74.15
G05
X42.999Y-95.706G85X43.392Y-95.775
G05
X44.012Y-67.962G85X44.406Y-68.032
G05
X44.903Y-55.34G85X45.297Y-55.41
G05
X46.299Y-76.936G85X46.692Y-77.005
G05
X47.292Y-49.222G85X47.686Y-49.292
G05
X47.407Y-85.334G85X47.801Y-85.403
G05
X49.579Y-58.196G85X49.972Y-58.265
G05
X50.707Y-66.564G85X51.101Y-66.633
G05
X53.987Y-47.824G85X54.381Y-47.893
G05
X57.693Y-92.68G85X58.087Y-92.75
G05
X60.082Y-86.562G85X60.476Y-86.632
G05
X60.963Y-73.95G85X61.357Y-74.02
G05
X62.369Y-95.536G85X62.762Y-95.605
G05
X63.352Y-67.832G85X63.746Y-67.902
G05
X64.253Y-55.24G85X64.647Y-55.31
G05
X65.639Y-76.806G85X66.032Y-76.875
G05
X66.642Y-49.122G85X67.036Y-49.192
G05
X66.777Y-85.164G85X67.171Y-85.233
G05
X68.929Y-58.096G85X69.322Y-58.165
G05
X70.047Y-66.434G85X70.441Y-66.503
G05
X73.337Y-47.724G85X73.731Y-47.793
G05
X77.043Y-92.6G85X77.437Y-92.67
G05
X79.432Y-86.482G85X79.826Y-86.552
G05
X80.383Y-73.79G85X80.777Y-73.86
G05
X81.719Y-95.456G85X82.112Y-95.525
G05
X82.772Y-67.672G85X83.166Y-67.742
G05
X83.673Y-55.06G85X84.067Y-55.13
G05
X85.059Y-76.646G85X85.452Y-76.715
G05
X86.062Y-48.942G85X86.456Y-49.012
G05
X86.127Y-85.084G85X86.521Y-85.153
G05
X88.349Y-57.916G85X88.742Y-57.985
G05
X89.467Y-66.274G85X89.861Y-66.343
G05
X92.757Y-47.544G85X93.151Y-47.613
G05
X95.183Y-99.33G85X95.577Y-99.4
G05
X97.572Y-93.212G85X97.966Y-93.282
G05
X98.493Y-80.54G85X98.887Y-80.61
G05
X99.859Y-102.186G85X100.252Y-102.255
G05
X100.601Y-125.065G85X100.988Y-125.169
G05
X100.882Y-74.422G85X101.276Y-74.492
G05
X101.833Y-61.79G85X102.227Y-61.86
G05
X103.169Y-83.396G85X103.562Y-83.465
G05
X103.514Y-119.179G85X103.9Y-119.282
G05
X104.222Y-55.672G85X104.616Y-55.742
G05
X104.267Y-91.814G85X104.661Y-91.883
G05
X105.01Y-128.317G85X105.396Y-128.421
G05
X106.509Y-64.646G85X106.902Y-64.715
G05
X107.577Y-73.024G85X107.971Y-73.093
G05
X110.305Y-118.369G85X110.691Y-118.472
G05
X110.917Y-54.274G85X111.311Y-54.343
G05
X113.373Y-106.03G85X113.767Y-106.1
G05
X115.762Y-99.912G85X116.156Y-99.982
G05
X116.663Y-87.31G85X117.057Y-87.38
G05
X118.049Y-108.886G85X118.442Y-108.955
G05
X119.052Y-81.192G85X119.446Y-81.262
G05
X120.013Y-68.51G85X120.407Y-68.58
G05
X121.339Y-90.166G85X121.732Y-90.235
G05
X122.402Y-62.392G85X122.796Y-62.462
G05
X122.457Y-98.514G85X122.851Y-98.583
G05
X123.09Y-129.4G85X123.49Y-129.4
G05
X124.38Y-122.96G85X124.78Y-122.96
G05
X124.689Y-71.366G85X125.082Y-71.435
G05
X125.747Y-79.794G85X126.141Y-79.863
G05
X128.19Y-131.4G85X128.59Y-131.4
G05
X129.097Y-60.994G85X129.491Y-61.063
G05
X130.73Y-120.42G85X131.13Y-120.42
G05
X142.13Y-129.4G85X142.53Y-129.4
G05
X143.42Y-122.96G85X143.82Y-122.96
G05
X145.408Y-70.361G85X145.802Y-70.292
G05
X145.56Y-63.795G85X145.954Y-63.725
G05
X147.23Y-131.4G85X147.63Y-131.4
G05
X148.708Y-89.141G85X149.102Y-89.072
G05
X148.86Y-82.575G85X149.254Y-82.505
G05
X149.77Y-120.42G85X150.17Y-120.42
G05
X150.778Y-71.445G85X151.171Y-71.376
G05
X151.372Y-60.191G85X151.766Y-60.121
G05
X152.008Y-107.921G85X152.402Y-107.852
G05
X152.16Y-101.355G85X152.554Y-101.285
G05
X154.078Y-90.225G85X154.471Y-90.156
G05
X154.672Y-78.971G85X155.066Y-78.901
G05
X157.378Y-109.005G85X157.771Y-108.936
G05
X157.972Y-97.751G85X158.366Y-97.681
G05
X163.548Y-63.631G85X163.942Y-63.562
G05
X163.7Y-57.065G85X164.094Y-56.995
G05
X164.559Y-121.244G85X164.946Y-121.141
G05
X164.98Y-127.799G85X165.366Y-127.695
G05
X166.868Y-82.371G85X167.262Y-82.302
G05
X167.02Y-75.805G85X167.414Y-75.735
G05
X168.918Y-64.715G85X169.311Y-64.646
G05
X169.512Y-53.461G85X169.906Y-53.391
G05
X170.035Y-117.147G85X170.422Y-117.044
G05
X170.158Y-101.141G85X170.552Y-101.072
G05
X170.31Y-94.575G85X170.704Y-94.505
G05
X170.424Y-128.411G85X170.81Y-128.307
G05
X172.238Y-83.455G85X172.631Y-83.386
G05
X172.832Y-72.201G85X173.226Y-72.131
G05
X175.528Y-102.225G85X175.921Y-102.156
G05
X176.122Y-90.971G85X176.516Y-90.901
G05
X181.718Y-56.881G85X182.112Y-56.812
G05
X181.87Y-50.315G85X182.264Y-50.245
G05
X185.008Y-75.641G85X185.402Y-75.572
G05
X185.16Y-69.075G85X185.554Y-69.005
G05
X187.088Y-57.965G85X187.481Y-57.896
G05
X187.682Y-46.711G85X188.076Y-46.641
G05
X188.328Y-94.381G85X188.722Y-94.312
G05
X188.48Y-87.815G85X188.874Y-87.745
G05
X190.378Y-76.725G85X190.771Y-76.656
G05
X190.972Y-65.471G85X191.366Y-65.401
G05
X193.698Y-95.465G85X194.091Y-95.396
G05
X194.292Y-84.211G85X194.686Y-84.141
G05
X201.068Y-57.011G85X201.462Y-56.942
G05
X201.22Y-50.445G85X201.614Y-50.375
G05
X204.408Y-75.771G85X204.802Y-75.702
G05
X204.56Y-69.205G85X204.954Y-69.135
G05
X206.438Y-58.095G85X206.831Y-58.026
G05
X207.032Y-46.841G85X207.426Y-46.771
G05
X207.708Y-94.511G85X208.102Y-94.442
G05
X207.86Y-87.945G85X208.254Y-87.875
G05
X209.778Y-76.855G85X210.171Y-76.786
G05
X210.372Y-65.601G85X210.766Y-65.531
G05
X213.078Y-95.595G85X213.471Y-95.526
G05
X213.672Y-84.341G85X214.066Y-84.271
G05
X220.468Y-57.151G85X220.862Y-57.082
G05
X220.62Y-50.585G85X221.014Y-50.515
G05
X223.778Y-75.891G85X224.172Y-75.822
G05
X223.93Y-69.325G85X224.324Y-69.255
G05
X225.838Y-58.235G85X226.231Y-58.166
G05
X226.432Y-46.981G85X226.826Y-46.911
G05
X227.048Y-94.671G85X227.442Y-94.602
G05
X227.2Y-88.105G85X227.594Y-88.035
G05
X229.148Y-76.975G85X229.541Y-76.906
G05
X229.742Y-65.721G85X230.136Y-65.651
G05
X232.418Y-95.755G85X232.811Y-95.686
G05
X233.012Y-84.501G85X233.406Y-84.431
G05
T0
M30
