%FSLAX45Y45*%
G04 Gerber Fmt 4.5, Leading zero omitted, Abs format (unit mm)*
G04 Created by KiCad (PCBNEW (5.1.10-1-10_14)) date 2021-11-21 17:37:53*
%MOMM*%
%LPD*%
G01*
G04 APERTURE LIST*
%TA.AperFunction,Profile*%
%ADD10C,0.200000*%
%TD*%
%ADD11C,0.200000*%
%ADD12C,0.300000*%
G04 APERTURE END LIST*
D10*
X12305829Y-3134342D02*
X12031901Y-4688281D01*
X6417782Y-10341478D02*
X8272355Y-11054113D01*
X17256823Y-3898897D02*
X12421676Y-3053221D01*
X12421676Y-3053221D02*
X12401475Y-3051722D01*
X12401475Y-3051722D02*
X12377267Y-3055404D01*
X12377267Y-3055404D02*
X12355066Y-3064665D01*
X12355066Y-3064665D02*
X12335782Y-3078866D01*
X12335782Y-3078866D02*
X12320326Y-3097371D01*
X12320326Y-3097371D02*
X12309607Y-3119544D01*
X12309607Y-3119544D02*
X12305829Y-3134342D01*
X3080911Y-9669393D02*
X3077094Y-9699885D01*
X3077094Y-9699885D02*
X3076385Y-9730024D01*
X3076385Y-9730024D02*
X3078664Y-9759638D01*
X3078664Y-9759638D02*
X3083806Y-9788550D01*
X3083806Y-9788550D02*
X3091689Y-9816585D01*
X3091689Y-9816585D02*
X3102192Y-9843569D01*
X3102192Y-9843569D02*
X3115192Y-9869327D01*
X3115192Y-9869327D02*
X3130565Y-9893684D01*
X3130565Y-9893684D02*
X3148191Y-9916464D01*
X3148191Y-9916464D02*
X3167945Y-9937493D01*
X3167945Y-9937493D02*
X3189706Y-9956596D01*
X3189706Y-9956596D02*
X3213351Y-9973598D01*
X3213351Y-9973598D02*
X3238758Y-9988323D01*
X3238758Y-9988323D02*
X3265803Y-10000598D01*
X3265803Y-10000598D02*
X3294366Y-10010246D01*
X3294366Y-10010246D02*
X3324323Y-10017093D01*
X4058241Y-4146643D02*
X3080911Y-9669393D01*
X10471459Y-4466633D02*
X10388475Y-4275668D01*
X10388475Y-4275668D02*
X10377718Y-4256819D01*
X10377718Y-4256819D02*
X10363382Y-4240946D01*
X10363382Y-4240946D02*
X10346056Y-4228516D01*
X10346056Y-4228516D02*
X10326330Y-4219993D01*
X10326330Y-4219993D02*
X10314207Y-4217056D01*
X9377878Y-13161225D02*
X11615173Y-13758978D01*
X9310476Y-13100805D02*
X9319909Y-13119201D01*
X9319909Y-13119201D02*
X9332731Y-13135069D01*
X9332731Y-13135069D02*
X9348459Y-13147975D01*
X9348459Y-13147975D02*
X9366607Y-13157484D01*
X9366607Y-13157484D02*
X9377878Y-13161225D01*
X8437139Y-11208440D02*
X9310476Y-13100805D01*
X18210579Y-13159012D02*
X18229897Y-13151627D01*
X18229897Y-13151627D02*
X18247067Y-13140596D01*
X18247067Y-13140596D02*
X18261605Y-13126353D01*
X18261605Y-13126353D02*
X18273026Y-13109334D01*
X18273026Y-13109334D02*
X18277966Y-13098530D01*
X15971514Y-13758978D02*
X18210579Y-13159012D01*
X11615173Y-13758978D02*
X15971514Y-13758978D01*
X22299254Y-10352401D02*
X22320133Y-10352308D01*
X22320133Y-10352308D02*
X22340944Y-10350765D01*
X22340944Y-10350765D02*
X22359740Y-10348107D01*
X21286657Y-10321659D02*
X22299254Y-10352401D01*
X21169909Y-10341498D02*
X21191086Y-10334252D01*
X21191086Y-10334252D02*
X21212695Y-10328616D01*
X21212695Y-10328616D02*
X21234642Y-10324606D01*
X21234642Y-10324606D02*
X21256837Y-10322237D01*
X21256837Y-10322237D02*
X21279188Y-10321525D01*
X21279188Y-10321525D02*
X21286657Y-10321659D01*
X19316065Y-11054136D02*
X21169909Y-10341498D01*
X19151376Y-11208321D02*
X19161270Y-11188810D01*
X19161270Y-11188810D02*
X19172490Y-11170178D01*
X19172490Y-11170178D02*
X19184975Y-11152482D01*
X19184975Y-11152482D02*
X19198662Y-11135780D01*
X19198662Y-11135780D02*
X19213490Y-11120130D01*
X19213490Y-11120130D02*
X19229396Y-11105592D01*
X19229396Y-11105592D02*
X19246319Y-11092222D01*
X19246319Y-11092222D02*
X19264197Y-11080079D01*
X19264197Y-11080079D02*
X19282967Y-11069220D01*
X19282967Y-11069220D02*
X19302567Y-11059705D01*
X19302567Y-11059705D02*
X19316065Y-11054136D01*
X3324323Y-10017093D02*
X5228000Y-10348000D01*
X8272355Y-11054113D02*
X8292491Y-11062706D01*
X8292491Y-11062706D02*
X8311837Y-11072682D01*
X8311837Y-11072682D02*
X8330331Y-11083984D01*
X8330331Y-11083984D02*
X8347910Y-11096554D01*
X8347910Y-11096554D02*
X8364512Y-11110332D01*
X8364512Y-11110332D02*
X8380075Y-11125262D01*
X8380075Y-11125262D02*
X8394537Y-11141284D01*
X8394537Y-11141284D02*
X8407836Y-11158341D01*
X8407836Y-11158341D02*
X8419909Y-11176374D01*
X8419909Y-11176374D02*
X8430695Y-11195325D01*
X8430695Y-11195325D02*
X8437139Y-11208440D01*
X11915879Y-4769371D02*
X10545632Y-4525228D01*
X12031901Y-4688281D02*
X12026393Y-4707800D01*
X12026393Y-4707800D02*
X12014632Y-4729309D01*
X12014632Y-4729309D02*
X11998309Y-4747013D01*
X11998309Y-4747013D02*
X11978335Y-4760273D01*
X11978335Y-4760273D02*
X11955625Y-4768451D01*
X11955625Y-4768451D02*
X11931093Y-4770908D01*
X11931093Y-4770908D02*
X11915879Y-4769371D01*
X4353658Y-3898885D02*
X4326635Y-3900093D01*
X4326635Y-3900093D02*
X4300220Y-3903653D01*
X4300220Y-3903653D02*
X4274525Y-3909469D01*
X4274525Y-3909469D02*
X4249666Y-3917444D01*
X4249666Y-3917444D02*
X4225758Y-3927484D01*
X4225758Y-3927484D02*
X4202914Y-3939491D01*
X4202914Y-3939491D02*
X4181249Y-3953369D01*
X4181249Y-3953369D02*
X4160878Y-3969023D01*
X4160878Y-3969023D02*
X4141916Y-3986357D01*
X4141916Y-3986357D02*
X4124477Y-4005274D01*
X4124477Y-4005274D02*
X4108675Y-4025678D01*
X4108675Y-4025678D02*
X4094625Y-4047473D01*
X4094625Y-4047473D02*
X4082443Y-4070563D01*
X4082443Y-4070563D02*
X4072241Y-4094852D01*
X4072241Y-4094852D02*
X4064136Y-4120244D01*
X4064136Y-4120244D02*
X4058241Y-4146643D01*
X18277966Y-13098530D02*
X19151376Y-11208321D01*
X23530436Y-4146800D02*
X23524551Y-4120388D01*
X23524551Y-4120388D02*
X23516454Y-4094983D01*
X23516454Y-4094983D02*
X23506259Y-4070681D01*
X23506259Y-4070681D02*
X23494080Y-4047579D01*
X23494080Y-4047579D02*
X23480034Y-4025771D01*
X23480034Y-4025771D02*
X23464233Y-4005355D01*
X23464233Y-4005355D02*
X23446793Y-3986427D01*
X23446793Y-3986427D02*
X23427829Y-3969083D01*
X23427829Y-3969083D02*
X23407455Y-3953419D01*
X23407455Y-3953419D02*
X23385786Y-3939531D01*
X23385786Y-3939531D02*
X23362937Y-3927516D01*
X23362937Y-3927516D02*
X23339021Y-3917470D01*
X23339021Y-3917470D02*
X23314155Y-3909489D01*
X23314155Y-3909489D02*
X23288451Y-3903669D01*
X23288451Y-3903669D02*
X23262027Y-3900106D01*
X23262027Y-3900106D02*
X23234994Y-3898897D01*
X24504194Y-9670074D02*
X23530436Y-4146800D01*
X24260802Y-10017623D02*
X24290744Y-10010774D01*
X24290744Y-10010774D02*
X24319294Y-10001128D01*
X24319294Y-10001128D02*
X24346328Y-9988857D01*
X24346328Y-9988857D02*
X24371725Y-9974138D01*
X24371725Y-9974138D02*
X24395361Y-9957144D01*
X24395361Y-9957144D02*
X24417115Y-9938050D01*
X24417115Y-9938050D02*
X24436864Y-9917031D01*
X24436864Y-9917031D02*
X24454486Y-9894263D01*
X24454486Y-9894263D02*
X24469858Y-9869918D01*
X24469858Y-9869918D02*
X24482858Y-9844173D01*
X24482858Y-9844173D02*
X24493364Y-9817202D01*
X24493364Y-9817202D02*
X24501253Y-9789180D01*
X24501253Y-9789180D02*
X24506403Y-9760282D01*
X24506403Y-9760282D02*
X24508691Y-9730681D01*
X24508691Y-9730681D02*
X24507996Y-9700554D01*
X24507996Y-9700554D02*
X24504194Y-9670074D01*
X22359740Y-10348107D02*
X24260802Y-10017623D01*
X23234994Y-3898897D02*
X17256823Y-3898897D01*
X6301102Y-10321652D02*
X6323471Y-10321810D01*
X6323471Y-10321810D02*
X6345715Y-10323627D01*
X6345715Y-10323627D02*
X6367742Y-10327090D01*
X6367742Y-10327090D02*
X6389461Y-10332181D01*
X6389461Y-10332181D02*
X6410780Y-10338887D01*
X6410780Y-10338887D02*
X6417782Y-10341478D01*
X5288451Y-10352295D02*
X6301102Y-10321652D01*
X8518595Y-3898897D02*
X4353658Y-3898885D01*
X10314207Y-4217056D02*
X8518595Y-3898897D01*
X10545632Y-4525228D02*
X10524825Y-4519135D01*
X10524825Y-4519135D02*
X10506080Y-4508878D01*
X10506080Y-4508878D02*
X10489984Y-4494922D01*
X10489984Y-4494922D02*
X10477126Y-4477730D01*
X10477126Y-4477730D02*
X10471459Y-4466633D01*
X5228000Y-10348000D02*
X5248671Y-10350857D01*
X5248671Y-10350857D02*
X5269479Y-10352269D01*
X5269479Y-10352269D02*
X5288451Y-10352295D01*
D11*
X4743950Y-6725150D02*
X4773950Y-6755150D01*
X4773950Y-6725150D02*
X4743950Y-6755150D01*
X5113520Y-7648440D02*
X5143520Y-7678440D01*
X5143520Y-7648440D02*
X5113520Y-7678440D01*
X5930130Y-6571480D02*
X5960130Y-6601480D01*
X5960130Y-6571480D02*
X5930130Y-6601480D01*
X6266680Y-7672570D02*
X6296680Y-7702570D01*
X6296680Y-7672570D02*
X6266680Y-7702570D01*
X6375900Y-7447780D02*
X6405900Y-7477780D01*
X6405900Y-7447780D02*
X6375900Y-7477780D01*
X7022330Y-7394440D02*
X7052330Y-7424440D01*
X7052330Y-7394440D02*
X7022330Y-7424440D01*
X7929110Y-6689590D02*
X7959110Y-6719590D01*
X7959110Y-6689590D02*
X7929110Y-6719590D01*
X8240895Y-6056495D02*
X8270895Y-6086495D01*
X8270895Y-6056495D02*
X8240895Y-6086495D01*
X11672403Y-5242457D02*
X11702403Y-5272457D01*
X11702403Y-5242457D02*
X11672403Y-5272457D01*
X12355060Y-3795260D02*
X12385060Y-3825260D01*
X12385060Y-3795260D02*
X12355060Y-3825260D01*
X13202150Y-7226800D02*
X13232150Y-7256800D01*
X13232150Y-7226800D02*
X13202150Y-7256800D01*
X13265650Y-8873990D02*
X13295650Y-8903990D01*
X13295650Y-8873990D02*
X13265650Y-8903990D01*
X15032220Y-4947150D02*
X15062220Y-4977150D01*
X15062220Y-4947150D02*
X15032220Y-4977150D01*
X18639020Y-6359390D02*
X18669020Y-6389390D01*
X18669020Y-6359390D02*
X18639020Y-6389390D01*
X19879810Y-9868400D02*
X19909810Y-9898400D01*
X19909810Y-9868400D02*
X19879810Y-9898400D01*
X20972010Y-7955780D02*
X21002010Y-7985780D01*
X21002010Y-7955780D02*
X20972010Y-7985780D01*
X23252500Y-4125000D02*
X23282500Y-4155000D01*
X23282500Y-4125000D02*
X23252500Y-4155000D01*
X6697840Y-8040630D02*
G75*
G03*
X6697840Y-8040630I-25000J0D01*
G01*
X7864970Y-7060190D02*
G75*
G03*
X7864970Y-7060190I-25000J0D01*
G01*
X8296770Y-6279140D02*
G75*
G03*
X8296770Y-6279140I-25000J0D01*
G01*
X11620666Y-5417774D02*
G75*
G03*
X11620666Y-5417774I-25000J0D01*
G01*
X3852025Y-9248515D02*
X3852025Y-9328515D01*
X3812025Y-9288515D02*
X3892025Y-9288515D01*
X3827120Y-9314586D02*
X3866512Y-9321532D01*
X3837539Y-9255497D02*
X3876931Y-9262443D01*
X3866512Y-9321532D02*
G75*
G03*
X3876931Y-9262443I5209J29544D01*
G01*
X3837538Y-9255497D02*
G75*
G03*
X3827120Y-9314586I-5209J-29544D01*
G01*
X4090895Y-8636699D02*
X4090895Y-8716699D01*
X4050895Y-8676699D02*
X4130895Y-8676699D01*
X4065989Y-8702770D02*
X4105382Y-8709716D01*
X4076408Y-8643682D02*
X4115800Y-8650628D01*
X4105382Y-8709716D02*
G75*
G03*
X4115800Y-8650628I5209J29544D01*
G01*
X4076408Y-8643682D02*
G75*
G03*
X4065989Y-8702770I-5209J-29544D01*
G01*
X4182025Y-7371514D02*
X4182025Y-7451514D01*
X4142025Y-7411514D02*
X4222025Y-7411514D01*
X4157120Y-7437586D02*
X4196512Y-7444532D01*
X4167539Y-7378497D02*
X4206931Y-7385443D01*
X4196512Y-7444532D02*
G75*
G03*
X4206931Y-7385443I5209J29544D01*
G01*
X4167538Y-7378497D02*
G75*
G03*
X4157120Y-7437586I-5209J-29544D01*
G01*
X4319548Y-9534037D02*
X4319548Y-9614037D01*
X4279548Y-9574037D02*
X4359548Y-9574037D01*
X4294642Y-9600108D02*
X4334034Y-9607054D01*
X4305061Y-9541019D02*
X4344453Y-9547965D01*
X4334034Y-9607054D02*
G75*
G03*
X4344453Y-9547965I5209J29544D01*
G01*
X4305061Y-9541019D02*
G75*
G03*
X4294642Y-9600108I-5209J-29544D01*
G01*
X4420895Y-6759699D02*
X4420895Y-6839699D01*
X4380895Y-6799699D02*
X4460895Y-6799699D01*
X4395989Y-6825770D02*
X4435382Y-6832716D01*
X4406408Y-6766682D02*
X4445801Y-6773628D01*
X4435382Y-6832716D02*
G75*
G03*
X4445801Y-6773628I5209J29544D01*
G01*
X4406408Y-6766682D02*
G75*
G03*
X4395989Y-6825770I-5209J-29544D01*
G01*
X4510025Y-5497515D02*
X4510025Y-5577515D01*
X4470025Y-5537515D02*
X4550025Y-5537515D01*
X4485120Y-5563586D02*
X4524512Y-5570532D01*
X4495539Y-5504497D02*
X4534931Y-5511443D01*
X4524512Y-5570532D02*
G75*
G03*
X4534931Y-5511443I5209J29544D01*
G01*
X4495539Y-5504497D02*
G75*
G03*
X4485120Y-5563586I-5209J-29544D01*
G01*
X4649548Y-7657037D02*
X4649548Y-7737037D01*
X4609548Y-7697037D02*
X4689548Y-7697037D01*
X4624642Y-7723108D02*
X4664034Y-7730054D01*
X4635061Y-7664019D02*
X4674453Y-7670965D01*
X4664034Y-7730054D02*
G75*
G03*
X4674453Y-7670965I5209J29544D01*
G01*
X4635061Y-7664019D02*
G75*
G03*
X4624642Y-7723108I-5209J-29544D01*
G01*
X4748895Y-4885699D02*
X4748895Y-4965699D01*
X4708895Y-4925699D02*
X4788895Y-4925699D01*
X4723989Y-4951770D02*
X4763382Y-4958716D01*
X4734408Y-4892682D02*
X4773801Y-4899628D01*
X4763382Y-4958716D02*
G75*
G03*
X4773801Y-4899628I5209J29544D01*
G01*
X4734408Y-4892682D02*
G75*
G03*
X4723989Y-4951770I-5209J-29544D01*
G01*
X4760354Y-8496824D02*
X4760354Y-8576824D01*
X4720354Y-8536824D02*
X4800354Y-8536824D01*
X4735449Y-8562896D02*
X4774841Y-8569842D01*
X4745868Y-8503807D02*
X4785260Y-8510753D01*
X4774841Y-8569842D02*
G75*
G03*
X4785260Y-8510753I5209J29544D01*
G01*
X4745868Y-8503807D02*
G75*
G03*
X4735449Y-8562896I-5209J-29544D01*
G01*
X4977548Y-5783037D02*
X4977548Y-5863037D01*
X4937548Y-5823037D02*
X5017548Y-5823037D01*
X4952642Y-5849108D02*
X4992034Y-5856054D01*
X4963061Y-5790019D02*
X5002453Y-5796965D01*
X4992034Y-5856054D02*
G75*
G03*
X5002453Y-5796965I5209J29544D01*
G01*
X4963061Y-5790019D02*
G75*
G03*
X4952642Y-5849108I-5209J-29544D01*
G01*
X5090354Y-6619824D02*
X5090354Y-6699824D01*
X5050354Y-6659824D02*
X5130354Y-6659824D01*
X5065449Y-6685896D02*
X5104841Y-6692841D01*
X5075868Y-6626807D02*
X5115260Y-6633753D01*
X5104841Y-6692841D02*
G75*
G03*
X5115260Y-6633753I5209J29544D01*
G01*
X5075868Y-6626807D02*
G75*
G03*
X5065449Y-6685895I-5209J-29544D01*
G01*
X5418354Y-4745824D02*
X5418354Y-4825824D01*
X5378354Y-4785824D02*
X5458354Y-4785824D01*
X5393449Y-4811896D02*
X5432841Y-4818842D01*
X5403868Y-4752807D02*
X5443260Y-4759753D01*
X5432841Y-4818842D02*
G75*
G03*
X5443260Y-4759753I5209J29544D01*
G01*
X5403868Y-4752807D02*
G75*
G03*
X5393449Y-4811896I-5209J-29544D01*
G01*
X5789025Y-9231515D02*
X5789025Y-9311515D01*
X5749025Y-9271515D02*
X5829025Y-9271515D01*
X5764120Y-9297586D02*
X5803512Y-9304532D01*
X5774539Y-9238497D02*
X5813931Y-9245443D01*
X5803512Y-9304532D02*
G75*
G03*
X5813931Y-9245443I5209J29544D01*
G01*
X5774538Y-9238497D02*
G75*
G03*
X5764120Y-9297586I-5209J-29544D01*
G01*
X6027895Y-8619699D02*
X6027895Y-8699699D01*
X5987895Y-8659699D02*
X6067895Y-8659699D01*
X6002989Y-8685770D02*
X6042382Y-8692716D01*
X6013408Y-8626682D02*
X6052800Y-8633628D01*
X6042382Y-8692716D02*
G75*
G03*
X6052800Y-8633628I5209J29544D01*
G01*
X6013408Y-8626682D02*
G75*
G03*
X6002989Y-8685770I-5209J-29544D01*
G01*
X6116025Y-7358514D02*
X6116025Y-7438514D01*
X6076025Y-7398514D02*
X6156025Y-7398514D01*
X6091120Y-7424586D02*
X6130512Y-7431532D01*
X6101539Y-7365497D02*
X6140931Y-7372443D01*
X6130512Y-7431532D02*
G75*
G03*
X6140931Y-7372443I5209J29544D01*
G01*
X6101538Y-7365497D02*
G75*
G03*
X6091120Y-7424586I-5209J-29544D01*
G01*
X6256548Y-9517037D02*
X6256548Y-9597037D01*
X6216548Y-9557037D02*
X6296548Y-9557037D01*
X6231642Y-9583108D02*
X6271034Y-9590054D01*
X6242061Y-9524019D02*
X6281453Y-9530965D01*
X6271034Y-9590054D02*
G75*
G03*
X6281453Y-9530965I5209J29544D01*
G01*
X6242061Y-9524019D02*
G75*
G03*
X6231642Y-9583108I-5209J-29544D01*
G01*
X6354895Y-6746699D02*
X6354895Y-6826699D01*
X6314895Y-6786699D02*
X6394895Y-6786699D01*
X6329989Y-6812770D02*
X6369382Y-6819716D01*
X6340408Y-6753682D02*
X6379800Y-6760628D01*
X6369382Y-6819716D02*
G75*
G03*
X6379800Y-6760628I5209J29544D01*
G01*
X6340408Y-6753682D02*
G75*
G03*
X6329989Y-6812770I-5209J-29544D01*
G01*
X6445025Y-5487515D02*
X6445025Y-5567515D01*
X6405025Y-5527515D02*
X6485025Y-5527515D01*
X6420120Y-5553586D02*
X6459512Y-5560532D01*
X6430539Y-5494497D02*
X6469931Y-5501443D01*
X6459512Y-5560532D02*
G75*
G03*
X6469931Y-5501443I5209J29544D01*
G01*
X6430538Y-5494497D02*
G75*
G03*
X6420120Y-5553586I-5209J-29544D01*
G01*
X6583548Y-7644037D02*
X6583548Y-7724037D01*
X6543548Y-7684037D02*
X6623548Y-7684037D01*
X6558642Y-7710108D02*
X6598034Y-7717054D01*
X6569061Y-7651019D02*
X6608453Y-7657965D01*
X6598034Y-7717054D02*
G75*
G03*
X6608453Y-7657965I5209J29544D01*
G01*
X6569061Y-7651019D02*
G75*
G03*
X6558642Y-7710108I-5209J-29544D01*
G01*
X6683895Y-4875699D02*
X6683895Y-4955699D01*
X6643895Y-4915699D02*
X6723895Y-4915699D01*
X6658989Y-4941770D02*
X6698382Y-4948716D01*
X6669408Y-4882682D02*
X6708800Y-4889628D01*
X6698382Y-4948716D02*
G75*
G03*
X6708800Y-4889628I5209J29544D01*
G01*
X6669408Y-4882682D02*
G75*
G03*
X6658989Y-4941770I-5209J-29544D01*
G01*
X6697354Y-8479824D02*
X6697354Y-8559824D01*
X6657354Y-8519824D02*
X6737354Y-8519824D01*
X6672449Y-8545896D02*
X6711841Y-8552842D01*
X6682868Y-8486807D02*
X6722260Y-8493753D01*
X6711841Y-8552842D02*
G75*
G03*
X6722260Y-8493753I5209J29544D01*
G01*
X6682868Y-8486807D02*
G75*
G03*
X6672449Y-8545896I-5209J-29544D01*
G01*
X6912548Y-5773037D02*
X6912548Y-5853037D01*
X6872548Y-5813037D02*
X6952548Y-5813037D01*
X6887642Y-5839108D02*
X6927034Y-5846054D01*
X6898061Y-5780019D02*
X6937453Y-5786965D01*
X6927034Y-5846054D02*
G75*
G03*
X6937453Y-5786965I5209J29544D01*
G01*
X6898061Y-5780019D02*
G75*
G03*
X6887642Y-5839108I-5209J-29544D01*
G01*
X7024354Y-6606824D02*
X7024354Y-6686824D01*
X6984354Y-6646824D02*
X7064354Y-6646824D01*
X6999449Y-6672896D02*
X7038841Y-6679841D01*
X7009868Y-6613807D02*
X7049260Y-6620753D01*
X7038841Y-6679841D02*
G75*
G03*
X7049260Y-6620753I5209J29544D01*
G01*
X7009868Y-6613807D02*
G75*
G03*
X6999449Y-6672895I-5209J-29544D01*
G01*
X7353354Y-4735824D02*
X7353354Y-4815824D01*
X7313354Y-4775824D02*
X7393354Y-4775824D01*
X7328449Y-4801896D02*
X7367841Y-4808842D01*
X7338868Y-4742807D02*
X7378260Y-4749753D01*
X7367841Y-4808842D02*
G75*
G03*
X7378260Y-4749753I5209J29544D01*
G01*
X7338868Y-4742807D02*
G75*
G03*
X7328449Y-4801896I-5209J-29544D01*
G01*
X7724025Y-9223515D02*
X7724025Y-9303515D01*
X7684025Y-9263515D02*
X7764025Y-9263515D01*
X7699120Y-9289586D02*
X7738512Y-9296532D01*
X7709539Y-9230497D02*
X7748931Y-9237443D01*
X7738512Y-9296532D02*
G75*
G03*
X7748931Y-9237443I5209J29544D01*
G01*
X7709538Y-9230497D02*
G75*
G03*
X7699120Y-9289586I-5209J-29544D01*
G01*
X7962895Y-8611699D02*
X7962895Y-8691699D01*
X7922895Y-8651699D02*
X8002895Y-8651699D01*
X7937989Y-8677770D02*
X7977382Y-8684716D01*
X7948408Y-8618682D02*
X7987800Y-8625628D01*
X7977382Y-8684716D02*
G75*
G03*
X7987800Y-8625628I5209J29544D01*
G01*
X7948408Y-8618682D02*
G75*
G03*
X7937989Y-8677770I-5209J-29544D01*
G01*
X8058025Y-7342514D02*
X8058025Y-7422514D01*
X8018025Y-7382514D02*
X8098025Y-7382514D01*
X8033120Y-7408586D02*
X8072512Y-7415532D01*
X8043539Y-7349497D02*
X8082931Y-7356443D01*
X8072512Y-7415532D02*
G75*
G03*
X8082931Y-7356443I5209J29544D01*
G01*
X8043538Y-7349497D02*
G75*
G03*
X8033120Y-7408586I-5209J-29544D01*
G01*
X8191548Y-9509037D02*
X8191548Y-9589037D01*
X8151548Y-9549037D02*
X8231548Y-9549037D01*
X8166642Y-9575108D02*
X8206034Y-9582054D01*
X8177061Y-9516019D02*
X8216453Y-9522965D01*
X8206034Y-9582054D02*
G75*
G03*
X8216453Y-9522965I5209J29544D01*
G01*
X8177061Y-9516019D02*
G75*
G03*
X8166642Y-9575108I-5209J-29544D01*
G01*
X8296895Y-6730699D02*
X8296895Y-6810699D01*
X8256895Y-6770699D02*
X8336895Y-6770699D01*
X8271989Y-6796770D02*
X8311382Y-6803716D01*
X8282408Y-6737682D02*
X8321800Y-6744628D01*
X8311382Y-6803716D02*
G75*
G03*
X8321800Y-6744628I5209J29544D01*
G01*
X8282408Y-6737682D02*
G75*
G03*
X8271989Y-6796770I-5209J-29544D01*
G01*
X8387025Y-5469515D02*
X8387025Y-5549515D01*
X8347025Y-5509515D02*
X8427025Y-5509515D01*
X8362120Y-5535586D02*
X8401512Y-5542532D01*
X8372539Y-5476497D02*
X8411931Y-5483443D01*
X8401512Y-5542532D02*
G75*
G03*
X8411931Y-5483443I5209J29544D01*
G01*
X8372538Y-5476497D02*
G75*
G03*
X8362120Y-5535586I-5209J-29544D01*
G01*
X8525548Y-7628037D02*
X8525548Y-7708037D01*
X8485548Y-7668037D02*
X8565548Y-7668037D01*
X8500642Y-7694108D02*
X8540034Y-7701054D01*
X8511061Y-7635019D02*
X8550453Y-7641965D01*
X8540034Y-7701054D02*
G75*
G03*
X8550453Y-7641965I5209J29544D01*
G01*
X8511061Y-7635019D02*
G75*
G03*
X8500642Y-7694108I-5209J-29544D01*
G01*
X8625895Y-4857699D02*
X8625895Y-4937699D01*
X8585895Y-4897699D02*
X8665895Y-4897699D01*
X8600989Y-4923770D02*
X8640382Y-4930716D01*
X8611408Y-4864682D02*
X8650801Y-4871628D01*
X8640382Y-4930716D02*
G75*
G03*
X8650801Y-4871628I5209J29544D01*
G01*
X8611408Y-4864682D02*
G75*
G03*
X8600989Y-4923770I-5209J-29544D01*
G01*
X8632354Y-8471824D02*
X8632354Y-8551824D01*
X8592354Y-8511824D02*
X8672354Y-8511824D01*
X8607449Y-8537896D02*
X8646841Y-8544842D01*
X8617868Y-8478807D02*
X8657260Y-8485753D01*
X8646841Y-8544842D02*
G75*
G03*
X8657260Y-8485753I5209J29544D01*
G01*
X8617868Y-8478807D02*
G75*
G03*
X8607449Y-8537896I-5209J-29544D01*
G01*
X8854548Y-5755037D02*
X8854548Y-5835037D01*
X8814548Y-5795037D02*
X8894548Y-5795037D01*
X8829642Y-5821108D02*
X8869034Y-5828054D01*
X8840061Y-5762019D02*
X8879453Y-5768965D01*
X8869034Y-5828054D02*
G75*
G03*
X8879453Y-5768965I5209J29544D01*
G01*
X8840061Y-5762019D02*
G75*
G03*
X8829642Y-5821108I-5209J-29544D01*
G01*
X8966354Y-6590824D02*
X8966354Y-6670824D01*
X8926354Y-6630824D02*
X9006354Y-6630824D01*
X8941449Y-6656896D02*
X8980841Y-6663841D01*
X8951868Y-6597807D02*
X8991260Y-6604753D01*
X8980841Y-6663841D02*
G75*
G03*
X8991260Y-6604753I5209J29544D01*
G01*
X8951868Y-6597807D02*
G75*
G03*
X8941449Y-6656895I-5209J-29544D01*
G01*
X9295354Y-4717824D02*
X9295354Y-4797824D01*
X9255354Y-4757824D02*
X9335354Y-4757824D01*
X9270449Y-4783896D02*
X9309841Y-4790842D01*
X9280868Y-4724807D02*
X9320260Y-4731753D01*
X9309841Y-4790842D02*
G75*
G03*
X9320260Y-4731753I5209J29544D01*
G01*
X9280868Y-4724807D02*
G75*
G03*
X9270449Y-4783896I-5209J-29544D01*
G01*
X9538025Y-9896515D02*
X9538025Y-9976515D01*
X9498025Y-9936515D02*
X9578025Y-9936515D01*
X9513120Y-9962586D02*
X9552512Y-9969532D01*
X9523539Y-9903497D02*
X9562931Y-9910443D01*
X9552512Y-9969532D02*
G75*
G03*
X9562931Y-9910443I5209J29544D01*
G01*
X9523539Y-9903497D02*
G75*
G03*
X9513120Y-9962586I-5209J-29544D01*
G01*
X9776895Y-9284699D02*
X9776895Y-9364699D01*
X9736895Y-9324699D02*
X9816895Y-9324699D01*
X9751989Y-9350770D02*
X9791382Y-9357716D01*
X9762408Y-9291682D02*
X9801801Y-9298628D01*
X9791382Y-9357716D02*
G75*
G03*
X9801801Y-9298628I5209J29544D01*
G01*
X9762408Y-9291682D02*
G75*
G03*
X9751989Y-9350770I-5209J-29544D01*
G01*
X9869025Y-8017514D02*
X9869025Y-8097514D01*
X9829025Y-8057514D02*
X9909025Y-8057514D01*
X9844120Y-8083586D02*
X9883512Y-8090532D01*
X9854539Y-8024497D02*
X9893931Y-8031443D01*
X9883512Y-8090532D02*
G75*
G03*
X9893931Y-8031443I5209J29544D01*
G01*
X9854539Y-8024497D02*
G75*
G03*
X9844120Y-8083586I-5209J-29544D01*
G01*
X10005548Y-10182037D02*
X10005548Y-10262037D01*
X9965548Y-10222037D02*
X10045548Y-10222037D01*
X9980642Y-10248108D02*
X10020034Y-10255054D01*
X9991061Y-10189019D02*
X10030453Y-10195965D01*
X10020034Y-10255054D02*
G75*
G03*
X10030453Y-10195965I5209J29544D01*
G01*
X9991061Y-10189019D02*
G75*
G03*
X9980642Y-10248108I-5209J-29544D01*
G01*
X10079438Y-12471713D02*
X10079438Y-12551713D01*
X10039438Y-12511713D02*
X10119438Y-12511713D01*
X10052355Y-12535515D02*
X10090992Y-12545868D01*
X10067885Y-12477559D02*
X10106522Y-12487912D01*
X10090992Y-12545868D02*
G75*
G03*
X10106522Y-12487912I7765J28978D01*
G01*
X10067885Y-12477559D02*
G75*
G03*
X10052355Y-12535515I-7765J-28978D01*
G01*
X10107895Y-7405699D02*
X10107895Y-7485699D01*
X10067895Y-7445699D02*
X10147895Y-7445699D01*
X10082989Y-7471770D02*
X10122382Y-7478716D01*
X10093408Y-7412682D02*
X10132801Y-7419628D01*
X10122382Y-7478716D02*
G75*
G03*
X10132801Y-7419628I5209J29544D01*
G01*
X10093408Y-7412682D02*
G75*
G03*
X10082989Y-7471770I-5209J-29544D01*
G01*
X10203025Y-6142514D02*
X10203025Y-6222514D01*
X10163025Y-6182514D02*
X10243025Y-6182514D01*
X10178120Y-6208586D02*
X10217512Y-6215532D01*
X10188539Y-6149497D02*
X10227931Y-6156443D01*
X10217512Y-6215532D02*
G75*
G03*
X10227931Y-6156443I5209J29544D01*
G01*
X10188539Y-6149497D02*
G75*
G03*
X10178120Y-6208586I-5209J-29544D01*
G01*
X10336548Y-8303037D02*
X10336548Y-8383037D01*
X10296548Y-8343037D02*
X10376548Y-8343037D01*
X10311642Y-8369108D02*
X10351034Y-8376054D01*
X10322061Y-8310019D02*
X10361453Y-8316965D01*
X10351034Y-8376054D02*
G75*
G03*
X10361453Y-8316965I5209J29544D01*
G01*
X10322061Y-8310019D02*
G75*
G03*
X10311642Y-8369108I-5209J-29544D01*
G01*
X10370722Y-11883045D02*
X10370722Y-11963045D01*
X10330722Y-11923045D02*
X10410722Y-11923045D01*
X10343639Y-11946846D02*
X10382276Y-11957199D01*
X10359168Y-11888891D02*
X10397805Y-11899243D01*
X10382276Y-11957199D02*
G75*
G03*
X10397805Y-11899243I7765J28978D01*
G01*
X10359168Y-11888891D02*
G75*
G03*
X10343639Y-11946846I-7765J-28978D01*
G01*
X10441895Y-5530699D02*
X10441895Y-5610699D01*
X10401895Y-5570699D02*
X10481895Y-5570699D01*
X10416989Y-5596770D02*
X10456382Y-5603716D01*
X10427408Y-5537682D02*
X10466801Y-5544628D01*
X10456382Y-5603716D02*
G75*
G03*
X10466801Y-5544628I5209J29544D01*
G01*
X10427408Y-5537682D02*
G75*
G03*
X10416989Y-5596770I-5209J-29544D01*
G01*
X10446354Y-9144824D02*
X10446354Y-9224824D01*
X10406354Y-9184824D02*
X10486354Y-9184824D01*
X10421449Y-9210896D02*
X10460841Y-9217842D01*
X10431868Y-9151807D02*
X10471260Y-9158753D01*
X10460841Y-9217842D02*
G75*
G03*
X10471260Y-9158753I5209J29544D01*
G01*
X10431868Y-9151807D02*
G75*
G03*
X10421449Y-9210896I-5209J-29544D01*
G01*
X10520297Y-12796896D02*
X10520297Y-12876896D01*
X10480297Y-12836896D02*
X10560297Y-12836896D01*
X10493214Y-12860698D02*
X10531851Y-12871050D01*
X10508743Y-12802742D02*
X10547380Y-12813095D01*
X10531851Y-12871050D02*
G75*
G03*
X10547380Y-12813095I7765J28978D01*
G01*
X10508743Y-12802742D02*
G75*
G03*
X10493214Y-12860698I-7765J-28978D01*
G01*
X10670548Y-6428037D02*
X10670548Y-6508037D01*
X10630548Y-6468037D02*
X10710548Y-6468037D01*
X10645642Y-6494108D02*
X10685034Y-6501054D01*
X10656061Y-6435019D02*
X10695453Y-6441965D01*
X10685034Y-6501054D02*
G75*
G03*
X10695453Y-6441965I5209J29544D01*
G01*
X10656061Y-6435019D02*
G75*
G03*
X10645642Y-6494108I-5209J-29544D01*
G01*
X10777354Y-7265824D02*
X10777354Y-7345824D01*
X10737354Y-7305824D02*
X10817354Y-7305824D01*
X10752449Y-7331896D02*
X10791841Y-7338841D01*
X10762868Y-7272807D02*
X10802260Y-7279753D01*
X10791841Y-7338841D02*
G75*
G03*
X10802260Y-7279753I5209J29544D01*
G01*
X10762868Y-7272807D02*
G75*
G03*
X10752449Y-7331895I-5209J-29544D01*
G01*
X11049825Y-11802050D02*
X11049825Y-11882050D01*
X11009825Y-11842050D02*
X11089825Y-11842050D01*
X11022742Y-11865851D02*
X11061379Y-11876204D01*
X11038271Y-11807895D02*
X11076908Y-11818248D01*
X11061379Y-11876204D02*
G75*
G03*
X11076908Y-11818248I7765J28978D01*
G01*
X11038271Y-11807895D02*
G75*
G03*
X11022742Y-11865851I-7765J-28978D01*
G01*
X11111354Y-5390824D02*
X11111354Y-5470824D01*
X11071354Y-5430824D02*
X11151354Y-5430824D01*
X11086449Y-5456896D02*
X11125841Y-5463842D01*
X11096868Y-5397807D02*
X11136260Y-5404753D01*
X11125841Y-5463842D02*
G75*
G03*
X11136260Y-5404753I5209J29544D01*
G01*
X11096868Y-5397807D02*
G75*
G03*
X11086449Y-5456896I-5209J-29544D01*
G01*
X11357025Y-10566515D02*
X11357025Y-10646515D01*
X11317025Y-10606515D02*
X11397025Y-10606515D01*
X11332120Y-10632586D02*
X11371512Y-10639532D01*
X11342539Y-10573497D02*
X11381931Y-10580443D01*
X11371512Y-10639532D02*
G75*
G03*
X11381931Y-10580443I5209J29544D01*
G01*
X11342538Y-10573497D02*
G75*
G03*
X11332120Y-10632586I-5209J-29544D01*
G01*
X11595895Y-9954699D02*
X11595895Y-10034699D01*
X11555895Y-9994699D02*
X11635895Y-9994699D01*
X11570989Y-10020770D02*
X11610382Y-10027716D01*
X11581408Y-9961682D02*
X11620800Y-9968628D01*
X11610382Y-10027716D02*
G75*
G03*
X11620800Y-9968628I5209J29544D01*
G01*
X11581408Y-9961682D02*
G75*
G03*
X11570989Y-10020770I-5209J-29544D01*
G01*
X11686025Y-8694515D02*
X11686025Y-8774515D01*
X11646025Y-8734515D02*
X11726025Y-8734515D01*
X11661120Y-8760586D02*
X11700512Y-8767532D01*
X11671539Y-8701497D02*
X11710931Y-8708443D01*
X11700512Y-8767532D02*
G75*
G03*
X11710931Y-8708443I5209J29544D01*
G01*
X11671538Y-8701497D02*
G75*
G03*
X11661120Y-8760586I-5209J-29544D01*
G01*
X11824548Y-10852037D02*
X11824548Y-10932037D01*
X11784548Y-10892037D02*
X11864548Y-10892037D01*
X11799642Y-10918108D02*
X11839034Y-10925054D01*
X11810061Y-10859019D02*
X11849453Y-10865965D01*
X11839034Y-10925054D02*
G75*
G03*
X11849453Y-10865965I5209J29544D01*
G01*
X11810061Y-10859019D02*
G75*
G03*
X11799642Y-10918108I-5209J-29544D01*
G01*
X11924895Y-8082699D02*
X11924895Y-8162699D01*
X11884895Y-8122699D02*
X11964895Y-8122699D01*
X11899989Y-8148770D02*
X11939382Y-8155716D01*
X11910408Y-8089682D02*
X11949800Y-8096628D01*
X11939382Y-8155716D02*
G75*
G03*
X11949800Y-8096628I5209J29544D01*
G01*
X11910408Y-8089682D02*
G75*
G03*
X11899989Y-8148770I-5209J-29544D01*
G01*
X12021025Y-6814514D02*
X12021025Y-6894514D01*
X11981025Y-6854514D02*
X12061025Y-6854514D01*
X11996120Y-6880586D02*
X12035512Y-6887532D01*
X12006539Y-6821497D02*
X12045931Y-6828443D01*
X12035512Y-6887532D02*
G75*
G03*
X12045931Y-6828443I5209J29544D01*
G01*
X12006538Y-6821497D02*
G75*
G03*
X11996120Y-6880586I-5209J-29544D01*
G01*
X12153548Y-8980037D02*
X12153548Y-9060037D01*
X12113548Y-9020037D02*
X12193548Y-9020037D01*
X12128642Y-9046108D02*
X12168034Y-9053054D01*
X12139061Y-8987019D02*
X12178453Y-8993965D01*
X12168034Y-9053054D02*
G75*
G03*
X12178453Y-8993965I5209J29544D01*
G01*
X12139061Y-8987019D02*
G75*
G03*
X12128642Y-9046108I-5209J-29544D01*
G01*
X12259895Y-6202699D02*
X12259895Y-6282699D01*
X12219895Y-6242699D02*
X12299895Y-6242699D01*
X12234989Y-6268770D02*
X12274382Y-6275716D01*
X12245408Y-6209682D02*
X12284800Y-6216628D01*
X12274382Y-6275716D02*
G75*
G03*
X12284800Y-6216628I5209J29544D01*
G01*
X12245408Y-6209682D02*
G75*
G03*
X12234989Y-6268770I-5209J-29544D01*
G01*
X12265354Y-9814824D02*
X12265354Y-9894824D01*
X12225354Y-9854824D02*
X12305354Y-9854824D01*
X12240449Y-9880896D02*
X12279841Y-9887842D01*
X12250868Y-9821807D02*
X12290260Y-9828753D01*
X12279841Y-9887842D02*
G75*
G03*
X12290260Y-9828753I5209J29544D01*
G01*
X12250868Y-9821807D02*
G75*
G03*
X12240449Y-9880896I-5209J-29544D01*
G01*
X12329000Y-12900000D02*
X12329000Y-12980000D01*
X12289000Y-12940000D02*
X12369000Y-12940000D01*
X12309000Y-12970000D02*
X12349000Y-12970000D01*
X12309000Y-12910000D02*
X12349000Y-12910000D01*
X12349000Y-12970000D02*
G75*
G03*
X12349000Y-12910000I0J30000D01*
G01*
X12309000Y-12910000D02*
G75*
G03*
X12309000Y-12970000I0J-30000D01*
G01*
X12458000Y-12256000D02*
X12458000Y-12336000D01*
X12418000Y-12296000D02*
X12498000Y-12296000D01*
X12438000Y-12326000D02*
X12478000Y-12326000D01*
X12438000Y-12266000D02*
X12478000Y-12266000D01*
X12478000Y-12326000D02*
G75*
G03*
X12478000Y-12266000I0J30000D01*
G01*
X12438000Y-12266000D02*
G75*
G03*
X12438000Y-12326000I0J-30000D01*
G01*
X12488548Y-7100037D02*
X12488548Y-7180037D01*
X12448548Y-7140037D02*
X12528548Y-7140037D01*
X12463642Y-7166108D02*
X12503034Y-7173054D01*
X12474061Y-7107019D02*
X12513453Y-7113965D01*
X12503034Y-7173054D02*
G75*
G03*
X12513453Y-7113965I5209J29544D01*
G01*
X12474061Y-7107019D02*
G75*
G03*
X12463642Y-7166108I-5209J-29544D01*
G01*
X12594354Y-7942824D02*
X12594354Y-8022824D01*
X12554354Y-7982824D02*
X12634354Y-7982824D01*
X12569449Y-8008896D02*
X12608841Y-8015841D01*
X12579868Y-7949807D02*
X12619260Y-7956753D01*
X12608841Y-8015841D02*
G75*
G03*
X12619260Y-7956753I5209J29544D01*
G01*
X12579868Y-7949807D02*
G75*
G03*
X12569449Y-8008895I-5209J-29544D01*
G01*
X12839000Y-13100000D02*
X12839000Y-13180000D01*
X12799000Y-13140000D02*
X12879000Y-13140000D01*
X12819000Y-13170000D02*
X12859000Y-13170000D01*
X12819000Y-13110000D02*
X12859000Y-13110000D01*
X12859000Y-13170000D02*
G75*
G03*
X12859000Y-13110000I0J30000D01*
G01*
X12819000Y-13110000D02*
G75*
G03*
X12819000Y-13170000I0J-30000D01*
G01*
X12929354Y-6062824D02*
X12929354Y-6142824D01*
X12889354Y-6102824D02*
X12969354Y-6102824D01*
X12904449Y-6128896D02*
X12943841Y-6135841D01*
X12914868Y-6069807D02*
X12954260Y-6076753D01*
X12943841Y-6135841D02*
G75*
G03*
X12954260Y-6076753I5209J29544D01*
G01*
X12914868Y-6069807D02*
G75*
G03*
X12904449Y-6128895I-5209J-29544D01*
G01*
X13093000Y-12002000D02*
X13093000Y-12082000D01*
X13053000Y-12042000D02*
X13133000Y-12042000D01*
X13073000Y-12072000D02*
X13113000Y-12072000D01*
X13073000Y-12012000D02*
X13113000Y-12012000D01*
X13113000Y-12072000D02*
G75*
G03*
X13113000Y-12012000I0J30000D01*
G01*
X13073000Y-12012000D02*
G75*
G03*
X13073000Y-12072000I0J-30000D01*
G01*
X14233000Y-12900000D02*
X14233000Y-12980000D01*
X14193000Y-12940000D02*
X14273000Y-12940000D01*
X14213000Y-12970000D02*
X14253000Y-12970000D01*
X14213000Y-12910000D02*
X14253000Y-12910000D01*
X14253000Y-12970000D02*
G75*
G03*
X14253000Y-12910000I0J30000D01*
G01*
X14213000Y-12910000D02*
G75*
G03*
X14213000Y-12970000I0J-30000D01*
G01*
X14362000Y-12256000D02*
X14362000Y-12336000D01*
X14322000Y-12296000D02*
X14402000Y-12296000D01*
X14342000Y-12326000D02*
X14382000Y-12326000D01*
X14342000Y-12266000D02*
X14382000Y-12266000D01*
X14382000Y-12326000D02*
G75*
G03*
X14382000Y-12266000I0J30000D01*
G01*
X14342000Y-12266000D02*
G75*
G03*
X14342000Y-12326000I0J-30000D01*
G01*
X14560471Y-6992636D02*
X14560471Y-7072636D01*
X14520471Y-7032636D02*
X14600471Y-7032636D01*
X14545984Y-7065653D02*
X14585376Y-7058707D01*
X14535565Y-7006564D02*
X14574957Y-6999618D01*
X14585376Y-7058707D02*
G75*
G03*
X14574958Y-6999618I-5209J29544D01*
G01*
X14535565Y-7006564D02*
G75*
G03*
X14545984Y-7065653I5209J-29544D01*
G01*
X14575682Y-6336019D02*
X14575682Y-6416019D01*
X14535682Y-6376019D02*
X14615682Y-6376019D01*
X14561195Y-6409036D02*
X14600587Y-6402090D01*
X14550776Y-6349947D02*
X14590168Y-6343002D01*
X14600587Y-6402090D02*
G75*
G03*
X14590168Y-6343002I-5209J29544D01*
G01*
X14550776Y-6349948D02*
G75*
G03*
X14561195Y-6409036I5209J-29544D01*
G01*
X14743000Y-13100000D02*
X14743000Y-13180000D01*
X14703000Y-13140000D02*
X14783000Y-13140000D01*
X14723000Y-13170000D02*
X14763000Y-13170000D01*
X14723000Y-13110000D02*
X14763000Y-13110000D01*
X14763000Y-13170000D02*
G75*
G03*
X14763000Y-13110000I0J30000D01*
G01*
X14723000Y-13110000D02*
G75*
G03*
X14723000Y-13170000I0J-30000D01*
G01*
X14890471Y-8870636D02*
X14890471Y-8950636D01*
X14850471Y-8910636D02*
X14930471Y-8910636D01*
X14875984Y-8943653D02*
X14915376Y-8936707D01*
X14865565Y-8884564D02*
X14904957Y-8877618D01*
X14915376Y-8936707D02*
G75*
G03*
X14904958Y-8877618I-5209J29544D01*
G01*
X14865565Y-8884564D02*
G75*
G03*
X14875984Y-8943653I5209J-29544D01*
G01*
X14905682Y-8214019D02*
X14905682Y-8294019D01*
X14865682Y-8254019D02*
X14945682Y-8254019D01*
X14891195Y-8287036D02*
X14930587Y-8280090D01*
X14880776Y-8227947D02*
X14920168Y-8221002D01*
X14930587Y-8280090D02*
G75*
G03*
X14920168Y-8221002I-5209J29544D01*
G01*
X14880776Y-8227948D02*
G75*
G03*
X14891195Y-8287036I5209J-29544D01*
G01*
X14997000Y-12002000D02*
X14997000Y-12082000D01*
X14957000Y-12042000D02*
X15037000Y-12042000D01*
X14977000Y-12072000D02*
X15017000Y-12072000D01*
X14977000Y-12012000D02*
X15017000Y-12012000D01*
X15017000Y-12072000D02*
G75*
G03*
X15017000Y-12012000I0J30000D01*
G01*
X14977000Y-12012000D02*
G75*
G03*
X14977000Y-12072000I0J-30000D01*
G01*
X15097452Y-7101037D02*
X15097452Y-7181037D01*
X15057452Y-7141037D02*
X15137452Y-7141037D01*
X15082966Y-7174054D02*
X15122358Y-7167108D01*
X15072547Y-7114965D02*
X15111939Y-7108019D01*
X15122358Y-7167108D02*
G75*
G03*
X15111939Y-7108019I-5209J29544D01*
G01*
X15072547Y-7114965D02*
G75*
G03*
X15082966Y-7174054I5209J-29544D01*
G01*
X15156928Y-5975611D02*
X15156928Y-6055611D01*
X15116928Y-6015611D02*
X15196928Y-6015611D01*
X15142441Y-6048628D02*
X15181833Y-6041682D01*
X15132022Y-5989540D02*
X15171415Y-5982594D01*
X15181833Y-6041682D02*
G75*
G03*
X15171415Y-5982594I-5209J29544D01*
G01*
X15132022Y-5989540D02*
G75*
G03*
X15142441Y-6048628I5209J-29544D01*
G01*
X15220471Y-10748636D02*
X15220471Y-10828636D01*
X15180471Y-10788636D02*
X15260471Y-10788636D01*
X15205984Y-10821653D02*
X15245376Y-10814707D01*
X15195565Y-10762564D02*
X15234957Y-10755618D01*
X15245376Y-10814707D02*
G75*
G03*
X15234958Y-10755618I-5209J29544D01*
G01*
X15195565Y-10762564D02*
G75*
G03*
X15205984Y-10821653I5209J-29544D01*
G01*
X15235682Y-10092019D02*
X15235682Y-10172019D01*
X15195682Y-10132019D02*
X15275682Y-10132019D01*
X15221195Y-10165036D02*
X15260587Y-10158090D01*
X15210776Y-10105948D02*
X15250168Y-10099002D01*
X15260587Y-10158090D02*
G75*
G03*
X15250168Y-10099002I-5209J29544D01*
G01*
X15210776Y-10105948D02*
G75*
G03*
X15221195Y-10165036I5209J-29544D01*
G01*
X15427452Y-8979037D02*
X15427452Y-9059037D01*
X15387452Y-9019037D02*
X15467452Y-9019037D01*
X15412966Y-9052054D02*
X15452358Y-9045108D01*
X15402547Y-8992965D02*
X15441939Y-8986019D01*
X15452358Y-9045108D02*
G75*
G03*
X15441939Y-8986019I-5209J29544D01*
G01*
X15402547Y-8992965D02*
G75*
G03*
X15412966Y-9052054I5209J-29544D01*
G01*
X15486928Y-7853611D02*
X15486928Y-7933611D01*
X15446928Y-7893611D02*
X15526928Y-7893611D01*
X15472441Y-7926628D02*
X15511833Y-7919682D01*
X15462022Y-7867540D02*
X15501415Y-7860594D01*
X15511833Y-7919682D02*
G75*
G03*
X15501415Y-7860594I-5209J29544D01*
G01*
X15462022Y-7867540D02*
G75*
G03*
X15472441Y-7926628I5209J-29544D01*
G01*
X15757452Y-10857037D02*
X15757452Y-10937037D01*
X15717452Y-10897037D02*
X15797452Y-10897037D01*
X15742966Y-10930054D02*
X15782358Y-10923108D01*
X15732547Y-10870965D02*
X15771939Y-10864019D01*
X15782358Y-10923108D02*
G75*
G03*
X15771939Y-10864019I-5209J29544D01*
G01*
X15732547Y-10870965D02*
G75*
G03*
X15742966Y-10930054I5209J-29544D01*
G01*
X15816928Y-9731611D02*
X15816928Y-9811611D01*
X15776928Y-9771611D02*
X15856928Y-9771611D01*
X15802441Y-9804628D02*
X15841833Y-9797682D01*
X15792022Y-9745540D02*
X15831415Y-9738594D01*
X15841833Y-9797682D02*
G75*
G03*
X15831415Y-9738594I-5209J29544D01*
G01*
X15792022Y-9745540D02*
G75*
G03*
X15802441Y-9804628I5209J-29544D01*
G01*
X16374471Y-6319636D02*
X16374471Y-6399636D01*
X16334471Y-6359636D02*
X16414471Y-6359636D01*
X16359984Y-6392653D02*
X16399376Y-6385707D01*
X16349565Y-6333564D02*
X16388957Y-6326618D01*
X16399376Y-6385707D02*
G75*
G03*
X16388958Y-6326618I-5209J29544D01*
G01*
X16349565Y-6333564D02*
G75*
G03*
X16359984Y-6392653I5209J-29544D01*
G01*
X16389682Y-5663019D02*
X16389682Y-5743019D01*
X16349682Y-5703019D02*
X16429682Y-5703019D01*
X16375195Y-5736036D02*
X16414587Y-5729090D01*
X16364776Y-5676947D02*
X16404168Y-5670002D01*
X16414587Y-5729090D02*
G75*
G03*
X16404168Y-5670002I-5209J29544D01*
G01*
X16364776Y-5676948D02*
G75*
G03*
X16375195Y-5736036I5209J-29544D01*
G01*
X16475242Y-12079265D02*
X16475242Y-12159265D01*
X16435242Y-12119265D02*
X16515242Y-12119265D01*
X16463688Y-12153419D02*
X16502325Y-12143066D01*
X16448159Y-12095463D02*
X16486796Y-12085111D01*
X16502325Y-12143066D02*
G75*
G03*
X16486796Y-12085111I-7765J28978D01*
G01*
X16448159Y-12095463D02*
G75*
G03*
X16463688Y-12153419I7765J-28978D01*
G01*
X16517317Y-12734709D02*
X16517317Y-12814709D01*
X16477317Y-12774709D02*
X16557317Y-12774709D01*
X16505763Y-12808863D02*
X16544400Y-12798510D01*
X16490234Y-12750907D02*
X16528871Y-12740555D01*
X16544400Y-12798510D02*
G75*
G03*
X16528871Y-12740555I-7765J28978D01*
G01*
X16490234Y-12750907D02*
G75*
G03*
X16505763Y-12808863I7765J-28978D01*
G01*
X16706471Y-8193636D02*
X16706471Y-8273636D01*
X16666471Y-8233636D02*
X16746471Y-8233636D01*
X16691984Y-8266653D02*
X16731376Y-8259707D01*
X16681565Y-8207564D02*
X16720957Y-8200618D01*
X16731376Y-8259707D02*
G75*
G03*
X16720958Y-8200618I-5209J29544D01*
G01*
X16681565Y-8207564D02*
G75*
G03*
X16691984Y-8266653I5209J-29544D01*
G01*
X16721682Y-7537019D02*
X16721682Y-7617019D01*
X16681682Y-7577019D02*
X16761682Y-7577019D01*
X16707195Y-7610036D02*
X16746587Y-7603090D01*
X16696776Y-7550947D02*
X16736168Y-7544002D01*
X16746587Y-7603090D02*
G75*
G03*
X16736168Y-7544002I-5209J29544D01*
G01*
X16696776Y-7550948D02*
G75*
G03*
X16707195Y-7610036I5209J-29544D01*
G01*
X16911452Y-6428037D02*
X16911452Y-6508037D01*
X16871452Y-6468037D02*
X16951452Y-6468037D01*
X16896966Y-6501054D02*
X16936358Y-6494108D01*
X16886547Y-6441965D02*
X16925939Y-6435019D01*
X16936358Y-6494108D02*
G75*
G03*
X16925939Y-6435019I-5209J29544D01*
G01*
X16886547Y-6441965D02*
G75*
G03*
X16896966Y-6501054I5209J-29544D01*
G01*
X16970928Y-5302611D02*
X16970928Y-5382611D01*
X16930928Y-5342611D02*
X17010928Y-5342611D01*
X16956441Y-5375628D02*
X16995834Y-5368682D01*
X16946022Y-5316540D02*
X16985415Y-5309594D01*
X16995834Y-5368682D02*
G75*
G03*
X16985415Y-5309594I-5209J29544D01*
G01*
X16946022Y-5316540D02*
G75*
G03*
X16956441Y-5375628I5209J-29544D01*
G01*
X17022865Y-11669570D02*
X17022865Y-11749570D01*
X16982865Y-11709570D02*
X17062865Y-11709570D01*
X17011311Y-11743724D02*
X17049948Y-11733371D01*
X16995782Y-11685768D02*
X17034419Y-11675415D01*
X17049948Y-11733371D02*
G75*
G03*
X17034419Y-11675415I-7765J28978D01*
G01*
X16995782Y-11685768D02*
G75*
G03*
X17011311Y-11743724I7765J-28978D01*
G01*
X17035471Y-10070636D02*
X17035471Y-10150636D01*
X16995471Y-10110636D02*
X17075471Y-10110636D01*
X17020984Y-10143653D02*
X17060376Y-10136707D01*
X17010565Y-10084564D02*
X17049958Y-10077618D01*
X17060376Y-10136707D02*
G75*
G03*
X17049958Y-10077618I-5209J29544D01*
G01*
X17010565Y-10084564D02*
G75*
G03*
X17020984Y-10143653I5209J-29544D01*
G01*
X17050682Y-9414019D02*
X17050682Y-9494019D01*
X17010682Y-9454019D02*
X17090682Y-9454019D01*
X17036195Y-9487036D02*
X17075587Y-9480090D01*
X17025776Y-9427948D02*
X17065168Y-9421002D01*
X17075587Y-9480090D02*
G75*
G03*
X17065168Y-9421002I-5209J29544D01*
G01*
X17025776Y-9427948D02*
G75*
G03*
X17036195Y-9487036I5209J-29544D01*
G01*
X17061703Y-12795896D02*
X17061703Y-12875896D01*
X17021703Y-12835896D02*
X17101703Y-12835896D01*
X17050149Y-12870050D02*
X17088786Y-12859698D01*
X17034620Y-12812095D02*
X17073257Y-12801742D01*
X17088786Y-12859698D02*
G75*
G03*
X17073257Y-12801742I-7765J28978D01*
G01*
X17034620Y-12812095D02*
G75*
G03*
X17050149Y-12870050I7765J-28978D01*
G01*
X17243452Y-8302037D02*
X17243452Y-8382037D01*
X17203452Y-8342037D02*
X17283452Y-8342037D01*
X17228966Y-8375054D02*
X17268358Y-8368108D01*
X17218547Y-8315965D02*
X17257939Y-8309019D01*
X17268358Y-8368108D02*
G75*
G03*
X17257939Y-8309019I-5209J29544D01*
G01*
X17218547Y-8315965D02*
G75*
G03*
X17228966Y-8375054I5209J-29544D01*
G01*
X17302928Y-7176611D02*
X17302928Y-7256611D01*
X17262928Y-7216611D02*
X17342928Y-7216611D01*
X17288441Y-7249628D02*
X17327834Y-7242682D01*
X17278022Y-7190540D02*
X17317415Y-7183594D01*
X17327834Y-7242682D02*
G75*
G03*
X17317415Y-7183594I-5209J29544D01*
G01*
X17278022Y-7190540D02*
G75*
G03*
X17288441Y-7249628I5209J-29544D01*
G01*
X17572452Y-10179037D02*
X17572452Y-10259037D01*
X17532452Y-10219037D02*
X17612452Y-10219037D01*
X17557966Y-10252054D02*
X17597358Y-10245108D01*
X17547547Y-10192965D02*
X17586939Y-10186019D01*
X17597358Y-10245108D02*
G75*
G03*
X17586939Y-10186019I-5209J29544D01*
G01*
X17547547Y-10192965D02*
G75*
G03*
X17557966Y-10252054I5209J-29544D01*
G01*
X17631928Y-9053611D02*
X17631928Y-9133611D01*
X17591928Y-9093611D02*
X17671928Y-9093611D01*
X17617441Y-9126628D02*
X17656834Y-9119682D01*
X17607022Y-9067540D02*
X17646415Y-9060594D01*
X17656834Y-9119682D02*
G75*
G03*
X17646415Y-9060594I-5209J29544D01*
G01*
X17607022Y-9067540D02*
G75*
G03*
X17617441Y-9126628I5209J-29544D01*
G01*
X18191471Y-5644636D02*
X18191471Y-5724636D01*
X18151471Y-5684636D02*
X18231471Y-5684636D01*
X18176984Y-5717653D02*
X18216376Y-5710707D01*
X18166565Y-5658564D02*
X18205958Y-5651618D01*
X18216376Y-5710707D02*
G75*
G03*
X18205958Y-5651618I-5209J29544D01*
G01*
X18166565Y-5658564D02*
G75*
G03*
X18176984Y-5717653I5209J-29544D01*
G01*
X18206682Y-4988019D02*
X18206682Y-5068019D01*
X18166682Y-5028019D02*
X18246682Y-5028019D01*
X18192195Y-5061036D02*
X18231587Y-5054090D01*
X18181776Y-5001948D02*
X18221168Y-4995002D01*
X18231587Y-5054090D02*
G75*
G03*
X18221168Y-4995002I-5209J29544D01*
G01*
X18181776Y-5001948D02*
G75*
G03*
X18192195Y-5061036I5209J-29544D01*
G01*
X18520471Y-7520636D02*
X18520471Y-7600636D01*
X18480471Y-7560636D02*
X18560471Y-7560636D01*
X18505984Y-7593653D02*
X18545376Y-7586707D01*
X18495565Y-7534564D02*
X18534958Y-7527618D01*
X18545376Y-7586707D02*
G75*
G03*
X18534958Y-7527618I-5209J29544D01*
G01*
X18495565Y-7534564D02*
G75*
G03*
X18505984Y-7593653I5209J-29544D01*
G01*
X18535682Y-6864019D02*
X18535682Y-6944019D01*
X18495682Y-6904019D02*
X18575682Y-6904019D01*
X18521195Y-6937036D02*
X18560587Y-6930090D01*
X18510776Y-6877947D02*
X18550168Y-6871002D01*
X18560587Y-6930090D02*
G75*
G03*
X18550168Y-6871002I-5209J29544D01*
G01*
X18510776Y-6877948D02*
G75*
G03*
X18521195Y-6937036I5209J-29544D01*
G01*
X18728452Y-5753037D02*
X18728452Y-5833037D01*
X18688452Y-5793037D02*
X18768452Y-5793037D01*
X18713966Y-5826054D02*
X18753358Y-5819108D01*
X18703547Y-5766965D02*
X18742939Y-5760019D01*
X18753358Y-5819108D02*
G75*
G03*
X18742939Y-5760019I-5209J29544D01*
G01*
X18703547Y-5766965D02*
G75*
G03*
X18713966Y-5826054I5209J-29544D01*
G01*
X18787928Y-4627611D02*
X18787928Y-4707611D01*
X18747928Y-4667611D02*
X18827928Y-4667611D01*
X18773441Y-4700628D02*
X18812834Y-4693682D01*
X18763022Y-4641540D02*
X18802415Y-4634594D01*
X18812834Y-4693682D02*
G75*
G03*
X18802415Y-4634594I-5209J29544D01*
G01*
X18763022Y-4641540D02*
G75*
G03*
X18773441Y-4700628I5209J-29544D01*
G01*
X18852471Y-9394636D02*
X18852471Y-9474636D01*
X18812471Y-9434636D02*
X18892471Y-9434636D01*
X18837984Y-9467653D02*
X18877376Y-9460707D01*
X18827565Y-9408564D02*
X18866958Y-9401618D01*
X18877376Y-9460707D02*
G75*
G03*
X18866958Y-9401618I-5209J29544D01*
G01*
X18827565Y-9408564D02*
G75*
G03*
X18837984Y-9467653I5209J-29544D01*
G01*
X18867682Y-8738019D02*
X18867682Y-8818019D01*
X18827682Y-8778019D02*
X18907682Y-8778019D01*
X18853195Y-8811036D02*
X18892587Y-8804090D01*
X18842776Y-8751948D02*
X18882168Y-8745002D01*
X18892587Y-8804090D02*
G75*
G03*
X18882168Y-8745002I-5209J29544D01*
G01*
X18842776Y-8751948D02*
G75*
G03*
X18853195Y-8811036I5209J-29544D01*
G01*
X19057452Y-7629037D02*
X19057452Y-7709037D01*
X19017452Y-7669037D02*
X19097452Y-7669037D01*
X19042966Y-7702054D02*
X19082358Y-7695108D01*
X19032547Y-7642965D02*
X19071939Y-7636019D01*
X19082358Y-7695108D02*
G75*
G03*
X19071939Y-7636019I-5209J29544D01*
G01*
X19032547Y-7642965D02*
G75*
G03*
X19042966Y-7702054I5209J-29544D01*
G01*
X19116928Y-6503611D02*
X19116928Y-6583611D01*
X19076928Y-6543611D02*
X19156928Y-6543611D01*
X19102441Y-6576628D02*
X19141834Y-6569682D01*
X19092022Y-6517540D02*
X19131415Y-6510594D01*
X19141834Y-6569682D02*
G75*
G03*
X19131415Y-6510594I-5209J29544D01*
G01*
X19092022Y-6517540D02*
G75*
G03*
X19102441Y-6576628I5209J-29544D01*
G01*
X19389452Y-9503037D02*
X19389452Y-9583037D01*
X19349452Y-9543037D02*
X19429452Y-9543037D01*
X19374966Y-9576054D02*
X19414358Y-9569108D01*
X19364547Y-9516965D02*
X19403939Y-9510019D01*
X19414358Y-9569108D02*
G75*
G03*
X19403939Y-9510019I-5209J29544D01*
G01*
X19364547Y-9516965D02*
G75*
G03*
X19374966Y-9576054I5209J-29544D01*
G01*
X19448928Y-8377611D02*
X19448928Y-8457611D01*
X19408928Y-8417611D02*
X19488928Y-8417611D01*
X19434441Y-8450628D02*
X19473834Y-8443682D01*
X19424022Y-8391540D02*
X19463415Y-8384594D01*
X19473834Y-8443682D02*
G75*
G03*
X19463415Y-8384594I-5209J29544D01*
G01*
X19424022Y-8391540D02*
G75*
G03*
X19434441Y-8450628I5209J-29544D01*
G01*
X20126471Y-5657636D02*
X20126471Y-5737636D01*
X20086471Y-5697636D02*
X20166471Y-5697636D01*
X20111984Y-5730653D02*
X20151376Y-5723707D01*
X20101565Y-5671564D02*
X20140958Y-5664618D01*
X20151376Y-5723707D02*
G75*
G03*
X20140958Y-5664618I-5209J29544D01*
G01*
X20101565Y-5671564D02*
G75*
G03*
X20111984Y-5730653I5209J-29544D01*
G01*
X20141682Y-5001019D02*
X20141682Y-5081019D01*
X20101682Y-5041019D02*
X20181682Y-5041019D01*
X20127195Y-5074036D02*
X20166587Y-5067090D01*
X20116776Y-5014948D02*
X20156168Y-5008002D01*
X20166587Y-5067090D02*
G75*
G03*
X20156168Y-5008002I-5209J29544D01*
G01*
X20116776Y-5014948D02*
G75*
G03*
X20127195Y-5074036I5209J-29544D01*
G01*
X20460471Y-7533636D02*
X20460471Y-7613636D01*
X20420471Y-7573636D02*
X20500471Y-7573636D01*
X20445984Y-7606653D02*
X20485376Y-7599707D01*
X20435565Y-7547564D02*
X20474958Y-7540618D01*
X20485376Y-7599707D02*
G75*
G03*
X20474958Y-7540618I-5209J29544D01*
G01*
X20435565Y-7547564D02*
G75*
G03*
X20445984Y-7606653I5209J-29544D01*
G01*
X20475682Y-6877019D02*
X20475682Y-6957019D01*
X20435682Y-6917019D02*
X20515682Y-6917019D01*
X20461195Y-6950036D02*
X20500587Y-6943090D01*
X20450776Y-6890947D02*
X20490168Y-6884002D01*
X20500587Y-6943090D02*
G75*
G03*
X20490168Y-6884002I-5209J29544D01*
G01*
X20450776Y-6890948D02*
G75*
G03*
X20461195Y-6950036I5209J-29544D01*
G01*
X20663452Y-5766037D02*
X20663452Y-5846037D01*
X20623452Y-5806037D02*
X20703452Y-5806037D01*
X20648966Y-5839054D02*
X20688358Y-5832108D01*
X20638547Y-5779965D02*
X20677939Y-5773019D01*
X20688358Y-5832108D02*
G75*
G03*
X20677939Y-5773019I-5209J29544D01*
G01*
X20638547Y-5779965D02*
G75*
G03*
X20648966Y-5839054I5209J-29544D01*
G01*
X20722928Y-4640611D02*
X20722928Y-4720611D01*
X20682928Y-4680611D02*
X20762928Y-4680611D01*
X20708441Y-4713628D02*
X20747834Y-4706682D01*
X20698022Y-4654540D02*
X20737415Y-4647594D01*
X20747834Y-4706682D02*
G75*
G03*
X20737415Y-4647594I-5209J29544D01*
G01*
X20698022Y-4654540D02*
G75*
G03*
X20708441Y-4713628I5209J-29544D01*
G01*
X20790471Y-9407636D02*
X20790471Y-9487636D01*
X20750471Y-9447636D02*
X20830471Y-9447636D01*
X20775984Y-9480653D02*
X20815376Y-9473707D01*
X20765565Y-9421564D02*
X20804958Y-9414618D01*
X20815376Y-9473707D02*
G75*
G03*
X20804958Y-9414618I-5209J29544D01*
G01*
X20765565Y-9421564D02*
G75*
G03*
X20775984Y-9480653I5209J-29544D01*
G01*
X20805682Y-8751019D02*
X20805682Y-8831019D01*
X20765682Y-8791019D02*
X20845682Y-8791019D01*
X20791195Y-8824036D02*
X20830587Y-8817090D01*
X20780776Y-8764948D02*
X20820168Y-8758002D01*
X20830587Y-8817090D02*
G75*
G03*
X20820168Y-8758002I-5209J29544D01*
G01*
X20780776Y-8764948D02*
G75*
G03*
X20791195Y-8824036I5209J-29544D01*
G01*
X20997452Y-7642037D02*
X20997452Y-7722037D01*
X20957452Y-7682037D02*
X21037452Y-7682037D01*
X20982966Y-7715054D02*
X21022358Y-7708108D01*
X20972547Y-7655965D02*
X21011939Y-7649019D01*
X21022358Y-7708108D02*
G75*
G03*
X21011939Y-7649019I-5209J29544D01*
G01*
X20972547Y-7655965D02*
G75*
G03*
X20982966Y-7715054I5209J-29544D01*
G01*
X21056928Y-6516611D02*
X21056928Y-6596611D01*
X21016928Y-6556611D02*
X21096928Y-6556611D01*
X21042441Y-6589628D02*
X21081834Y-6582682D01*
X21032022Y-6530540D02*
X21071415Y-6523594D01*
X21081834Y-6582682D02*
G75*
G03*
X21071415Y-6523594I-5209J29544D01*
G01*
X21032022Y-6530540D02*
G75*
G03*
X21042441Y-6589628I5209J-29544D01*
G01*
X21327452Y-9516037D02*
X21327452Y-9596037D01*
X21287452Y-9556037D02*
X21367452Y-9556037D01*
X21312966Y-9589054D02*
X21352358Y-9582108D01*
X21302547Y-9529965D02*
X21341939Y-9523019D01*
X21352358Y-9582108D02*
G75*
G03*
X21341939Y-9523019I-5209J29544D01*
G01*
X21302547Y-9529965D02*
G75*
G03*
X21312966Y-9589054I5209J-29544D01*
G01*
X21386928Y-8390611D02*
X21386928Y-8470611D01*
X21346928Y-8430611D02*
X21426928Y-8430611D01*
X21372441Y-8463628D02*
X21411834Y-8456682D01*
X21362022Y-8404540D02*
X21401415Y-8397594D01*
X21411834Y-8456682D02*
G75*
G03*
X21401415Y-8397594I-5209J29544D01*
G01*
X21362022Y-8404540D02*
G75*
G03*
X21372441Y-8463628I5209J-29544D01*
G01*
X22066471Y-5671636D02*
X22066471Y-5751636D01*
X22026471Y-5711636D02*
X22106471Y-5711636D01*
X22051984Y-5744653D02*
X22091376Y-5737707D01*
X22041565Y-5685564D02*
X22080958Y-5678618D01*
X22091376Y-5737707D02*
G75*
G03*
X22080958Y-5678618I-5209J29544D01*
G01*
X22041565Y-5685564D02*
G75*
G03*
X22051984Y-5744653I5209J-29544D01*
G01*
X22081682Y-5015019D02*
X22081682Y-5095019D01*
X22041682Y-5055019D02*
X22121682Y-5055019D01*
X22067195Y-5088036D02*
X22106587Y-5081090D01*
X22056776Y-5028948D02*
X22096168Y-5022002D01*
X22106587Y-5081090D02*
G75*
G03*
X22096168Y-5022002I-5209J29544D01*
G01*
X22056776Y-5028948D02*
G75*
G03*
X22067195Y-5088036I5209J-29544D01*
G01*
X22397471Y-7545636D02*
X22397471Y-7625636D01*
X22357471Y-7585636D02*
X22437471Y-7585636D01*
X22382984Y-7618653D02*
X22422376Y-7611707D01*
X22372565Y-7559564D02*
X22411957Y-7552618D01*
X22422376Y-7611707D02*
G75*
G03*
X22411958Y-7552618I-5209J29544D01*
G01*
X22372565Y-7559564D02*
G75*
G03*
X22382984Y-7618653I5209J-29544D01*
G01*
X22412682Y-6889019D02*
X22412682Y-6969019D01*
X22372682Y-6929019D02*
X22452682Y-6929019D01*
X22398195Y-6962036D02*
X22437587Y-6955090D01*
X22387776Y-6902947D02*
X22427168Y-6896002D01*
X22437587Y-6955090D02*
G75*
G03*
X22427168Y-6896002I-5209J29544D01*
G01*
X22387776Y-6902948D02*
G75*
G03*
X22398195Y-6962036I5209J-29544D01*
G01*
X22603452Y-5780037D02*
X22603452Y-5860037D01*
X22563452Y-5820037D02*
X22643452Y-5820037D01*
X22588966Y-5853054D02*
X22628358Y-5846108D01*
X22578547Y-5793965D02*
X22617939Y-5787019D01*
X22628358Y-5846108D02*
G75*
G03*
X22617939Y-5787019I-5209J29544D01*
G01*
X22578547Y-5793965D02*
G75*
G03*
X22588966Y-5853054I5209J-29544D01*
G01*
X22662928Y-4654611D02*
X22662928Y-4734611D01*
X22622928Y-4694611D02*
X22702928Y-4694611D01*
X22648441Y-4727628D02*
X22687833Y-4720682D01*
X22638022Y-4668540D02*
X22677415Y-4661594D01*
X22687833Y-4720682D02*
G75*
G03*
X22677415Y-4661594I-5209J29544D01*
G01*
X22638022Y-4668540D02*
G75*
G03*
X22648441Y-4727628I5209J-29544D01*
G01*
X22724471Y-9423636D02*
X22724471Y-9503636D01*
X22684471Y-9463636D02*
X22764471Y-9463636D01*
X22709984Y-9496653D02*
X22749376Y-9489707D01*
X22699565Y-9437564D02*
X22738957Y-9430618D01*
X22749376Y-9489707D02*
G75*
G03*
X22738958Y-9430618I-5209J29544D01*
G01*
X22699565Y-9437564D02*
G75*
G03*
X22709984Y-9496653I5209J-29544D01*
G01*
X22739682Y-8767019D02*
X22739682Y-8847019D01*
X22699682Y-8807019D02*
X22779682Y-8807019D01*
X22725195Y-8840036D02*
X22764587Y-8833090D01*
X22714776Y-8780948D02*
X22754168Y-8774002D01*
X22764587Y-8833090D02*
G75*
G03*
X22754168Y-8774002I-5209J29544D01*
G01*
X22714776Y-8780948D02*
G75*
G03*
X22725195Y-8840036I5209J-29544D01*
G01*
X22934452Y-7654037D02*
X22934452Y-7734037D01*
X22894452Y-7694037D02*
X22974452Y-7694037D01*
X22919966Y-7727054D02*
X22959358Y-7720108D01*
X22909547Y-7667965D02*
X22948939Y-7661019D01*
X22959358Y-7720108D02*
G75*
G03*
X22948939Y-7661019I-5209J29544D01*
G01*
X22909547Y-7667965D02*
G75*
G03*
X22919966Y-7727054I5209J-29544D01*
G01*
X22993928Y-6528611D02*
X22993928Y-6608611D01*
X22953928Y-6568611D02*
X23033928Y-6568611D01*
X22979441Y-6601628D02*
X23018833Y-6594682D01*
X22969022Y-6542540D02*
X23008415Y-6535594D01*
X23018833Y-6594682D02*
G75*
G03*
X23008415Y-6535594I-5209J29544D01*
G01*
X22969022Y-6542540D02*
G75*
G03*
X22979441Y-6601628I5209J-29544D01*
G01*
X23261452Y-9532037D02*
X23261452Y-9612037D01*
X23221452Y-9572037D02*
X23301452Y-9572037D01*
X23246966Y-9605054D02*
X23286358Y-9598108D01*
X23236547Y-9545965D02*
X23275939Y-9539019D01*
X23286358Y-9598108D02*
G75*
G03*
X23275939Y-9539019I-5209J29544D01*
G01*
X23236547Y-9545965D02*
G75*
G03*
X23246966Y-9605054I5209J-29544D01*
G01*
X23320928Y-8406611D02*
X23320928Y-8486611D01*
X23280928Y-8446611D02*
X23360928Y-8446611D01*
X23306441Y-8479628D02*
X23345833Y-8472682D01*
X23296022Y-8420540D02*
X23335415Y-8413594D01*
X23345833Y-8472682D02*
G75*
G03*
X23335415Y-8413594I-5209J29544D01*
G01*
X23296022Y-8420540D02*
G75*
G03*
X23306441Y-8479628I5209J-29544D01*
G01*
X12449960Y-4745830D02*
X12449960Y-4688356D01*
X12392486Y-4688356D01*
X12392486Y-4745830D01*
X12449960Y-4745830D01*
X12700102Y-4789937D02*
X12700102Y-4732463D01*
X12642627Y-4732463D01*
X12642627Y-4789937D01*
X12700102Y-4789937D01*
X12714253Y-3246953D02*
X12714253Y-3189478D01*
X12656779Y-3189478D01*
X12656779Y-3246953D01*
X12714253Y-3246953D01*
X12950243Y-4834043D02*
X12950243Y-4776569D01*
X12892769Y-4776569D01*
X12892769Y-4834043D01*
X12950243Y-4834043D01*
X12964394Y-3291059D02*
X12964394Y-3233585D01*
X12906920Y-3233585D01*
X12906920Y-3291059D01*
X12964394Y-3291059D01*
X13200384Y-4878150D02*
X13200384Y-4820676D01*
X13142910Y-4820676D01*
X13142910Y-4878150D01*
X13200384Y-4878150D01*
X13214535Y-3335166D02*
X13214535Y-3277692D01*
X13157061Y-3277692D01*
X13157061Y-3335166D01*
X13214535Y-3335166D01*
X13450525Y-4922257D02*
X13450525Y-4864782D01*
X13393051Y-4864782D01*
X13393051Y-4922257D01*
X13450525Y-4922257D01*
X13464676Y-3379273D02*
X13464676Y-3321798D01*
X13407202Y-3321798D01*
X13407202Y-3379273D01*
X13464676Y-3379273D01*
X13700666Y-4966363D02*
X13700666Y-4908889D01*
X13643192Y-4908889D01*
X13643192Y-4966363D01*
X13700666Y-4966363D01*
X13714818Y-3423379D02*
X13714818Y-3365905D01*
X13657343Y-3365905D01*
X13657343Y-3423379D01*
X13714818Y-3423379D01*
X13950807Y-5010470D02*
X13950807Y-4952996D01*
X13893333Y-4952996D01*
X13893333Y-5010470D01*
X13950807Y-5010470D01*
X13964959Y-3467486D02*
X13964959Y-3410012D01*
X13907485Y-3410012D01*
X13907485Y-3467486D01*
X13964959Y-3467486D01*
X14200949Y-5054577D02*
X14200949Y-4997102D01*
X14143474Y-4997102D01*
X14143474Y-5054577D01*
X14200949Y-5054577D01*
X14215100Y-3511592D02*
X14215100Y-3454118D01*
X14157626Y-3454118D01*
X14157626Y-3511592D01*
X14215100Y-3511592D01*
X14451090Y-5098683D02*
X14451090Y-5041209D01*
X14393616Y-5041209D01*
X14393616Y-5098683D01*
X14451090Y-5098683D01*
X14465241Y-3555699D02*
X14465241Y-3498225D01*
X14407767Y-3498225D01*
X14407767Y-3555699D01*
X14465241Y-3555699D01*
X14701231Y-5142790D02*
X14701231Y-5085316D01*
X14643757Y-5085316D01*
X14643757Y-5142790D01*
X14701231Y-5142790D01*
X14715382Y-3599806D02*
X14715382Y-3542332D01*
X14657908Y-3542332D01*
X14657908Y-3599806D01*
X14715382Y-3599806D01*
X14951372Y-5186897D02*
X14951372Y-5129422D01*
X14893898Y-5129422D01*
X14893898Y-5186897D01*
X14951372Y-5186897D01*
X14965523Y-3643912D02*
X14965523Y-3586438D01*
X14908049Y-3586438D01*
X14908049Y-3643912D01*
X14965523Y-3643912D01*
X15201513Y-5231003D02*
X15201513Y-5173529D01*
X15144039Y-5173529D01*
X15144039Y-5231003D01*
X15201513Y-5231003D01*
X15215665Y-3688019D02*
X15215665Y-3630545D01*
X15158190Y-3630545D01*
X15158190Y-3688019D01*
X15215665Y-3688019D01*
X15465806Y-3732126D02*
X15465806Y-3674651D01*
X15408332Y-3674651D01*
X15408332Y-3732126D01*
X15465806Y-3732126D01*
X13287000Y-12986000D02*
X13347000Y-12926000D01*
X13287000Y-12866000D01*
X13227000Y-12926000D01*
X13287000Y-12986000D01*
X13787000Y-13196000D02*
X13847000Y-13136000D01*
X13787000Y-13076000D01*
X13727000Y-13136000D01*
X13787000Y-13196000D01*
X16422937Y-4073564D02*
X16552937Y-4203564D01*
X16552937Y-4073564D02*
X16422937Y-4203564D01*
X16552937Y-4138564D02*
G75*
G03*
X16552937Y-4138564I-65000J0D01*
G01*
X17063063Y-4186436D02*
X17193063Y-4316436D01*
X17193063Y-4186436D02*
X17063063Y-4316436D01*
X17193063Y-4251436D02*
G75*
G03*
X17193063Y-4251436I-65000J0D01*
G01*
X5082000Y-9344000D02*
X5502000Y-9764000D01*
X5502000Y-9344000D02*
X5082000Y-9764000D01*
X5292000Y-9344000D02*
X5292000Y-9764000D01*
X5082000Y-9554000D02*
X5502000Y-9554000D01*
X5744000Y-5593000D02*
X6164000Y-6013000D01*
X6164000Y-5593000D02*
X5744000Y-6013000D01*
X5954000Y-5593000D02*
X5954000Y-6013000D01*
X5744000Y-5803000D02*
X6164000Y-5803000D01*
X8992000Y-10487000D02*
X9412000Y-10907000D01*
X9412000Y-10487000D02*
X8992000Y-10907000D01*
X9202000Y-10487000D02*
X9202000Y-10907000D01*
X8992000Y-10697000D02*
X9412000Y-10697000D01*
X11370000Y-6584000D02*
X11790000Y-7004000D01*
X11790000Y-6584000D02*
X11370000Y-7004000D01*
X11580000Y-6584000D02*
X11580000Y-7004000D01*
X11370000Y-6794000D02*
X11790000Y-6794000D01*
X13581000Y-10786000D02*
X14001000Y-11206000D01*
X14001000Y-10786000D02*
X13581000Y-11206000D01*
X13791000Y-10786000D02*
X13791000Y-11206000D01*
X13581000Y-10996000D02*
X14001000Y-10996000D01*
X15792000Y-6584000D02*
X16212000Y-7004000D01*
X16212000Y-6584000D02*
X15792000Y-7004000D01*
X16002000Y-6584000D02*
X16002000Y-7004000D01*
X15792000Y-6794000D02*
X16212000Y-6794000D01*
X18170000Y-10488000D02*
X18590000Y-10908000D01*
X18590000Y-10488000D02*
X18170000Y-10908000D01*
X18380000Y-10488000D02*
X18380000Y-10908000D01*
X18170000Y-10698000D02*
X18590000Y-10698000D01*
X21422000Y-5592000D02*
X21842000Y-6012000D01*
X21842000Y-5592000D02*
X21422000Y-6012000D01*
X21632000Y-5592000D02*
X21632000Y-6012000D01*
X21422000Y-5802000D02*
X21842000Y-5802000D01*
X22081000Y-9343000D02*
X22501000Y-9763000D01*
X22501000Y-9343000D02*
X22081000Y-9763000D01*
X22291000Y-9343000D02*
X22291000Y-9763000D01*
X22081000Y-9553000D02*
X22501000Y-9553000D01*
D12*
X3328471Y-14234693D02*
X3328471Y-13934693D01*
X3399900Y-13934693D01*
X3442757Y-13948978D01*
X3471328Y-13977550D01*
X3485614Y-14006121D01*
X3499900Y-14063264D01*
X3499900Y-14106121D01*
X3485614Y-14163264D01*
X3471328Y-14191835D01*
X3442757Y-14220407D01*
X3399900Y-14234693D01*
X3328471Y-14234693D01*
X3628471Y-14234693D02*
X3628471Y-14034693D01*
X3628471Y-14091835D02*
X3642757Y-14063264D01*
X3657043Y-14048978D01*
X3685614Y-14034693D01*
X3714186Y-14034693D01*
X3814186Y-14234693D02*
X3814186Y-14034693D01*
X3814186Y-13934693D02*
X3799900Y-13948978D01*
X3814186Y-13963264D01*
X3828471Y-13948978D01*
X3814186Y-13934693D01*
X3814186Y-13963264D01*
X3999900Y-14234693D02*
X3971328Y-14220407D01*
X3957043Y-14191835D01*
X3957043Y-13934693D01*
X4157043Y-14234693D02*
X4128471Y-14220407D01*
X4114186Y-14191835D01*
X4114186Y-13934693D01*
X4499900Y-14234693D02*
X4499900Y-13934693D01*
X4599900Y-14148978D01*
X4699900Y-13934693D01*
X4699900Y-14234693D01*
X4971329Y-14234693D02*
X4971329Y-14077550D01*
X4957043Y-14048978D01*
X4928471Y-14034693D01*
X4871329Y-14034693D01*
X4842757Y-14048978D01*
X4971329Y-14220407D02*
X4942757Y-14234693D01*
X4871329Y-14234693D01*
X4842757Y-14220407D01*
X4828471Y-14191835D01*
X4828471Y-14163264D01*
X4842757Y-14134693D01*
X4871329Y-14120407D01*
X4942757Y-14120407D01*
X4971329Y-14106121D01*
X5114186Y-14034693D02*
X5114186Y-14334693D01*
X5114186Y-14048978D02*
X5142757Y-14034693D01*
X5199900Y-14034693D01*
X5228471Y-14048978D01*
X5242757Y-14063264D01*
X5257043Y-14091835D01*
X5257043Y-14177550D01*
X5242757Y-14206121D01*
X5228471Y-14220407D01*
X5199900Y-14234693D01*
X5142757Y-14234693D01*
X5114186Y-14220407D01*
X5385614Y-14206121D02*
X5399900Y-14220407D01*
X5385614Y-14234693D01*
X5371329Y-14220407D01*
X5385614Y-14206121D01*
X5385614Y-14234693D01*
X5385614Y-14048978D02*
X5399900Y-14063264D01*
X5385614Y-14077550D01*
X5371329Y-14063264D01*
X5385614Y-14048978D01*
X5385614Y-14077550D01*
X3012043Y-14713978D02*
X3042043Y-14743978D01*
X3042043Y-14713978D02*
X3012043Y-14743978D01*
X3385614Y-14564693D02*
X3414186Y-14564693D01*
X3442757Y-14578978D01*
X3457043Y-14593264D01*
X3471328Y-14621835D01*
X3485614Y-14678978D01*
X3485614Y-14750407D01*
X3471328Y-14807550D01*
X3457043Y-14836121D01*
X3442757Y-14850407D01*
X3414186Y-14864693D01*
X3385614Y-14864693D01*
X3357043Y-14850407D01*
X3342757Y-14836121D01*
X3328471Y-14807550D01*
X3314186Y-14750407D01*
X3314186Y-14678978D01*
X3328471Y-14621835D01*
X3342757Y-14593264D01*
X3357043Y-14578978D01*
X3385614Y-14564693D01*
X3614186Y-14836121D02*
X3628471Y-14850407D01*
X3614186Y-14864693D01*
X3599900Y-14850407D01*
X3614186Y-14836121D01*
X3614186Y-14864693D01*
X3728471Y-14564693D02*
X3914186Y-14564693D01*
X3814186Y-14678978D01*
X3857043Y-14678978D01*
X3885614Y-14693264D01*
X3899900Y-14707550D01*
X3914186Y-14736121D01*
X3914186Y-14807550D01*
X3899900Y-14836121D01*
X3885614Y-14850407D01*
X3857043Y-14864693D01*
X3771328Y-14864693D01*
X3742757Y-14850407D01*
X3728471Y-14836121D01*
X4099900Y-14564693D02*
X4128471Y-14564693D01*
X4157043Y-14578978D01*
X4171328Y-14593264D01*
X4185614Y-14621835D01*
X4199900Y-14678978D01*
X4199900Y-14750407D01*
X4185614Y-14807550D01*
X4171328Y-14836121D01*
X4157043Y-14850407D01*
X4128471Y-14864693D01*
X4099900Y-14864693D01*
X4071328Y-14850407D01*
X4057043Y-14836121D01*
X4042757Y-14807550D01*
X4028471Y-14750407D01*
X4028471Y-14678978D01*
X4042757Y-14621835D01*
X4057043Y-14593264D01*
X4071328Y-14578978D01*
X4099900Y-14564693D01*
X4385614Y-14564693D02*
X4414186Y-14564693D01*
X4442757Y-14578978D01*
X4457043Y-14593264D01*
X4471329Y-14621835D01*
X4485614Y-14678978D01*
X4485614Y-14750407D01*
X4471329Y-14807550D01*
X4457043Y-14836121D01*
X4442757Y-14850407D01*
X4414186Y-14864693D01*
X4385614Y-14864693D01*
X4357043Y-14850407D01*
X4342757Y-14836121D01*
X4328471Y-14807550D01*
X4314186Y-14750407D01*
X4314186Y-14678978D01*
X4328471Y-14621835D01*
X4342757Y-14593264D01*
X4357043Y-14578978D01*
X4385614Y-14564693D01*
X4614186Y-14864693D02*
X4614186Y-14664693D01*
X4614186Y-14693264D02*
X4628471Y-14678978D01*
X4657043Y-14664693D01*
X4699900Y-14664693D01*
X4728471Y-14678978D01*
X4742757Y-14707550D01*
X4742757Y-14864693D01*
X4742757Y-14707550D02*
X4757043Y-14678978D01*
X4785614Y-14664693D01*
X4828471Y-14664693D01*
X4857043Y-14678978D01*
X4871329Y-14707550D01*
X4871329Y-14864693D01*
X5014186Y-14864693D02*
X5014186Y-14664693D01*
X5014186Y-14693264D02*
X5028471Y-14678978D01*
X5057043Y-14664693D01*
X5099900Y-14664693D01*
X5128471Y-14678978D01*
X5142757Y-14707550D01*
X5142757Y-14864693D01*
X5142757Y-14707550D02*
X5157043Y-14678978D01*
X5185614Y-14664693D01*
X5228471Y-14664693D01*
X5257043Y-14678978D01*
X5271329Y-14707550D01*
X5271329Y-14864693D01*
X5857043Y-14550407D02*
X5599900Y-14936121D01*
X6242757Y-14564693D02*
X6271328Y-14564693D01*
X6299900Y-14578978D01*
X6314186Y-14593264D01*
X6328471Y-14621835D01*
X6342757Y-14678978D01*
X6342757Y-14750407D01*
X6328471Y-14807550D01*
X6314186Y-14836121D01*
X6299900Y-14850407D01*
X6271328Y-14864693D01*
X6242757Y-14864693D01*
X6214186Y-14850407D01*
X6199900Y-14836121D01*
X6185614Y-14807550D01*
X6171328Y-14750407D01*
X6171328Y-14678978D01*
X6185614Y-14621835D01*
X6199900Y-14593264D01*
X6214186Y-14578978D01*
X6242757Y-14564693D01*
X6471328Y-14836121D02*
X6485614Y-14850407D01*
X6471328Y-14864693D01*
X6457043Y-14850407D01*
X6471328Y-14836121D01*
X6471328Y-14864693D01*
X6671328Y-14564693D02*
X6699900Y-14564693D01*
X6728471Y-14578978D01*
X6742757Y-14593264D01*
X6757043Y-14621835D01*
X6771328Y-14678978D01*
X6771328Y-14750407D01*
X6757043Y-14807550D01*
X6742757Y-14836121D01*
X6728471Y-14850407D01*
X6699900Y-14864693D01*
X6671328Y-14864693D01*
X6642757Y-14850407D01*
X6628471Y-14836121D01*
X6614186Y-14807550D01*
X6599900Y-14750407D01*
X6599900Y-14678978D01*
X6614186Y-14621835D01*
X6628471Y-14593264D01*
X6642757Y-14578978D01*
X6671328Y-14564693D01*
X7057043Y-14864693D02*
X6885614Y-14864693D01*
X6971328Y-14864693D02*
X6971328Y-14564693D01*
X6942757Y-14607550D01*
X6914186Y-14636121D01*
X6885614Y-14650407D01*
X7342757Y-14864693D02*
X7171328Y-14864693D01*
X7257043Y-14864693D02*
X7257043Y-14564693D01*
X7228471Y-14607550D01*
X7199900Y-14636121D01*
X7171328Y-14650407D01*
X7514186Y-14693264D02*
X7485614Y-14678978D01*
X7471328Y-14664693D01*
X7457043Y-14636121D01*
X7457043Y-14621835D01*
X7471328Y-14593264D01*
X7485614Y-14578978D01*
X7514186Y-14564693D01*
X7571328Y-14564693D01*
X7599900Y-14578978D01*
X7614186Y-14593264D01*
X7628471Y-14621835D01*
X7628471Y-14636121D01*
X7614186Y-14664693D01*
X7599900Y-14678978D01*
X7571328Y-14693264D01*
X7514186Y-14693264D01*
X7485614Y-14707550D01*
X7471328Y-14721835D01*
X7457043Y-14750407D01*
X7457043Y-14807550D01*
X7471328Y-14836121D01*
X7485614Y-14850407D01*
X7514186Y-14864693D01*
X7571328Y-14864693D01*
X7599900Y-14850407D01*
X7614186Y-14836121D01*
X7628471Y-14807550D01*
X7628471Y-14750407D01*
X7614186Y-14721835D01*
X7599900Y-14707550D01*
X7571328Y-14693264D01*
X7742757Y-14564693D02*
X7742757Y-14621835D01*
X7857043Y-14564693D02*
X7857043Y-14621835D01*
X8299900Y-14978978D02*
X8285614Y-14964693D01*
X8257043Y-14921835D01*
X8242757Y-14893264D01*
X8228471Y-14850407D01*
X8214186Y-14778978D01*
X8214186Y-14721835D01*
X8228471Y-14650407D01*
X8242757Y-14607550D01*
X8257043Y-14578978D01*
X8285614Y-14536121D01*
X8299900Y-14521835D01*
X8571329Y-14864693D02*
X8399900Y-14864693D01*
X8485614Y-14864693D02*
X8485614Y-14564693D01*
X8457043Y-14607550D01*
X8428471Y-14636121D01*
X8399900Y-14650407D01*
X8671329Y-14564693D02*
X8871329Y-14564693D01*
X8742757Y-14864693D01*
X9214186Y-14864693D02*
X9214186Y-14564693D01*
X9342757Y-14864693D02*
X9342757Y-14707550D01*
X9328471Y-14678978D01*
X9299900Y-14664693D01*
X9257043Y-14664693D01*
X9228471Y-14678978D01*
X9214186Y-14693264D01*
X9528471Y-14864693D02*
X9499900Y-14850407D01*
X9485614Y-14836121D01*
X9471329Y-14807550D01*
X9471329Y-14721835D01*
X9485614Y-14693264D01*
X9499900Y-14678978D01*
X9528471Y-14664693D01*
X9571329Y-14664693D01*
X9599900Y-14678978D01*
X9614186Y-14693264D01*
X9628471Y-14721835D01*
X9628471Y-14807550D01*
X9614186Y-14836121D01*
X9599900Y-14850407D01*
X9571329Y-14864693D01*
X9528471Y-14864693D01*
X9799900Y-14864693D02*
X9771329Y-14850407D01*
X9757043Y-14821835D01*
X9757043Y-14564693D01*
X10028471Y-14850407D02*
X9999900Y-14864693D01*
X9942757Y-14864693D01*
X9914186Y-14850407D01*
X9899900Y-14821835D01*
X9899900Y-14707550D01*
X9914186Y-14678978D01*
X9942757Y-14664693D01*
X9999900Y-14664693D01*
X10028471Y-14678978D01*
X10042757Y-14707550D01*
X10042757Y-14736121D01*
X9899900Y-14764693D01*
X10157043Y-14850407D02*
X10185614Y-14864693D01*
X10242757Y-14864693D01*
X10271329Y-14850407D01*
X10285614Y-14821835D01*
X10285614Y-14807550D01*
X10271329Y-14778978D01*
X10242757Y-14764693D01*
X10199900Y-14764693D01*
X10171329Y-14750407D01*
X10157043Y-14721835D01*
X10157043Y-14707550D01*
X10171329Y-14678978D01*
X10199900Y-14664693D01*
X10242757Y-14664693D01*
X10271329Y-14678978D01*
X10385614Y-14978978D02*
X10399900Y-14964693D01*
X10428471Y-14921835D01*
X10442757Y-14893264D01*
X10457043Y-14850407D01*
X10471329Y-14778978D01*
X10471329Y-14721835D01*
X10457043Y-14650407D01*
X10442757Y-14607550D01*
X10428471Y-14578978D01*
X10399900Y-14536121D01*
X10385614Y-14521835D01*
X3042043Y-15124978D02*
G75*
G03*
X3042043Y-15124978I-25000J0D01*
G01*
X3385614Y-14960693D02*
X3414186Y-14960693D01*
X3442757Y-14974978D01*
X3457043Y-14989264D01*
X3471328Y-15017835D01*
X3485614Y-15074978D01*
X3485614Y-15146407D01*
X3471328Y-15203550D01*
X3457043Y-15232121D01*
X3442757Y-15246407D01*
X3414186Y-15260693D01*
X3385614Y-15260693D01*
X3357043Y-15246407D01*
X3342757Y-15232121D01*
X3328471Y-15203550D01*
X3314186Y-15146407D01*
X3314186Y-15074978D01*
X3328471Y-15017835D01*
X3342757Y-14989264D01*
X3357043Y-14974978D01*
X3385614Y-14960693D01*
X3614186Y-15232121D02*
X3628471Y-15246407D01*
X3614186Y-15260693D01*
X3599900Y-15246407D01*
X3614186Y-15232121D01*
X3614186Y-15260693D01*
X3899900Y-14960693D02*
X3757043Y-14960693D01*
X3742757Y-15103550D01*
X3757043Y-15089264D01*
X3785614Y-15074978D01*
X3857043Y-15074978D01*
X3885614Y-15089264D01*
X3899900Y-15103550D01*
X3914186Y-15132121D01*
X3914186Y-15203550D01*
X3899900Y-15232121D01*
X3885614Y-15246407D01*
X3857043Y-15260693D01*
X3785614Y-15260693D01*
X3757043Y-15246407D01*
X3742757Y-15232121D01*
X4099900Y-14960693D02*
X4128471Y-14960693D01*
X4157043Y-14974978D01*
X4171328Y-14989264D01*
X4185614Y-15017835D01*
X4199900Y-15074978D01*
X4199900Y-15146407D01*
X4185614Y-15203550D01*
X4171328Y-15232121D01*
X4157043Y-15246407D01*
X4128471Y-15260693D01*
X4099900Y-15260693D01*
X4071328Y-15246407D01*
X4057043Y-15232121D01*
X4042757Y-15203550D01*
X4028471Y-15146407D01*
X4028471Y-15074978D01*
X4042757Y-15017835D01*
X4057043Y-14989264D01*
X4071328Y-14974978D01*
X4099900Y-14960693D01*
X4385614Y-14960693D02*
X4414186Y-14960693D01*
X4442757Y-14974978D01*
X4457043Y-14989264D01*
X4471329Y-15017835D01*
X4485614Y-15074978D01*
X4485614Y-15146407D01*
X4471329Y-15203550D01*
X4457043Y-15232121D01*
X4442757Y-15246407D01*
X4414186Y-15260693D01*
X4385614Y-15260693D01*
X4357043Y-15246407D01*
X4342757Y-15232121D01*
X4328471Y-15203550D01*
X4314186Y-15146407D01*
X4314186Y-15074978D01*
X4328471Y-15017835D01*
X4342757Y-14989264D01*
X4357043Y-14974978D01*
X4385614Y-14960693D01*
X4614186Y-15260693D02*
X4614186Y-15060693D01*
X4614186Y-15089264D02*
X4628471Y-15074978D01*
X4657043Y-15060693D01*
X4699900Y-15060693D01*
X4728471Y-15074978D01*
X4742757Y-15103550D01*
X4742757Y-15260693D01*
X4742757Y-15103550D02*
X4757043Y-15074978D01*
X4785614Y-15060693D01*
X4828471Y-15060693D01*
X4857043Y-15074978D01*
X4871329Y-15103550D01*
X4871329Y-15260693D01*
X5014186Y-15260693D02*
X5014186Y-15060693D01*
X5014186Y-15089264D02*
X5028471Y-15074978D01*
X5057043Y-15060693D01*
X5099900Y-15060693D01*
X5128471Y-15074978D01*
X5142757Y-15103550D01*
X5142757Y-15260693D01*
X5142757Y-15103550D02*
X5157043Y-15074978D01*
X5185614Y-15060693D01*
X5228471Y-15060693D01*
X5257043Y-15074978D01*
X5271329Y-15103550D01*
X5271329Y-15260693D01*
X5857043Y-14946407D02*
X5599900Y-15332121D01*
X6242757Y-14960693D02*
X6271328Y-14960693D01*
X6299900Y-14974978D01*
X6314186Y-14989264D01*
X6328471Y-15017835D01*
X6342757Y-15074978D01*
X6342757Y-15146407D01*
X6328471Y-15203550D01*
X6314186Y-15232121D01*
X6299900Y-15246407D01*
X6271328Y-15260693D01*
X6242757Y-15260693D01*
X6214186Y-15246407D01*
X6199900Y-15232121D01*
X6185614Y-15203550D01*
X6171328Y-15146407D01*
X6171328Y-15074978D01*
X6185614Y-15017835D01*
X6199900Y-14989264D01*
X6214186Y-14974978D01*
X6242757Y-14960693D01*
X6471328Y-15232121D02*
X6485614Y-15246407D01*
X6471328Y-15260693D01*
X6457043Y-15246407D01*
X6471328Y-15232121D01*
X6471328Y-15260693D01*
X6671328Y-14960693D02*
X6699900Y-14960693D01*
X6728471Y-14974978D01*
X6742757Y-14989264D01*
X6757043Y-15017835D01*
X6771328Y-15074978D01*
X6771328Y-15146407D01*
X6757043Y-15203550D01*
X6742757Y-15232121D01*
X6728471Y-15246407D01*
X6699900Y-15260693D01*
X6671328Y-15260693D01*
X6642757Y-15246407D01*
X6628471Y-15232121D01*
X6614186Y-15203550D01*
X6599900Y-15146407D01*
X6599900Y-15074978D01*
X6614186Y-15017835D01*
X6628471Y-14989264D01*
X6642757Y-14974978D01*
X6671328Y-14960693D01*
X7057043Y-15260693D02*
X6885614Y-15260693D01*
X6971328Y-15260693D02*
X6971328Y-14960693D01*
X6942757Y-15003550D01*
X6914186Y-15032121D01*
X6885614Y-15046407D01*
X7199900Y-15260693D02*
X7257043Y-15260693D01*
X7285614Y-15246407D01*
X7299900Y-15232121D01*
X7328471Y-15189264D01*
X7342757Y-15132121D01*
X7342757Y-15017835D01*
X7328471Y-14989264D01*
X7314186Y-14974978D01*
X7285614Y-14960693D01*
X7228471Y-14960693D01*
X7199900Y-14974978D01*
X7185614Y-14989264D01*
X7171328Y-15017835D01*
X7171328Y-15089264D01*
X7185614Y-15117835D01*
X7199900Y-15132121D01*
X7228471Y-15146407D01*
X7285614Y-15146407D01*
X7314186Y-15132121D01*
X7328471Y-15117835D01*
X7342757Y-15089264D01*
X7442757Y-14960693D02*
X7642757Y-14960693D01*
X7514186Y-15260693D01*
X7742757Y-14960693D02*
X7742757Y-15017835D01*
X7857043Y-14960693D02*
X7857043Y-15017835D01*
X8299900Y-15374978D02*
X8285614Y-15360693D01*
X8257043Y-15317835D01*
X8242757Y-15289264D01*
X8228471Y-15246407D01*
X8214186Y-15174978D01*
X8214186Y-15117835D01*
X8228471Y-15046407D01*
X8242757Y-15003550D01*
X8257043Y-14974978D01*
X8285614Y-14932121D01*
X8299900Y-14917835D01*
X8542757Y-15060693D02*
X8542757Y-15260693D01*
X8471329Y-14946407D02*
X8399900Y-15160693D01*
X8585614Y-15160693D01*
X8928471Y-15260693D02*
X8928471Y-14960693D01*
X9057043Y-15260693D02*
X9057043Y-15103550D01*
X9042757Y-15074978D01*
X9014186Y-15060693D01*
X8971329Y-15060693D01*
X8942757Y-15074978D01*
X8928471Y-15089264D01*
X9242757Y-15260693D02*
X9214186Y-15246407D01*
X9199900Y-15232121D01*
X9185614Y-15203550D01*
X9185614Y-15117835D01*
X9199900Y-15089264D01*
X9214186Y-15074978D01*
X9242757Y-15060693D01*
X9285614Y-15060693D01*
X9314186Y-15074978D01*
X9328471Y-15089264D01*
X9342757Y-15117835D01*
X9342757Y-15203550D01*
X9328471Y-15232121D01*
X9314186Y-15246407D01*
X9285614Y-15260693D01*
X9242757Y-15260693D01*
X9514186Y-15260693D02*
X9485614Y-15246407D01*
X9471329Y-15217835D01*
X9471329Y-14960693D01*
X9742757Y-15246407D02*
X9714186Y-15260693D01*
X9657043Y-15260693D01*
X9628471Y-15246407D01*
X9614186Y-15217835D01*
X9614186Y-15103550D01*
X9628471Y-15074978D01*
X9657043Y-15060693D01*
X9714186Y-15060693D01*
X9742757Y-15074978D01*
X9757043Y-15103550D01*
X9757043Y-15132121D01*
X9614186Y-15160693D01*
X9871329Y-15246407D02*
X9899900Y-15260693D01*
X9957043Y-15260693D01*
X9985614Y-15246407D01*
X9999900Y-15217835D01*
X9999900Y-15203550D01*
X9985614Y-15174978D01*
X9957043Y-15160693D01*
X9914186Y-15160693D01*
X9885614Y-15146407D01*
X9871329Y-15117835D01*
X9871329Y-15103550D01*
X9885614Y-15074978D01*
X9914186Y-15060693D01*
X9957043Y-15060693D01*
X9985614Y-15074978D01*
X10099900Y-15374978D02*
X10114186Y-15360693D01*
X10142757Y-15317835D01*
X10157043Y-15289264D01*
X10171329Y-15246407D01*
X10185614Y-15174978D01*
X10185614Y-15117835D01*
X10171329Y-15046407D01*
X10157043Y-15003550D01*
X10142757Y-14974978D01*
X10114186Y-14932121D01*
X10099900Y-14917835D01*
X3002043Y-15480978D02*
X3002043Y-15560978D01*
X2962043Y-15520978D02*
X3042043Y-15520978D01*
X3385614Y-15356693D02*
X3414186Y-15356693D01*
X3442757Y-15370978D01*
X3457043Y-15385264D01*
X3471328Y-15413835D01*
X3485614Y-15470978D01*
X3485614Y-15542407D01*
X3471328Y-15599550D01*
X3457043Y-15628121D01*
X3442757Y-15642407D01*
X3414186Y-15656693D01*
X3385614Y-15656693D01*
X3357043Y-15642407D01*
X3342757Y-15628121D01*
X3328471Y-15599550D01*
X3314186Y-15542407D01*
X3314186Y-15470978D01*
X3328471Y-15413835D01*
X3342757Y-15385264D01*
X3357043Y-15370978D01*
X3385614Y-15356693D01*
X3614186Y-15628121D02*
X3628471Y-15642407D01*
X3614186Y-15656693D01*
X3599900Y-15642407D01*
X3614186Y-15628121D01*
X3614186Y-15656693D01*
X3799900Y-15485264D02*
X3771328Y-15470978D01*
X3757043Y-15456693D01*
X3742757Y-15428121D01*
X3742757Y-15413835D01*
X3757043Y-15385264D01*
X3771328Y-15370978D01*
X3799900Y-15356693D01*
X3857043Y-15356693D01*
X3885614Y-15370978D01*
X3899900Y-15385264D01*
X3914186Y-15413835D01*
X3914186Y-15428121D01*
X3899900Y-15456693D01*
X3885614Y-15470978D01*
X3857043Y-15485264D01*
X3799900Y-15485264D01*
X3771328Y-15499550D01*
X3757043Y-15513835D01*
X3742757Y-15542407D01*
X3742757Y-15599550D01*
X3757043Y-15628121D01*
X3771328Y-15642407D01*
X3799900Y-15656693D01*
X3857043Y-15656693D01*
X3885614Y-15642407D01*
X3899900Y-15628121D01*
X3914186Y-15599550D01*
X3914186Y-15542407D01*
X3899900Y-15513835D01*
X3885614Y-15499550D01*
X3857043Y-15485264D01*
X4099900Y-15356693D02*
X4128471Y-15356693D01*
X4157043Y-15370978D01*
X4171328Y-15385264D01*
X4185614Y-15413835D01*
X4199900Y-15470978D01*
X4199900Y-15542407D01*
X4185614Y-15599550D01*
X4171328Y-15628121D01*
X4157043Y-15642407D01*
X4128471Y-15656693D01*
X4099900Y-15656693D01*
X4071328Y-15642407D01*
X4057043Y-15628121D01*
X4042757Y-15599550D01*
X4028471Y-15542407D01*
X4028471Y-15470978D01*
X4042757Y-15413835D01*
X4057043Y-15385264D01*
X4071328Y-15370978D01*
X4099900Y-15356693D01*
X4385614Y-15356693D02*
X4414186Y-15356693D01*
X4442757Y-15370978D01*
X4457043Y-15385264D01*
X4471329Y-15413835D01*
X4485614Y-15470978D01*
X4485614Y-15542407D01*
X4471329Y-15599550D01*
X4457043Y-15628121D01*
X4442757Y-15642407D01*
X4414186Y-15656693D01*
X4385614Y-15656693D01*
X4357043Y-15642407D01*
X4342757Y-15628121D01*
X4328471Y-15599550D01*
X4314186Y-15542407D01*
X4314186Y-15470978D01*
X4328471Y-15413835D01*
X4342757Y-15385264D01*
X4357043Y-15370978D01*
X4385614Y-15356693D01*
X4614186Y-15656693D02*
X4614186Y-15456693D01*
X4614186Y-15485264D02*
X4628471Y-15470978D01*
X4657043Y-15456693D01*
X4699900Y-15456693D01*
X4728471Y-15470978D01*
X4742757Y-15499550D01*
X4742757Y-15656693D01*
X4742757Y-15499550D02*
X4757043Y-15470978D01*
X4785614Y-15456693D01*
X4828471Y-15456693D01*
X4857043Y-15470978D01*
X4871329Y-15499550D01*
X4871329Y-15656693D01*
X5014186Y-15656693D02*
X5014186Y-15456693D01*
X5014186Y-15485264D02*
X5028471Y-15470978D01*
X5057043Y-15456693D01*
X5099900Y-15456693D01*
X5128471Y-15470978D01*
X5142757Y-15499550D01*
X5142757Y-15656693D01*
X5142757Y-15499550D02*
X5157043Y-15470978D01*
X5185614Y-15456693D01*
X5228471Y-15456693D01*
X5257043Y-15470978D01*
X5271329Y-15499550D01*
X5271329Y-15656693D01*
X5857043Y-15342407D02*
X5599900Y-15728121D01*
X6242757Y-15356693D02*
X6271328Y-15356693D01*
X6299900Y-15370978D01*
X6314186Y-15385264D01*
X6328471Y-15413835D01*
X6342757Y-15470978D01*
X6342757Y-15542407D01*
X6328471Y-15599550D01*
X6314186Y-15628121D01*
X6299900Y-15642407D01*
X6271328Y-15656693D01*
X6242757Y-15656693D01*
X6214186Y-15642407D01*
X6199900Y-15628121D01*
X6185614Y-15599550D01*
X6171328Y-15542407D01*
X6171328Y-15470978D01*
X6185614Y-15413835D01*
X6199900Y-15385264D01*
X6214186Y-15370978D01*
X6242757Y-15356693D01*
X6471328Y-15628121D02*
X6485614Y-15642407D01*
X6471328Y-15656693D01*
X6457043Y-15642407D01*
X6471328Y-15628121D01*
X6471328Y-15656693D01*
X6671328Y-15356693D02*
X6699900Y-15356693D01*
X6728471Y-15370978D01*
X6742757Y-15385264D01*
X6757043Y-15413835D01*
X6771328Y-15470978D01*
X6771328Y-15542407D01*
X6757043Y-15599550D01*
X6742757Y-15628121D01*
X6728471Y-15642407D01*
X6699900Y-15656693D01*
X6671328Y-15656693D01*
X6642757Y-15642407D01*
X6628471Y-15628121D01*
X6614186Y-15599550D01*
X6599900Y-15542407D01*
X6599900Y-15470978D01*
X6614186Y-15413835D01*
X6628471Y-15385264D01*
X6642757Y-15370978D01*
X6671328Y-15356693D01*
X6871328Y-15356693D02*
X7057043Y-15356693D01*
X6957043Y-15470978D01*
X6999900Y-15470978D01*
X7028471Y-15485264D01*
X7042757Y-15499550D01*
X7057043Y-15528121D01*
X7057043Y-15599550D01*
X7042757Y-15628121D01*
X7028471Y-15642407D01*
X6999900Y-15656693D01*
X6914186Y-15656693D01*
X6885614Y-15642407D01*
X6871328Y-15628121D01*
X7342757Y-15656693D02*
X7171328Y-15656693D01*
X7257043Y-15656693D02*
X7257043Y-15356693D01*
X7228471Y-15399550D01*
X7199900Y-15428121D01*
X7171328Y-15442407D01*
X7614186Y-15356693D02*
X7471328Y-15356693D01*
X7457043Y-15499550D01*
X7471328Y-15485264D01*
X7499900Y-15470978D01*
X7571328Y-15470978D01*
X7599900Y-15485264D01*
X7614186Y-15499550D01*
X7628471Y-15528121D01*
X7628471Y-15599550D01*
X7614186Y-15628121D01*
X7599900Y-15642407D01*
X7571328Y-15656693D01*
X7499900Y-15656693D01*
X7471328Y-15642407D01*
X7457043Y-15628121D01*
X7742757Y-15356693D02*
X7742757Y-15413835D01*
X7857043Y-15356693D02*
X7857043Y-15413835D01*
X8299900Y-15770978D02*
X8285614Y-15756693D01*
X8257043Y-15713835D01*
X8242757Y-15685264D01*
X8228471Y-15642407D01*
X8214186Y-15570978D01*
X8214186Y-15513835D01*
X8228471Y-15442407D01*
X8242757Y-15399550D01*
X8257043Y-15370978D01*
X8285614Y-15328121D01*
X8299900Y-15313835D01*
X8471329Y-15356693D02*
X8499900Y-15356693D01*
X8528471Y-15370978D01*
X8542757Y-15385264D01*
X8557043Y-15413835D01*
X8571329Y-15470978D01*
X8571329Y-15542407D01*
X8557043Y-15599550D01*
X8542757Y-15628121D01*
X8528471Y-15642407D01*
X8499900Y-15656693D01*
X8471329Y-15656693D01*
X8442757Y-15642407D01*
X8428471Y-15628121D01*
X8414186Y-15599550D01*
X8399900Y-15542407D01*
X8399900Y-15470978D01*
X8414186Y-15413835D01*
X8428471Y-15385264D01*
X8442757Y-15370978D01*
X8471329Y-15356693D01*
X8928471Y-15656693D02*
X8928471Y-15356693D01*
X9057043Y-15656693D02*
X9057043Y-15499550D01*
X9042757Y-15470978D01*
X9014186Y-15456693D01*
X8971329Y-15456693D01*
X8942757Y-15470978D01*
X8928471Y-15485264D01*
X9242757Y-15656693D02*
X9214186Y-15642407D01*
X9199900Y-15628121D01*
X9185614Y-15599550D01*
X9185614Y-15513835D01*
X9199900Y-15485264D01*
X9214186Y-15470978D01*
X9242757Y-15456693D01*
X9285614Y-15456693D01*
X9314186Y-15470978D01*
X9328471Y-15485264D01*
X9342757Y-15513835D01*
X9342757Y-15599550D01*
X9328471Y-15628121D01*
X9314186Y-15642407D01*
X9285614Y-15656693D01*
X9242757Y-15656693D01*
X9514186Y-15656693D02*
X9485614Y-15642407D01*
X9471329Y-15613835D01*
X9471329Y-15356693D01*
X9742757Y-15642407D02*
X9714186Y-15656693D01*
X9657043Y-15656693D01*
X9628471Y-15642407D01*
X9614186Y-15613835D01*
X9614186Y-15499550D01*
X9628471Y-15470978D01*
X9657043Y-15456693D01*
X9714186Y-15456693D01*
X9742757Y-15470978D01*
X9757043Y-15499550D01*
X9757043Y-15528121D01*
X9614186Y-15556693D01*
X9871329Y-15642407D02*
X9899900Y-15656693D01*
X9957043Y-15656693D01*
X9985614Y-15642407D01*
X9999900Y-15613835D01*
X9999900Y-15599550D01*
X9985614Y-15570978D01*
X9957043Y-15556693D01*
X9914186Y-15556693D01*
X9885614Y-15542407D01*
X9871329Y-15513835D01*
X9871329Y-15499550D01*
X9885614Y-15470978D01*
X9914186Y-15456693D01*
X9957043Y-15456693D01*
X9985614Y-15470978D01*
X10357043Y-15542407D02*
X10585614Y-15542407D01*
X10471329Y-15656693D02*
X10471329Y-15428121D01*
X11114186Y-15656693D02*
X10942757Y-15656693D01*
X11028471Y-15656693D02*
X11028471Y-15356693D01*
X10999900Y-15399550D01*
X10971329Y-15428121D01*
X10942757Y-15442407D01*
X11214186Y-15356693D02*
X11399900Y-15356693D01*
X11299900Y-15470978D01*
X11342757Y-15470978D01*
X11371328Y-15485264D01*
X11385614Y-15499550D01*
X11399900Y-15528121D01*
X11399900Y-15599550D01*
X11385614Y-15628121D01*
X11371328Y-15642407D01*
X11342757Y-15656693D01*
X11257043Y-15656693D01*
X11228471Y-15642407D01*
X11214186Y-15628121D01*
X11657043Y-15356693D02*
X11599900Y-15356693D01*
X11571328Y-15370978D01*
X11557043Y-15385264D01*
X11528471Y-15428121D01*
X11514186Y-15485264D01*
X11514186Y-15599550D01*
X11528471Y-15628121D01*
X11542757Y-15642407D01*
X11571328Y-15656693D01*
X11628471Y-15656693D01*
X11657043Y-15642407D01*
X11671328Y-15628121D01*
X11685614Y-15599550D01*
X11685614Y-15528121D01*
X11671328Y-15499550D01*
X11657043Y-15485264D01*
X11628471Y-15470978D01*
X11571328Y-15470978D01*
X11542757Y-15485264D01*
X11528471Y-15499550D01*
X11514186Y-15528121D01*
X12028471Y-15642407D02*
X12057043Y-15656693D01*
X12114186Y-15656693D01*
X12142757Y-15642407D01*
X12157043Y-15613835D01*
X12157043Y-15599550D01*
X12142757Y-15570978D01*
X12114186Y-15556693D01*
X12071328Y-15556693D01*
X12042757Y-15542407D01*
X12028471Y-15513835D01*
X12028471Y-15499550D01*
X12042757Y-15470978D01*
X12071328Y-15456693D01*
X12114186Y-15456693D01*
X12142757Y-15470978D01*
X12328471Y-15656693D02*
X12299900Y-15642407D01*
X12285614Y-15613835D01*
X12285614Y-15356693D01*
X12485614Y-15656693D02*
X12457043Y-15642407D01*
X12442757Y-15628121D01*
X12428471Y-15599550D01*
X12428471Y-15513835D01*
X12442757Y-15485264D01*
X12457043Y-15470978D01*
X12485614Y-15456693D01*
X12528471Y-15456693D01*
X12557043Y-15470978D01*
X12571328Y-15485264D01*
X12585614Y-15513835D01*
X12585614Y-15599550D01*
X12571328Y-15628121D01*
X12557043Y-15642407D01*
X12528471Y-15656693D01*
X12485614Y-15656693D01*
X12671328Y-15456693D02*
X12785614Y-15456693D01*
X12714186Y-15356693D02*
X12714186Y-15613835D01*
X12728471Y-15642407D01*
X12757043Y-15656693D01*
X12785614Y-15656693D01*
X12871328Y-15642407D02*
X12899900Y-15656693D01*
X12957043Y-15656693D01*
X12985614Y-15642407D01*
X12999900Y-15613835D01*
X12999900Y-15599550D01*
X12985614Y-15570978D01*
X12957043Y-15556693D01*
X12914186Y-15556693D01*
X12885614Y-15542407D01*
X12871328Y-15513835D01*
X12871328Y-15499550D01*
X12885614Y-15470978D01*
X12914186Y-15456693D01*
X12957043Y-15456693D01*
X12985614Y-15470978D01*
X13099900Y-15770978D02*
X13114186Y-15756693D01*
X13142757Y-15713835D01*
X13157043Y-15685264D01*
X13171328Y-15642407D01*
X13185614Y-15570978D01*
X13185614Y-15513835D01*
X13171328Y-15442407D01*
X13157043Y-15399550D01*
X13142757Y-15370978D01*
X13114186Y-15328121D01*
X13099900Y-15313835D01*
X3030140Y-15945715D02*
X3030140Y-15888241D01*
X2972666Y-15888241D01*
X2972666Y-15945715D01*
X3030140Y-15945715D01*
X3385614Y-15752693D02*
X3414186Y-15752693D01*
X3442757Y-15766978D01*
X3457043Y-15781264D01*
X3471328Y-15809835D01*
X3485614Y-15866978D01*
X3485614Y-15938407D01*
X3471328Y-15995550D01*
X3457043Y-16024121D01*
X3442757Y-16038407D01*
X3414186Y-16052693D01*
X3385614Y-16052693D01*
X3357043Y-16038407D01*
X3342757Y-16024121D01*
X3328471Y-15995550D01*
X3314186Y-15938407D01*
X3314186Y-15866978D01*
X3328471Y-15809835D01*
X3342757Y-15781264D01*
X3357043Y-15766978D01*
X3385614Y-15752693D01*
X3614186Y-16024121D02*
X3628471Y-16038407D01*
X3614186Y-16052693D01*
X3599900Y-16038407D01*
X3614186Y-16024121D01*
X3614186Y-16052693D01*
X3799900Y-15881264D02*
X3771328Y-15866978D01*
X3757043Y-15852693D01*
X3742757Y-15824121D01*
X3742757Y-15809835D01*
X3757043Y-15781264D01*
X3771328Y-15766978D01*
X3799900Y-15752693D01*
X3857043Y-15752693D01*
X3885614Y-15766978D01*
X3899900Y-15781264D01*
X3914186Y-15809835D01*
X3914186Y-15824121D01*
X3899900Y-15852693D01*
X3885614Y-15866978D01*
X3857043Y-15881264D01*
X3799900Y-15881264D01*
X3771328Y-15895550D01*
X3757043Y-15909835D01*
X3742757Y-15938407D01*
X3742757Y-15995550D01*
X3757043Y-16024121D01*
X3771328Y-16038407D01*
X3799900Y-16052693D01*
X3857043Y-16052693D01*
X3885614Y-16038407D01*
X3899900Y-16024121D01*
X3914186Y-15995550D01*
X3914186Y-15938407D01*
X3899900Y-15909835D01*
X3885614Y-15895550D01*
X3857043Y-15881264D01*
X4199900Y-16052693D02*
X4028471Y-16052693D01*
X4114186Y-16052693D02*
X4114186Y-15752693D01*
X4085614Y-15795550D01*
X4057043Y-15824121D01*
X4028471Y-15838407D01*
X4299900Y-15752693D02*
X4485614Y-15752693D01*
X4385614Y-15866978D01*
X4428471Y-15866978D01*
X4457043Y-15881264D01*
X4471329Y-15895550D01*
X4485614Y-15924121D01*
X4485614Y-15995550D01*
X4471329Y-16024121D01*
X4457043Y-16038407D01*
X4428471Y-16052693D01*
X4342757Y-16052693D01*
X4314186Y-16038407D01*
X4299900Y-16024121D01*
X4614186Y-16052693D02*
X4614186Y-15852693D01*
X4614186Y-15881264D02*
X4628471Y-15866978D01*
X4657043Y-15852693D01*
X4699900Y-15852693D01*
X4728471Y-15866978D01*
X4742757Y-15895550D01*
X4742757Y-16052693D01*
X4742757Y-15895550D02*
X4757043Y-15866978D01*
X4785614Y-15852693D01*
X4828471Y-15852693D01*
X4857043Y-15866978D01*
X4871329Y-15895550D01*
X4871329Y-16052693D01*
X5014186Y-16052693D02*
X5014186Y-15852693D01*
X5014186Y-15881264D02*
X5028471Y-15866978D01*
X5057043Y-15852693D01*
X5099900Y-15852693D01*
X5128471Y-15866978D01*
X5142757Y-15895550D01*
X5142757Y-16052693D01*
X5142757Y-15895550D02*
X5157043Y-15866978D01*
X5185614Y-15852693D01*
X5228471Y-15852693D01*
X5257043Y-15866978D01*
X5271329Y-15895550D01*
X5271329Y-16052693D01*
X5857043Y-15738407D02*
X5599900Y-16124121D01*
X6242757Y-15752693D02*
X6271328Y-15752693D01*
X6299900Y-15766978D01*
X6314186Y-15781264D01*
X6328471Y-15809835D01*
X6342757Y-15866978D01*
X6342757Y-15938407D01*
X6328471Y-15995550D01*
X6314186Y-16024121D01*
X6299900Y-16038407D01*
X6271328Y-16052693D01*
X6242757Y-16052693D01*
X6214186Y-16038407D01*
X6199900Y-16024121D01*
X6185614Y-15995550D01*
X6171328Y-15938407D01*
X6171328Y-15866978D01*
X6185614Y-15809835D01*
X6199900Y-15781264D01*
X6214186Y-15766978D01*
X6242757Y-15752693D01*
X6471328Y-16024121D02*
X6485614Y-16038407D01*
X6471328Y-16052693D01*
X6457043Y-16038407D01*
X6471328Y-16024121D01*
X6471328Y-16052693D01*
X6671328Y-15752693D02*
X6699900Y-15752693D01*
X6728471Y-15766978D01*
X6742757Y-15781264D01*
X6757043Y-15809835D01*
X6771328Y-15866978D01*
X6771328Y-15938407D01*
X6757043Y-15995550D01*
X6742757Y-16024121D01*
X6728471Y-16038407D01*
X6699900Y-16052693D01*
X6671328Y-16052693D01*
X6642757Y-16038407D01*
X6628471Y-16024121D01*
X6614186Y-15995550D01*
X6599900Y-15938407D01*
X6599900Y-15866978D01*
X6614186Y-15809835D01*
X6628471Y-15781264D01*
X6642757Y-15766978D01*
X6671328Y-15752693D01*
X6871328Y-15752693D02*
X7057043Y-15752693D01*
X6957043Y-15866978D01*
X6999900Y-15866978D01*
X7028471Y-15881264D01*
X7042757Y-15895550D01*
X7057043Y-15924121D01*
X7057043Y-15995550D01*
X7042757Y-16024121D01*
X7028471Y-16038407D01*
X6999900Y-16052693D01*
X6914186Y-16052693D01*
X6885614Y-16038407D01*
X6871328Y-16024121D01*
X7171328Y-15781264D02*
X7185614Y-15766978D01*
X7214186Y-15752693D01*
X7285614Y-15752693D01*
X7314186Y-15766978D01*
X7328471Y-15781264D01*
X7342757Y-15809835D01*
X7342757Y-15838407D01*
X7328471Y-15881264D01*
X7157043Y-16052693D01*
X7342757Y-16052693D01*
X7528471Y-15752693D02*
X7557043Y-15752693D01*
X7585614Y-15766978D01*
X7599900Y-15781264D01*
X7614186Y-15809835D01*
X7628471Y-15866978D01*
X7628471Y-15938407D01*
X7614186Y-15995550D01*
X7599900Y-16024121D01*
X7585614Y-16038407D01*
X7557043Y-16052693D01*
X7528471Y-16052693D01*
X7499900Y-16038407D01*
X7485614Y-16024121D01*
X7471328Y-15995550D01*
X7457043Y-15938407D01*
X7457043Y-15866978D01*
X7471328Y-15809835D01*
X7485614Y-15781264D01*
X7499900Y-15766978D01*
X7528471Y-15752693D01*
X7742757Y-15752693D02*
X7742757Y-15809835D01*
X7857043Y-15752693D02*
X7857043Y-15809835D01*
X8299900Y-16166978D02*
X8285614Y-16152693D01*
X8257043Y-16109835D01*
X8242757Y-16081264D01*
X8228471Y-16038407D01*
X8214186Y-15966978D01*
X8214186Y-15909835D01*
X8228471Y-15838407D01*
X8242757Y-15795550D01*
X8257043Y-15766978D01*
X8285614Y-15724121D01*
X8299900Y-15709835D01*
X8399900Y-15781264D02*
X8414186Y-15766978D01*
X8442757Y-15752693D01*
X8514186Y-15752693D01*
X8542757Y-15766978D01*
X8557043Y-15781264D01*
X8571329Y-15809835D01*
X8571329Y-15838407D01*
X8557043Y-15881264D01*
X8385614Y-16052693D01*
X8571329Y-16052693D01*
X8828471Y-15852693D02*
X8828471Y-16052693D01*
X8757043Y-15738407D02*
X8685614Y-15952693D01*
X8871329Y-15952693D01*
X9214186Y-16052693D02*
X9214186Y-15752693D01*
X9342757Y-16052693D02*
X9342757Y-15895550D01*
X9328471Y-15866978D01*
X9299900Y-15852693D01*
X9257043Y-15852693D01*
X9228471Y-15866978D01*
X9214186Y-15881264D01*
X9528471Y-16052693D02*
X9499900Y-16038407D01*
X9485614Y-16024121D01*
X9471329Y-15995550D01*
X9471329Y-15909835D01*
X9485614Y-15881264D01*
X9499900Y-15866978D01*
X9528471Y-15852693D01*
X9571329Y-15852693D01*
X9599900Y-15866978D01*
X9614186Y-15881264D01*
X9628471Y-15909835D01*
X9628471Y-15995550D01*
X9614186Y-16024121D01*
X9599900Y-16038407D01*
X9571329Y-16052693D01*
X9528471Y-16052693D01*
X9799900Y-16052693D02*
X9771329Y-16038407D01*
X9757043Y-16009835D01*
X9757043Y-15752693D01*
X10028471Y-16038407D02*
X9999900Y-16052693D01*
X9942757Y-16052693D01*
X9914186Y-16038407D01*
X9899900Y-16009835D01*
X9899900Y-15895550D01*
X9914186Y-15866978D01*
X9942757Y-15852693D01*
X9999900Y-15852693D01*
X10028471Y-15866978D01*
X10042757Y-15895550D01*
X10042757Y-15924121D01*
X9899900Y-15952693D01*
X10157043Y-16038407D02*
X10185614Y-16052693D01*
X10242757Y-16052693D01*
X10271329Y-16038407D01*
X10285614Y-16009835D01*
X10285614Y-15995550D01*
X10271329Y-15966978D01*
X10242757Y-15952693D01*
X10199900Y-15952693D01*
X10171329Y-15938407D01*
X10157043Y-15909835D01*
X10157043Y-15895550D01*
X10171329Y-15866978D01*
X10199900Y-15852693D01*
X10242757Y-15852693D01*
X10271329Y-15866978D01*
X10385614Y-16166978D02*
X10399900Y-16152693D01*
X10428471Y-16109835D01*
X10442757Y-16081264D01*
X10457043Y-16038407D01*
X10471329Y-15966978D01*
X10471329Y-15909835D01*
X10457043Y-15838407D01*
X10442757Y-15795550D01*
X10428471Y-15766978D01*
X10399900Y-15724121D01*
X10385614Y-15709835D01*
X2982043Y-16372978D02*
X3042043Y-16312978D01*
X2982043Y-16252978D01*
X2922043Y-16312978D01*
X2982043Y-16372978D01*
X3485614Y-16448693D02*
X3314186Y-16448693D01*
X3399900Y-16448693D02*
X3399900Y-16148693D01*
X3371328Y-16191550D01*
X3342757Y-16220121D01*
X3314186Y-16234407D01*
X3614186Y-16420121D02*
X3628471Y-16434407D01*
X3614186Y-16448693D01*
X3599900Y-16434407D01*
X3614186Y-16420121D01*
X3614186Y-16448693D01*
X3742757Y-16177264D02*
X3757043Y-16162978D01*
X3785614Y-16148693D01*
X3857043Y-16148693D01*
X3885614Y-16162978D01*
X3899900Y-16177264D01*
X3914186Y-16205835D01*
X3914186Y-16234407D01*
X3899900Y-16277264D01*
X3728471Y-16448693D01*
X3914186Y-16448693D01*
X4099900Y-16148693D02*
X4128471Y-16148693D01*
X4157043Y-16162978D01*
X4171328Y-16177264D01*
X4185614Y-16205835D01*
X4199900Y-16262978D01*
X4199900Y-16334407D01*
X4185614Y-16391550D01*
X4171328Y-16420121D01*
X4157043Y-16434407D01*
X4128471Y-16448693D01*
X4099900Y-16448693D01*
X4071328Y-16434407D01*
X4057043Y-16420121D01*
X4042757Y-16391550D01*
X4028471Y-16334407D01*
X4028471Y-16262978D01*
X4042757Y-16205835D01*
X4057043Y-16177264D01*
X4071328Y-16162978D01*
X4099900Y-16148693D01*
X4385614Y-16148693D02*
X4414186Y-16148693D01*
X4442757Y-16162978D01*
X4457043Y-16177264D01*
X4471329Y-16205835D01*
X4485614Y-16262978D01*
X4485614Y-16334407D01*
X4471329Y-16391550D01*
X4457043Y-16420121D01*
X4442757Y-16434407D01*
X4414186Y-16448693D01*
X4385614Y-16448693D01*
X4357043Y-16434407D01*
X4342757Y-16420121D01*
X4328471Y-16391550D01*
X4314186Y-16334407D01*
X4314186Y-16262978D01*
X4328471Y-16205835D01*
X4342757Y-16177264D01*
X4357043Y-16162978D01*
X4385614Y-16148693D01*
X4614186Y-16448693D02*
X4614186Y-16248693D01*
X4614186Y-16277264D02*
X4628471Y-16262978D01*
X4657043Y-16248693D01*
X4699900Y-16248693D01*
X4728471Y-16262978D01*
X4742757Y-16291550D01*
X4742757Y-16448693D01*
X4742757Y-16291550D02*
X4757043Y-16262978D01*
X4785614Y-16248693D01*
X4828471Y-16248693D01*
X4857043Y-16262978D01*
X4871329Y-16291550D01*
X4871329Y-16448693D01*
X5014186Y-16448693D02*
X5014186Y-16248693D01*
X5014186Y-16277264D02*
X5028471Y-16262978D01*
X5057043Y-16248693D01*
X5099900Y-16248693D01*
X5128471Y-16262978D01*
X5142757Y-16291550D01*
X5142757Y-16448693D01*
X5142757Y-16291550D02*
X5157043Y-16262978D01*
X5185614Y-16248693D01*
X5228471Y-16248693D01*
X5257043Y-16262978D01*
X5271329Y-16291550D01*
X5271329Y-16448693D01*
X5857043Y-16134407D02*
X5599900Y-16520121D01*
X6242757Y-16148693D02*
X6271328Y-16148693D01*
X6299900Y-16162978D01*
X6314186Y-16177264D01*
X6328471Y-16205835D01*
X6342757Y-16262978D01*
X6342757Y-16334407D01*
X6328471Y-16391550D01*
X6314186Y-16420121D01*
X6299900Y-16434407D01*
X6271328Y-16448693D01*
X6242757Y-16448693D01*
X6214186Y-16434407D01*
X6199900Y-16420121D01*
X6185614Y-16391550D01*
X6171328Y-16334407D01*
X6171328Y-16262978D01*
X6185614Y-16205835D01*
X6199900Y-16177264D01*
X6214186Y-16162978D01*
X6242757Y-16148693D01*
X6471328Y-16420121D02*
X6485614Y-16434407D01*
X6471328Y-16448693D01*
X6457043Y-16434407D01*
X6471328Y-16420121D01*
X6471328Y-16448693D01*
X6671328Y-16148693D02*
X6699900Y-16148693D01*
X6728471Y-16162978D01*
X6742757Y-16177264D01*
X6757043Y-16205835D01*
X6771328Y-16262978D01*
X6771328Y-16334407D01*
X6757043Y-16391550D01*
X6742757Y-16420121D01*
X6728471Y-16434407D01*
X6699900Y-16448693D01*
X6671328Y-16448693D01*
X6642757Y-16434407D01*
X6628471Y-16420121D01*
X6614186Y-16391550D01*
X6599900Y-16334407D01*
X6599900Y-16262978D01*
X6614186Y-16205835D01*
X6628471Y-16177264D01*
X6642757Y-16162978D01*
X6671328Y-16148693D01*
X7028471Y-16248693D02*
X7028471Y-16448693D01*
X6957043Y-16134407D02*
X6885614Y-16348693D01*
X7071328Y-16348693D01*
X7157043Y-16148693D02*
X7357043Y-16148693D01*
X7228471Y-16448693D01*
X7457043Y-16177264D02*
X7471328Y-16162978D01*
X7499900Y-16148693D01*
X7571328Y-16148693D01*
X7599900Y-16162978D01*
X7614186Y-16177264D01*
X7628471Y-16205835D01*
X7628471Y-16234407D01*
X7614186Y-16277264D01*
X7442757Y-16448693D01*
X7628471Y-16448693D01*
X7742757Y-16148693D02*
X7742757Y-16205835D01*
X7857043Y-16148693D02*
X7857043Y-16205835D01*
X8299900Y-16562978D02*
X8285614Y-16548693D01*
X8257043Y-16505835D01*
X8242757Y-16477264D01*
X8228471Y-16434407D01*
X8214186Y-16362978D01*
X8214186Y-16305835D01*
X8228471Y-16234407D01*
X8242757Y-16191550D01*
X8257043Y-16162978D01*
X8285614Y-16120121D01*
X8299900Y-16105835D01*
X8399900Y-16177264D02*
X8414186Y-16162978D01*
X8442757Y-16148693D01*
X8514186Y-16148693D01*
X8542757Y-16162978D01*
X8557043Y-16177264D01*
X8571329Y-16205835D01*
X8571329Y-16234407D01*
X8557043Y-16277264D01*
X8385614Y-16448693D01*
X8571329Y-16448693D01*
X8928471Y-16448693D02*
X8928471Y-16148693D01*
X9057043Y-16448693D02*
X9057043Y-16291550D01*
X9042757Y-16262978D01*
X9014186Y-16248693D01*
X8971329Y-16248693D01*
X8942757Y-16262978D01*
X8928471Y-16277264D01*
X9242757Y-16448693D02*
X9214186Y-16434407D01*
X9199900Y-16420121D01*
X9185614Y-16391550D01*
X9185614Y-16305835D01*
X9199900Y-16277264D01*
X9214186Y-16262978D01*
X9242757Y-16248693D01*
X9285614Y-16248693D01*
X9314186Y-16262978D01*
X9328471Y-16277264D01*
X9342757Y-16305835D01*
X9342757Y-16391550D01*
X9328471Y-16420121D01*
X9314186Y-16434407D01*
X9285614Y-16448693D01*
X9242757Y-16448693D01*
X9514186Y-16448693D02*
X9485614Y-16434407D01*
X9471329Y-16405835D01*
X9471329Y-16148693D01*
X9742757Y-16434407D02*
X9714186Y-16448693D01*
X9657043Y-16448693D01*
X9628471Y-16434407D01*
X9614186Y-16405835D01*
X9614186Y-16291550D01*
X9628471Y-16262978D01*
X9657043Y-16248693D01*
X9714186Y-16248693D01*
X9742757Y-16262978D01*
X9757043Y-16291550D01*
X9757043Y-16320121D01*
X9614186Y-16348693D01*
X9871329Y-16434407D02*
X9899900Y-16448693D01*
X9957043Y-16448693D01*
X9985614Y-16434407D01*
X9999900Y-16405835D01*
X9999900Y-16391550D01*
X9985614Y-16362978D01*
X9957043Y-16348693D01*
X9914186Y-16348693D01*
X9885614Y-16334407D01*
X9871329Y-16305835D01*
X9871329Y-16291550D01*
X9885614Y-16262978D01*
X9914186Y-16248693D01*
X9957043Y-16248693D01*
X9985614Y-16262978D01*
X10099900Y-16562978D02*
X10114186Y-16548693D01*
X10142757Y-16505835D01*
X10157043Y-16477264D01*
X10171329Y-16434407D01*
X10185614Y-16362978D01*
X10185614Y-16305835D01*
X10171329Y-16234407D01*
X10157043Y-16191550D01*
X10142757Y-16162978D01*
X10114186Y-16120121D01*
X10099900Y-16105835D01*
X2912043Y-16643978D02*
X3042043Y-16773978D01*
X3042043Y-16643978D02*
X2912043Y-16773978D01*
X3042043Y-16708978D02*
G75*
G03*
X3042043Y-16708978I-65000J0D01*
G01*
X3485614Y-16844693D02*
X3314186Y-16844693D01*
X3399900Y-16844693D02*
X3399900Y-16544693D01*
X3371328Y-16587550D01*
X3342757Y-16616121D01*
X3314186Y-16630407D01*
X3614186Y-16816121D02*
X3628471Y-16830407D01*
X3614186Y-16844693D01*
X3599900Y-16830407D01*
X3614186Y-16816121D01*
X3614186Y-16844693D01*
X3728471Y-16544693D02*
X3914186Y-16544693D01*
X3814186Y-16658978D01*
X3857043Y-16658978D01*
X3885614Y-16673264D01*
X3899900Y-16687550D01*
X3914186Y-16716121D01*
X3914186Y-16787550D01*
X3899900Y-16816121D01*
X3885614Y-16830407D01*
X3857043Y-16844693D01*
X3771328Y-16844693D01*
X3742757Y-16830407D01*
X3728471Y-16816121D01*
X4099900Y-16544693D02*
X4128471Y-16544693D01*
X4157043Y-16558978D01*
X4171328Y-16573264D01*
X4185614Y-16601835D01*
X4199900Y-16658978D01*
X4199900Y-16730407D01*
X4185614Y-16787550D01*
X4171328Y-16816121D01*
X4157043Y-16830407D01*
X4128471Y-16844693D01*
X4099900Y-16844693D01*
X4071328Y-16830407D01*
X4057043Y-16816121D01*
X4042757Y-16787550D01*
X4028471Y-16730407D01*
X4028471Y-16658978D01*
X4042757Y-16601835D01*
X4057043Y-16573264D01*
X4071328Y-16558978D01*
X4099900Y-16544693D01*
X4385614Y-16544693D02*
X4414186Y-16544693D01*
X4442757Y-16558978D01*
X4457043Y-16573264D01*
X4471329Y-16601835D01*
X4485614Y-16658978D01*
X4485614Y-16730407D01*
X4471329Y-16787550D01*
X4457043Y-16816121D01*
X4442757Y-16830407D01*
X4414186Y-16844693D01*
X4385614Y-16844693D01*
X4357043Y-16830407D01*
X4342757Y-16816121D01*
X4328471Y-16787550D01*
X4314186Y-16730407D01*
X4314186Y-16658978D01*
X4328471Y-16601835D01*
X4342757Y-16573264D01*
X4357043Y-16558978D01*
X4385614Y-16544693D01*
X4614186Y-16844693D02*
X4614186Y-16644693D01*
X4614186Y-16673264D02*
X4628471Y-16658978D01*
X4657043Y-16644693D01*
X4699900Y-16644693D01*
X4728471Y-16658978D01*
X4742757Y-16687550D01*
X4742757Y-16844693D01*
X4742757Y-16687550D02*
X4757043Y-16658978D01*
X4785614Y-16644693D01*
X4828471Y-16644693D01*
X4857043Y-16658978D01*
X4871329Y-16687550D01*
X4871329Y-16844693D01*
X5014186Y-16844693D02*
X5014186Y-16644693D01*
X5014186Y-16673264D02*
X5028471Y-16658978D01*
X5057043Y-16644693D01*
X5099900Y-16644693D01*
X5128471Y-16658978D01*
X5142757Y-16687550D01*
X5142757Y-16844693D01*
X5142757Y-16687550D02*
X5157043Y-16658978D01*
X5185614Y-16644693D01*
X5228471Y-16644693D01*
X5257043Y-16658978D01*
X5271329Y-16687550D01*
X5271329Y-16844693D01*
X5857043Y-16530407D02*
X5599900Y-16916121D01*
X6242757Y-16544693D02*
X6271328Y-16544693D01*
X6299900Y-16558978D01*
X6314186Y-16573264D01*
X6328471Y-16601835D01*
X6342757Y-16658978D01*
X6342757Y-16730407D01*
X6328471Y-16787550D01*
X6314186Y-16816121D01*
X6299900Y-16830407D01*
X6271328Y-16844693D01*
X6242757Y-16844693D01*
X6214186Y-16830407D01*
X6199900Y-16816121D01*
X6185614Y-16787550D01*
X6171328Y-16730407D01*
X6171328Y-16658978D01*
X6185614Y-16601835D01*
X6199900Y-16573264D01*
X6214186Y-16558978D01*
X6242757Y-16544693D01*
X6471328Y-16816121D02*
X6485614Y-16830407D01*
X6471328Y-16844693D01*
X6457043Y-16830407D01*
X6471328Y-16816121D01*
X6471328Y-16844693D01*
X6671328Y-16544693D02*
X6699900Y-16544693D01*
X6728471Y-16558978D01*
X6742757Y-16573264D01*
X6757043Y-16601835D01*
X6771328Y-16658978D01*
X6771328Y-16730407D01*
X6757043Y-16787550D01*
X6742757Y-16816121D01*
X6728471Y-16830407D01*
X6699900Y-16844693D01*
X6671328Y-16844693D01*
X6642757Y-16830407D01*
X6628471Y-16816121D01*
X6614186Y-16787550D01*
X6599900Y-16730407D01*
X6599900Y-16658978D01*
X6614186Y-16601835D01*
X6628471Y-16573264D01*
X6642757Y-16558978D01*
X6671328Y-16544693D01*
X7042757Y-16544693D02*
X6899900Y-16544693D01*
X6885614Y-16687550D01*
X6899900Y-16673264D01*
X6928471Y-16658978D01*
X6999900Y-16658978D01*
X7028471Y-16673264D01*
X7042757Y-16687550D01*
X7057043Y-16716121D01*
X7057043Y-16787550D01*
X7042757Y-16816121D01*
X7028471Y-16830407D01*
X6999900Y-16844693D01*
X6928471Y-16844693D01*
X6899900Y-16830407D01*
X6885614Y-16816121D01*
X7342757Y-16844693D02*
X7171328Y-16844693D01*
X7257043Y-16844693D02*
X7257043Y-16544693D01*
X7228471Y-16587550D01*
X7199900Y-16616121D01*
X7171328Y-16630407D01*
X7457043Y-16573264D02*
X7471328Y-16558978D01*
X7499900Y-16544693D01*
X7571328Y-16544693D01*
X7599900Y-16558978D01*
X7614186Y-16573264D01*
X7628471Y-16601835D01*
X7628471Y-16630407D01*
X7614186Y-16673264D01*
X7442757Y-16844693D01*
X7628471Y-16844693D01*
X7742757Y-16544693D02*
X7742757Y-16601835D01*
X7857043Y-16544693D02*
X7857043Y-16601835D01*
X8299900Y-16958978D02*
X8285614Y-16944693D01*
X8257043Y-16901836D01*
X8242757Y-16873264D01*
X8228471Y-16830407D01*
X8214186Y-16758978D01*
X8214186Y-16701835D01*
X8228471Y-16630407D01*
X8242757Y-16587550D01*
X8257043Y-16558978D01*
X8285614Y-16516121D01*
X8299900Y-16501835D01*
X8399900Y-16573264D02*
X8414186Y-16558978D01*
X8442757Y-16544693D01*
X8514186Y-16544693D01*
X8542757Y-16558978D01*
X8557043Y-16573264D01*
X8571329Y-16601835D01*
X8571329Y-16630407D01*
X8557043Y-16673264D01*
X8385614Y-16844693D01*
X8571329Y-16844693D01*
X8928471Y-16844693D02*
X8928471Y-16544693D01*
X9057043Y-16844693D02*
X9057043Y-16687550D01*
X9042757Y-16658978D01*
X9014186Y-16644693D01*
X8971329Y-16644693D01*
X8942757Y-16658978D01*
X8928471Y-16673264D01*
X9242757Y-16844693D02*
X9214186Y-16830407D01*
X9199900Y-16816121D01*
X9185614Y-16787550D01*
X9185614Y-16701835D01*
X9199900Y-16673264D01*
X9214186Y-16658978D01*
X9242757Y-16644693D01*
X9285614Y-16644693D01*
X9314186Y-16658978D01*
X9328471Y-16673264D01*
X9342757Y-16701835D01*
X9342757Y-16787550D01*
X9328471Y-16816121D01*
X9314186Y-16830407D01*
X9285614Y-16844693D01*
X9242757Y-16844693D01*
X9514186Y-16844693D02*
X9485614Y-16830407D01*
X9471329Y-16801836D01*
X9471329Y-16544693D01*
X9742757Y-16830407D02*
X9714186Y-16844693D01*
X9657043Y-16844693D01*
X9628471Y-16830407D01*
X9614186Y-16801836D01*
X9614186Y-16687550D01*
X9628471Y-16658978D01*
X9657043Y-16644693D01*
X9714186Y-16644693D01*
X9742757Y-16658978D01*
X9757043Y-16687550D01*
X9757043Y-16716121D01*
X9614186Y-16744693D01*
X9871329Y-16830407D02*
X9899900Y-16844693D01*
X9957043Y-16844693D01*
X9985614Y-16830407D01*
X9999900Y-16801836D01*
X9999900Y-16787550D01*
X9985614Y-16758978D01*
X9957043Y-16744693D01*
X9914186Y-16744693D01*
X9885614Y-16730407D01*
X9871329Y-16701835D01*
X9871329Y-16687550D01*
X9885614Y-16658978D01*
X9914186Y-16644693D01*
X9957043Y-16644693D01*
X9985614Y-16658978D01*
X10099900Y-16958978D02*
X10114186Y-16944693D01*
X10142757Y-16901836D01*
X10157043Y-16873264D01*
X10171329Y-16830407D01*
X10185614Y-16758978D01*
X10185614Y-16701835D01*
X10171329Y-16630407D01*
X10157043Y-16587550D01*
X10142757Y-16558978D01*
X10114186Y-16516121D01*
X10099900Y-16501835D01*
X2622043Y-16894978D02*
X3042043Y-17314978D01*
X3042043Y-16894978D02*
X2622043Y-17314978D01*
X2832043Y-16894978D02*
X2832043Y-17314978D01*
X2622043Y-17104978D02*
X3042043Y-17104978D01*
X3457043Y-17040693D02*
X3457043Y-17240693D01*
X3385614Y-16926407D02*
X3314186Y-17140693D01*
X3499900Y-17140693D01*
X3614186Y-17212121D02*
X3628471Y-17226407D01*
X3614186Y-17240693D01*
X3599900Y-17226407D01*
X3614186Y-17212121D01*
X3614186Y-17240693D01*
X3742757Y-16969264D02*
X3757043Y-16954978D01*
X3785614Y-16940693D01*
X3857043Y-16940693D01*
X3885614Y-16954978D01*
X3899900Y-16969264D01*
X3914186Y-16997836D01*
X3914186Y-17026407D01*
X3899900Y-17069264D01*
X3728471Y-17240693D01*
X3914186Y-17240693D01*
X4099900Y-16940693D02*
X4128471Y-16940693D01*
X4157043Y-16954978D01*
X4171328Y-16969264D01*
X4185614Y-16997836D01*
X4199900Y-17054978D01*
X4199900Y-17126407D01*
X4185614Y-17183550D01*
X4171328Y-17212121D01*
X4157043Y-17226407D01*
X4128471Y-17240693D01*
X4099900Y-17240693D01*
X4071328Y-17226407D01*
X4057043Y-17212121D01*
X4042757Y-17183550D01*
X4028471Y-17126407D01*
X4028471Y-17054978D01*
X4042757Y-16997836D01*
X4057043Y-16969264D01*
X4071328Y-16954978D01*
X4099900Y-16940693D01*
X4385614Y-16940693D02*
X4414186Y-16940693D01*
X4442757Y-16954978D01*
X4457043Y-16969264D01*
X4471329Y-16997836D01*
X4485614Y-17054978D01*
X4485614Y-17126407D01*
X4471329Y-17183550D01*
X4457043Y-17212121D01*
X4442757Y-17226407D01*
X4414186Y-17240693D01*
X4385614Y-17240693D01*
X4357043Y-17226407D01*
X4342757Y-17212121D01*
X4328471Y-17183550D01*
X4314186Y-17126407D01*
X4314186Y-17054978D01*
X4328471Y-16997836D01*
X4342757Y-16969264D01*
X4357043Y-16954978D01*
X4385614Y-16940693D01*
X4614186Y-17240693D02*
X4614186Y-17040693D01*
X4614186Y-17069264D02*
X4628471Y-17054978D01*
X4657043Y-17040693D01*
X4699900Y-17040693D01*
X4728471Y-17054978D01*
X4742757Y-17083550D01*
X4742757Y-17240693D01*
X4742757Y-17083550D02*
X4757043Y-17054978D01*
X4785614Y-17040693D01*
X4828471Y-17040693D01*
X4857043Y-17054978D01*
X4871329Y-17083550D01*
X4871329Y-17240693D01*
X5014186Y-17240693D02*
X5014186Y-17040693D01*
X5014186Y-17069264D02*
X5028471Y-17054978D01*
X5057043Y-17040693D01*
X5099900Y-17040693D01*
X5128471Y-17054978D01*
X5142757Y-17083550D01*
X5142757Y-17240693D01*
X5142757Y-17083550D02*
X5157043Y-17054978D01*
X5185614Y-17040693D01*
X5228471Y-17040693D01*
X5257043Y-17054978D01*
X5271329Y-17083550D01*
X5271329Y-17240693D01*
X5857043Y-16926407D02*
X5599900Y-17312121D01*
X6242757Y-16940693D02*
X6271328Y-16940693D01*
X6299900Y-16954978D01*
X6314186Y-16969264D01*
X6328471Y-16997836D01*
X6342757Y-17054978D01*
X6342757Y-17126407D01*
X6328471Y-17183550D01*
X6314186Y-17212121D01*
X6299900Y-17226407D01*
X6271328Y-17240693D01*
X6242757Y-17240693D01*
X6214186Y-17226407D01*
X6199900Y-17212121D01*
X6185614Y-17183550D01*
X6171328Y-17126407D01*
X6171328Y-17054978D01*
X6185614Y-16997836D01*
X6199900Y-16969264D01*
X6214186Y-16954978D01*
X6242757Y-16940693D01*
X6471328Y-17212121D02*
X6485614Y-17226407D01*
X6471328Y-17240693D01*
X6457043Y-17226407D01*
X6471328Y-17212121D01*
X6471328Y-17240693D01*
X6771328Y-17240693D02*
X6599900Y-17240693D01*
X6685614Y-17240693D02*
X6685614Y-16940693D01*
X6657043Y-16983550D01*
X6628471Y-17012121D01*
X6599900Y-17026407D01*
X7028471Y-16940693D02*
X6971328Y-16940693D01*
X6942757Y-16954978D01*
X6928471Y-16969264D01*
X6899900Y-17012121D01*
X6885614Y-17069264D01*
X6885614Y-17183550D01*
X6899900Y-17212121D01*
X6914186Y-17226407D01*
X6942757Y-17240693D01*
X6999900Y-17240693D01*
X7028471Y-17226407D01*
X7042757Y-17212121D01*
X7057043Y-17183550D01*
X7057043Y-17112121D01*
X7042757Y-17083550D01*
X7028471Y-17069264D01*
X6999900Y-17054978D01*
X6942757Y-17054978D01*
X6914186Y-17069264D01*
X6899900Y-17083550D01*
X6885614Y-17112121D01*
X7328471Y-16940693D02*
X7185614Y-16940693D01*
X7171328Y-17083550D01*
X7185614Y-17069264D01*
X7214186Y-17054978D01*
X7285614Y-17054978D01*
X7314186Y-17069264D01*
X7328471Y-17083550D01*
X7342757Y-17112121D01*
X7342757Y-17183550D01*
X7328471Y-17212121D01*
X7314186Y-17226407D01*
X7285614Y-17240693D01*
X7214186Y-17240693D01*
X7185614Y-17226407D01*
X7171328Y-17212121D01*
X7599900Y-17040693D02*
X7599900Y-17240693D01*
X7528471Y-16926407D02*
X7457043Y-17140693D01*
X7642757Y-17140693D01*
X7742757Y-16940693D02*
X7742757Y-16997836D01*
X7857043Y-16940693D02*
X7857043Y-16997836D01*
X8299900Y-17354978D02*
X8285614Y-17340693D01*
X8257043Y-17297836D01*
X8242757Y-17269264D01*
X8228471Y-17226407D01*
X8214186Y-17154978D01*
X8214186Y-17097836D01*
X8228471Y-17026407D01*
X8242757Y-16983550D01*
X8257043Y-16954978D01*
X8285614Y-16912121D01*
X8299900Y-16897836D01*
X8428471Y-17240693D02*
X8485614Y-17240693D01*
X8514186Y-17226407D01*
X8528471Y-17212121D01*
X8557043Y-17169264D01*
X8571329Y-17112121D01*
X8571329Y-16997836D01*
X8557043Y-16969264D01*
X8542757Y-16954978D01*
X8514186Y-16940693D01*
X8457043Y-16940693D01*
X8428471Y-16954978D01*
X8414186Y-16969264D01*
X8399900Y-16997836D01*
X8399900Y-17069264D01*
X8414186Y-17097836D01*
X8428471Y-17112121D01*
X8457043Y-17126407D01*
X8514186Y-17126407D01*
X8542757Y-17112121D01*
X8557043Y-17097836D01*
X8571329Y-17069264D01*
X8928471Y-17240693D02*
X8928471Y-16940693D01*
X9057043Y-17240693D02*
X9057043Y-17083550D01*
X9042757Y-17054978D01*
X9014186Y-17040693D01*
X8971329Y-17040693D01*
X8942757Y-17054978D01*
X8928471Y-17069264D01*
X9242757Y-17240693D02*
X9214186Y-17226407D01*
X9199900Y-17212121D01*
X9185614Y-17183550D01*
X9185614Y-17097836D01*
X9199900Y-17069264D01*
X9214186Y-17054978D01*
X9242757Y-17040693D01*
X9285614Y-17040693D01*
X9314186Y-17054978D01*
X9328471Y-17069264D01*
X9342757Y-17097836D01*
X9342757Y-17183550D01*
X9328471Y-17212121D01*
X9314186Y-17226407D01*
X9285614Y-17240693D01*
X9242757Y-17240693D01*
X9514186Y-17240693D02*
X9485614Y-17226407D01*
X9471329Y-17197836D01*
X9471329Y-16940693D01*
X9742757Y-17226407D02*
X9714186Y-17240693D01*
X9657043Y-17240693D01*
X9628471Y-17226407D01*
X9614186Y-17197836D01*
X9614186Y-17083550D01*
X9628471Y-17054978D01*
X9657043Y-17040693D01*
X9714186Y-17040693D01*
X9742757Y-17054978D01*
X9757043Y-17083550D01*
X9757043Y-17112121D01*
X9614186Y-17140693D01*
X9871329Y-17226407D02*
X9899900Y-17240693D01*
X9957043Y-17240693D01*
X9985614Y-17226407D01*
X9999900Y-17197836D01*
X9999900Y-17183550D01*
X9985614Y-17154978D01*
X9957043Y-17140693D01*
X9914186Y-17140693D01*
X9885614Y-17126407D01*
X9871329Y-17097836D01*
X9871329Y-17083550D01*
X9885614Y-17054978D01*
X9914186Y-17040693D01*
X9957043Y-17040693D01*
X9985614Y-17054978D01*
X10099900Y-17354978D02*
X10114186Y-17340693D01*
X10142757Y-17297836D01*
X10157043Y-17269264D01*
X10171329Y-17226407D01*
X10185614Y-17154978D01*
X10185614Y-17097836D01*
X10171329Y-17026407D01*
X10157043Y-16983550D01*
X10142757Y-16954978D01*
X10114186Y-16912121D01*
X10099900Y-16897836D01*
M02*
