G04 #@! TF.GenerationSoftware,KiCad,Pcbnew,(5.1.10-1-10_14)*
G04 #@! TF.CreationDate,2021-11-21T17:36:23-05:00*
G04 #@! TF.ProjectId,reviung34,72657669-756e-4673-9334-2e6b69636164,1*
G04 #@! TF.SameCoordinates,Original*
G04 #@! TF.FileFunction,Soldermask,Bot*
G04 #@! TF.FilePolarity,Negative*
%FSLAX46Y46*%
G04 Gerber Fmt 4.6, Leading zero omitted, Abs format (unit mm)*
G04 Created by KiCad (PCBNEW (5.1.10-1-10_14)) date 2021-11-21 17:36:23*
%MOMM*%
%LPD*%
G01*
G04 APERTURE LIST*
%ADD10C,0.150000*%
%ADD11C,1.700000*%
%ADD12C,2.000000*%
%ADD13C,3.400000*%
%ADD14C,4.000000*%
%ADD15C,2.100000*%
%ADD16C,1.900000*%
%ADD17C,1.524000*%
%ADD18O,2.500000X2.000000*%
%ADD19R,0.800000X0.900000*%
%ADD20R,1.500000X1.000000*%
%ADD21C,2.200000*%
%ADD22C,4.500000*%
G04 APERTURE END LIST*
D10*
G36*
X43278329Y-63030415D02*
G01*
X42490483Y-62891496D01*
X42646767Y-62005169D01*
X43434613Y-62144088D01*
X43278329Y-63030415D01*
G37*
G36*
X41995465Y-64835065D02*
G01*
X41207619Y-64696146D01*
X41363903Y-63809819D01*
X42151749Y-63948738D01*
X41995465Y-64835065D01*
G37*
G36*
X43866600Y-65164997D02*
G01*
X43078754Y-65026078D01*
X43235038Y-64139751D01*
X44022884Y-64278670D01*
X43866600Y-65164997D01*
G37*
D11*
X143370000Y-125460000D03*
X132370000Y-125460000D03*
D12*
X132870000Y-129260000D03*
X137870000Y-131360000D03*
D13*
X137870000Y-125460000D03*
G36*
G01*
X82639243Y-54878085D02*
X82639243Y-54878085D01*
G75*
G02*
X83797699Y-54066925I984808J-173648D01*
G01*
X84290103Y-54153749D01*
G75*
G02*
X85101263Y-55312205I-173648J-984808D01*
G01*
X85101263Y-55312205D01*
G75*
G02*
X83942807Y-56123365I-984808J173648D01*
G01*
X83450403Y-56036541D01*
G75*
G02*
X82639243Y-54878085I173648J984808D01*
G01*
G37*
D14*
X89570000Y-52140000D03*
D15*
X84153557Y-51184935D03*
X94986443Y-53095065D03*
G36*
G01*
X87314466Y-57733306D02*
X87314466Y-57733306D01*
G75*
G02*
X88472922Y-56922146I984808J-173648D01*
G01*
X88965326Y-57008970D01*
G75*
G02*
X89776486Y-58167426I-173648J-984808D01*
G01*
X89776486Y-58167426D01*
G75*
G02*
X88618030Y-58978586I-984808J173648D01*
G01*
X88125626Y-58891762D01*
G75*
G02*
X87314466Y-57733306I173648J984808D01*
G01*
G37*
G36*
G01*
X91722534Y-47361183D02*
X91722534Y-47361183D01*
G75*
G02*
X92880990Y-46550023I984808J-173648D01*
G01*
X93373394Y-46636847D01*
G75*
G02*
X94184554Y-47795303I-173648J-984808D01*
G01*
X94184554Y-47795303D01*
G75*
G02*
X93026098Y-48606463I-984808J173648D01*
G01*
X92533694Y-48519639D01*
G75*
G02*
X91722534Y-47361183I173648J984808D01*
G01*
G37*
G36*
G01*
X85027939Y-48759929D02*
X85027939Y-48759929D01*
G75*
G02*
X86186395Y-47948769I984808J-173648D01*
G01*
X86678799Y-48035593D01*
G75*
G02*
X87489959Y-49194049I-173648J-984808D01*
G01*
X87489959Y-49194049D01*
G75*
G02*
X86331503Y-50005209I-984808J173648D01*
G01*
X85839099Y-49918385D01*
G75*
G02*
X85027939Y-48759929I173648J984808D01*
G01*
G37*
D16*
X94572823Y-53022133D03*
X84567177Y-51257867D03*
D17*
X124212234Y-47170930D03*
X126713646Y-47611996D03*
X129215057Y-48053063D03*
X131716469Y-48494129D03*
X134217881Y-48935195D03*
X136719292Y-49376262D03*
X139220704Y-49817328D03*
X141722116Y-50258395D03*
X144223527Y-50699461D03*
X146724939Y-51140527D03*
X149226351Y-51581594D03*
X151727762Y-52022660D03*
X154370688Y-37033886D03*
X151869276Y-36592820D03*
X149367864Y-36151753D03*
X146866453Y-35710687D03*
X144365041Y-35269621D03*
X141863629Y-34828554D03*
X139362218Y-34387488D03*
X136860806Y-33946421D03*
X134359394Y-33505355D03*
X131857982Y-33064289D03*
X129356571Y-32623222D03*
X126855159Y-32182156D03*
G36*
G01*
X180683698Y-57063416D02*
X180683698Y-57063416D01*
G75*
G02*
X181494858Y-55904960I984808J173648D01*
G01*
X181987262Y-55818136D01*
G75*
G02*
X183145718Y-56629296I173648J-984808D01*
G01*
X183145718Y-56629296D01*
G75*
G02*
X182334558Y-57787752I-984808J-173648D01*
G01*
X181842154Y-57874576D01*
G75*
G02*
X180683698Y-57063416I-173648J984808D01*
G01*
G37*
D14*
X186260000Y-52120000D03*
D15*
X180843557Y-53075065D03*
X191676443Y-51164935D03*
G36*
G01*
X186053514Y-58147426D02*
X186053514Y-58147426D01*
G75*
G02*
X186864674Y-56988970I984808J173648D01*
G01*
X187357078Y-56902146D01*
G75*
G02*
X188515534Y-57713306I173648J-984808D01*
G01*
X188515534Y-57713306D01*
G75*
G02*
X187704374Y-58871762I-984808J-173648D01*
G01*
X187211970Y-58958586D01*
G75*
G02*
X186053514Y-58147426I-173648J984808D01*
G01*
G37*
G36*
G01*
X186648269Y-46893170D02*
X186648269Y-46893170D01*
G75*
G02*
X187459429Y-45734714I984808J173648D01*
G01*
X187951833Y-45647890D01*
G75*
G02*
X189110289Y-46459050I173648J-984808D01*
G01*
X189110289Y-46459050D01*
G75*
G02*
X188299129Y-47617506I-984808J-173648D01*
G01*
X187806725Y-47704330D01*
G75*
G02*
X186648269Y-46893170I-173648J984808D01*
G01*
G37*
G36*
G01*
X180835806Y-50497248D02*
X180835806Y-50497248D01*
G75*
G02*
X181646966Y-49338792I984808J173648D01*
G01*
X182139370Y-49251968D01*
G75*
G02*
X183297826Y-50063128I173648J-984808D01*
G01*
X183297826Y-50063128D01*
G75*
G02*
X182486666Y-51221584I-984808J-173648D01*
G01*
X181994262Y-51308408D01*
G75*
G02*
X180835806Y-50497248I-173648J984808D01*
G01*
G37*
D16*
X191262823Y-51237867D03*
X181257177Y-53002133D03*
G36*
G01*
X163965766Y-128070612D02*
X163965766Y-128070612D01*
G75*
G02*
X164672873Y-126845867I965926J258819D01*
G01*
X165155835Y-126716457D01*
G75*
G02*
X166380580Y-127423564I258819J-965926D01*
G01*
X166380580Y-127423564D01*
G75*
G02*
X165673473Y-128648309I-965926J-258819D01*
G01*
X165190511Y-128777719D01*
G75*
G02*
X163965766Y-128070612I-258819J965926D01*
G01*
G37*
D14*
X169090000Y-122660000D03*
D15*
X163777408Y-124083505D03*
X174402592Y-121236495D03*
G36*
G01*
X169409625Y-128682486D02*
X169409625Y-128682486D01*
G75*
G02*
X170116732Y-127457741I965926J258819D01*
G01*
X170599694Y-127328331D01*
G75*
G02*
X171824439Y-128035438I258819J-965926D01*
G01*
X171824439Y-128035438D01*
G75*
G02*
X171117332Y-129260183I-965926J-258819D01*
G01*
X170634370Y-129389593D01*
G75*
G02*
X169409625Y-128682486I-258819J965926D01*
G01*
G37*
G36*
G01*
X169021244Y-117419220D02*
X169021244Y-117419220D01*
G75*
G02*
X169728351Y-116194475I965926J258819D01*
G01*
X170211313Y-116065065D01*
G75*
G02*
X171436058Y-116772172I258819J-965926D01*
G01*
X171436058Y-116772172D01*
G75*
G02*
X170728951Y-117996917I-965926J-258819D01*
G01*
X170245989Y-118126327D01*
G75*
G02*
X169021244Y-117419220I-258819J965926D01*
G01*
G37*
G36*
G01*
X163545015Y-121516173D02*
X163545015Y-121516173D01*
G75*
G02*
X164252122Y-120291428I965926J258819D01*
G01*
X164735084Y-120162018D01*
G75*
G02*
X165959829Y-120869125I258819J-965926D01*
G01*
X165959829Y-120869125D01*
G75*
G02*
X165252722Y-122093870I-965926J-258819D01*
G01*
X164769760Y-122223280D01*
G75*
G02*
X163545015Y-121516173I-258819J965926D01*
G01*
G37*
D16*
X173996903Y-121345199D03*
X164183097Y-123974801D03*
D18*
X142330000Y-129400000D03*
D14*
X147430000Y-125500000D03*
D15*
X141930000Y-125500000D03*
X152930000Y-125500000D03*
D18*
X147430000Y-131400000D03*
X149970000Y-120420000D03*
X143620000Y-122960000D03*
D16*
X152510000Y-125500000D03*
X142350000Y-125500000D03*
D18*
X123290000Y-129400000D03*
D14*
X128390000Y-125500000D03*
D15*
X122890000Y-125500000D03*
X133890000Y-125500000D03*
D18*
X128390000Y-131400000D03*
X130930000Y-120420000D03*
X124580000Y-122960000D03*
D16*
X133470000Y-125500000D03*
X123310000Y-125500000D03*
D10*
G36*
X235919304Y-80742817D02*
G01*
X235780385Y-79954971D01*
X236666712Y-79798687D01*
X236805631Y-80586533D01*
X235919304Y-80742817D01*
G37*
G36*
X233784722Y-80154546D02*
G01*
X233645803Y-79366700D01*
X234532130Y-79210416D01*
X234671049Y-79998262D01*
X233784722Y-80154546D01*
G37*
G36*
X234114654Y-82025681D02*
G01*
X233975735Y-81237835D01*
X234862062Y-81081551D01*
X235000981Y-81869397D01*
X234114654Y-82025681D01*
G37*
G36*
X233430104Y-60994317D02*
G01*
X233291185Y-60206471D01*
X234177512Y-60050187D01*
X234316431Y-60838033D01*
X233430104Y-60994317D01*
G37*
G36*
X231295522Y-60406046D02*
G01*
X231156603Y-59618200D01*
X232042930Y-59461916D01*
X232181849Y-60249762D01*
X231295522Y-60406046D01*
G37*
G36*
X231625454Y-62277181D02*
G01*
X231486535Y-61489335D01*
X232372862Y-61333051D01*
X232511781Y-62120897D01*
X231625454Y-62277181D01*
G37*
G36*
X199767217Y-80417496D02*
G01*
X198979371Y-80556415D01*
X198823087Y-79670088D01*
X199610933Y-79531169D01*
X199767217Y-80417496D01*
G37*
G36*
X199178946Y-82552078D02*
G01*
X198391100Y-82690997D01*
X198234816Y-81804670D01*
X199022662Y-81665751D01*
X199178946Y-82552078D01*
G37*
G36*
X201050081Y-82222146D02*
G01*
X200262235Y-82361065D01*
X200105951Y-81474738D01*
X200893797Y-81335819D01*
X201050081Y-82222146D01*
G37*
G36*
X164512017Y-90831496D02*
G01*
X163724171Y-90970415D01*
X163567887Y-90084088D01*
X164355733Y-89945169D01*
X164512017Y-90831496D01*
G37*
G36*
X163923746Y-92966078D02*
G01*
X163135900Y-93104997D01*
X162979616Y-92218670D01*
X163767462Y-92079751D01*
X163923746Y-92966078D01*
G37*
G36*
X165794881Y-92636146D02*
G01*
X165007035Y-92775065D01*
X164850751Y-91888738D01*
X165638597Y-91749819D01*
X165794881Y-92636146D01*
G37*
G36*
X198636983Y-77956704D02*
G01*
X199424829Y-77817785D01*
X199581113Y-78704112D01*
X198793267Y-78843031D01*
X198636983Y-77956704D01*
G37*
G36*
X199225254Y-75822122D02*
G01*
X200013100Y-75683203D01*
X200169384Y-76569530D01*
X199381538Y-76708449D01*
X199225254Y-75822122D01*
G37*
G36*
X197354119Y-76152054D02*
G01*
X198141965Y-76013135D01*
X198298249Y-76899462D01*
X197510403Y-77038381D01*
X197354119Y-76152054D01*
G37*
G36*
X163343683Y-88358004D02*
G01*
X164131529Y-88219085D01*
X164287813Y-89105412D01*
X163499967Y-89244331D01*
X163343683Y-88358004D01*
G37*
G36*
X163931954Y-86223422D02*
G01*
X164719800Y-86084503D01*
X164876084Y-86970830D01*
X164088238Y-87109749D01*
X163931954Y-86223422D01*
G37*
G36*
X162060819Y-86553354D02*
G01*
X162848665Y-86414435D01*
X163004949Y-87300762D01*
X162217103Y-87439681D01*
X162060819Y-86553354D01*
G37*
G36*
X195893783Y-58652704D02*
G01*
X196681629Y-58513785D01*
X196837913Y-59400112D01*
X196050067Y-59539031D01*
X195893783Y-58652704D01*
G37*
G36*
X196482054Y-56518122D02*
G01*
X197269900Y-56379203D01*
X197426184Y-57265530D01*
X196638338Y-57404449D01*
X196482054Y-56518122D01*
G37*
G36*
X194610919Y-56848054D02*
G01*
X195398765Y-56709135D01*
X195555049Y-57595462D01*
X194767203Y-57734381D01*
X194610919Y-56848054D01*
G37*
G36*
X160752883Y-74946804D02*
G01*
X161540729Y-74807885D01*
X161697013Y-75694212D01*
X160909167Y-75833131D01*
X160752883Y-74946804D01*
G37*
G36*
X161341154Y-72812222D02*
G01*
X162129000Y-72673303D01*
X162285284Y-73559630D01*
X161497438Y-73698549D01*
X161341154Y-72812222D01*
G37*
G36*
X159470019Y-73142154D02*
G01*
X160257865Y-73003235D01*
X160414149Y-73889562D01*
X159626303Y-74028481D01*
X159470019Y-73142154D01*
G37*
G36*
X111807529Y-94120015D02*
G01*
X111019683Y-93981096D01*
X111175967Y-93094769D01*
X111963813Y-93233688D01*
X111807529Y-94120015D01*
G37*
G36*
X110524665Y-95924665D02*
G01*
X109736819Y-95785746D01*
X109893103Y-94899419D01*
X110680949Y-95038338D01*
X110524665Y-95924665D01*
G37*
G36*
X112395800Y-96254597D02*
G01*
X111607954Y-96115678D01*
X111764238Y-95229351D01*
X112552084Y-95368270D01*
X112395800Y-96254597D01*
G37*
G36*
X111146171Y-90720985D02*
G01*
X111934017Y-90859904D01*
X111777733Y-91746231D01*
X110989887Y-91607312D01*
X111146171Y-90720985D01*
G37*
G36*
X112429035Y-88916335D02*
G01*
X113216881Y-89055254D01*
X113060597Y-89941581D01*
X112272751Y-89802662D01*
X112429035Y-88916335D01*
G37*
G36*
X110557900Y-88586403D02*
G01*
X111345746Y-88725322D01*
X111189462Y-89611649D01*
X110401616Y-89472730D01*
X110557900Y-88586403D01*
G37*
G36*
X113990971Y-74744385D02*
G01*
X114778817Y-74883304D01*
X114622533Y-75769631D01*
X113834687Y-75630712D01*
X113990971Y-74744385D01*
G37*
G36*
X115273835Y-72939735D02*
G01*
X116061681Y-73078654D01*
X115905397Y-73964981D01*
X115117551Y-73826062D01*
X115273835Y-72939735D01*
G37*
G36*
X113402700Y-72609803D02*
G01*
X114190546Y-72748722D01*
X114034262Y-73635049D01*
X113246416Y-73496130D01*
X113402700Y-72609803D01*
G37*
G36*
G01*
X99586977Y-124793610D02*
X99586977Y-124793610D01*
G75*
G02*
X100811722Y-124086503I965926J-258819D01*
G01*
X101294684Y-124215913D01*
G75*
G02*
X102001791Y-125440658I-258819J-965926D01*
G01*
X102001791Y-125440658D01*
G75*
G02*
X100777046Y-126147765I-965926J258819D01*
G01*
X100294084Y-126018355D01*
G75*
G02*
X99586977Y-124793610I258819J965926D01*
G01*
G37*
D14*
X106730000Y-122670000D03*
D15*
X101417408Y-121246495D03*
X112042592Y-124093505D03*
G36*
G01*
X103995561Y-128045438D02*
X103995561Y-128045438D01*
G75*
G02*
X105220306Y-127338331I965926J-258819D01*
G01*
X105703268Y-127467741D01*
G75*
G02*
X106410375Y-128692486I-258819J-965926D01*
G01*
X106410375Y-128692486D01*
G75*
G02*
X105185630Y-129399593I-965926J258819D01*
G01*
X104702668Y-129270183D01*
G75*
G02*
X103995561Y-128045438I258819J965926D01*
G01*
G37*
G36*
G01*
X109290845Y-118096973D02*
X109290845Y-118096973D01*
G75*
G02*
X110515590Y-117389866I965926J-258819D01*
G01*
X110998552Y-117519276D01*
G75*
G02*
X111705659Y-118744021I-258819J-965926D01*
G01*
X111705659Y-118744021D01*
G75*
G02*
X110480914Y-119451128I-965926J258819D01*
G01*
X109997952Y-119321718D01*
G75*
G02*
X109290845Y-118096973I258819J965926D01*
G01*
G37*
G36*
G01*
X102499816Y-118906924D02*
X102499816Y-118906924D01*
G75*
G02*
X103724561Y-118199817I965926J-258819D01*
G01*
X104207523Y-118329227D01*
G75*
G02*
X104914630Y-119553972I-258819J-965926D01*
G01*
X104914630Y-119553972D01*
G75*
G02*
X103689885Y-120261079I-965926J258819D01*
G01*
X103206923Y-120131669D01*
G75*
G02*
X102499816Y-118906924I258819J965926D01*
G01*
G37*
D16*
X111636903Y-123984801D03*
X101823097Y-121355199D03*
D19*
X158625600Y-131500000D03*
X159575600Y-129500000D03*
X157675600Y-129500000D03*
X117100000Y-131500000D03*
X118050000Y-129500000D03*
X116150000Y-129500000D03*
D10*
G36*
X75256929Y-81915315D02*
G01*
X74469083Y-81776396D01*
X74625367Y-80890069D01*
X75413213Y-81028988D01*
X75256929Y-81915315D01*
G37*
G36*
X73974065Y-83719965D02*
G01*
X73186219Y-83581046D01*
X73342503Y-82694719D01*
X74130349Y-82833638D01*
X73974065Y-83719965D01*
G37*
G36*
X75845200Y-84049897D02*
G01*
X75057354Y-83910978D01*
X75213638Y-83024651D01*
X76001484Y-83163570D01*
X75845200Y-84049897D01*
G37*
G36*
X41119329Y-80023015D02*
G01*
X40331483Y-79884096D01*
X40487767Y-78997769D01*
X41275613Y-79136688D01*
X41119329Y-80023015D01*
G37*
G36*
X39836465Y-81827665D02*
G01*
X39048619Y-81688746D01*
X39204903Y-80802419D01*
X39992749Y-80941338D01*
X39836465Y-81827665D01*
G37*
G36*
X41707600Y-82157597D02*
G01*
X40919754Y-82018678D01*
X41076038Y-81132351D01*
X41863884Y-81271270D01*
X41707600Y-82157597D01*
G37*
G36*
X74938471Y-78922685D02*
G01*
X75726317Y-79061604D01*
X75570033Y-79947931D01*
X74782187Y-79809012D01*
X74938471Y-78922685D01*
G37*
G36*
X76221335Y-77118035D02*
G01*
X77009181Y-77256954D01*
X76852897Y-78143281D01*
X76065051Y-78004362D01*
X76221335Y-77118035D01*
G37*
G36*
X74350200Y-76788103D02*
G01*
X75138046Y-76927022D01*
X74981762Y-77813349D01*
X74193916Y-77674430D01*
X74350200Y-76788103D01*
G37*
G36*
X78291271Y-57370785D02*
G01*
X79079117Y-57509704D01*
X78922833Y-58396031D01*
X78134987Y-58257112D01*
X78291271Y-57370785D01*
G37*
G36*
X79574135Y-55566135D02*
G01*
X80361981Y-55705054D01*
X80205697Y-56591381D01*
X79417851Y-56452462D01*
X79574135Y-55566135D01*
G37*
G36*
X77703000Y-55236203D02*
G01*
X78490846Y-55375122D01*
X78334562Y-56261449D01*
X77546716Y-56122530D01*
X77703000Y-55236203D01*
G37*
G36*
X43175771Y-59567885D02*
G01*
X43963617Y-59706804D01*
X43807333Y-60593131D01*
X43019487Y-60454212D01*
X43175771Y-59567885D01*
G37*
G36*
X44458635Y-57763235D02*
G01*
X45246481Y-57902154D01*
X45090197Y-58788481D01*
X44302351Y-58649562D01*
X44458635Y-57763235D01*
G37*
G36*
X42587500Y-57433303D02*
G01*
X43375346Y-57572222D01*
X43219062Y-58458549D01*
X42431216Y-58319630D01*
X42587500Y-57433303D01*
G37*
G36*
G01*
X226013698Y-94853416D02*
X226013698Y-94853416D01*
G75*
G02*
X226824858Y-93694960I984808J173648D01*
G01*
X227317262Y-93608136D01*
G75*
G02*
X228475718Y-94419296I173648J-984808D01*
G01*
X228475718Y-94419296D01*
G75*
G02*
X227664558Y-95577752I-984808J-173648D01*
G01*
X227172154Y-95664576D01*
G75*
G02*
X226013698Y-94853416I-173648J984808D01*
G01*
G37*
D14*
X231590000Y-89910000D03*
D15*
X226173557Y-90865065D03*
X237006443Y-88954935D03*
G36*
G01*
X231383514Y-95937426D02*
X231383514Y-95937426D01*
G75*
G02*
X232194674Y-94778970I984808J173648D01*
G01*
X232687078Y-94692146D01*
G75*
G02*
X233845534Y-95503306I173648J-984808D01*
G01*
X233845534Y-95503306D01*
G75*
G02*
X233034374Y-96661762I-984808J-173648D01*
G01*
X232541970Y-96748586D01*
G75*
G02*
X231383514Y-95937426I-173648J984808D01*
G01*
G37*
G36*
G01*
X231978269Y-84683170D02*
X231978269Y-84683170D01*
G75*
G02*
X232789429Y-83524714I984808J173648D01*
G01*
X233281833Y-83437890D01*
G75*
G02*
X234440289Y-84249050I173648J-984808D01*
G01*
X234440289Y-84249050D01*
G75*
G02*
X233629129Y-85407506I-984808J-173648D01*
G01*
X233136725Y-85494330D01*
G75*
G02*
X231978269Y-84683170I-173648J984808D01*
G01*
G37*
G36*
G01*
X226165806Y-88287248D02*
X226165806Y-88287248D01*
G75*
G02*
X226976966Y-87128792I984808J173648D01*
G01*
X227469370Y-87041968D01*
G75*
G02*
X228627826Y-87853128I173648J-984808D01*
G01*
X228627826Y-87853128D01*
G75*
G02*
X227816666Y-89011584I-984808J-173648D01*
G01*
X227324262Y-89098408D01*
G75*
G02*
X226165806Y-88287248I-173648J984808D01*
G01*
G37*
D16*
X236592823Y-89027867D03*
X226587177Y-90792133D03*
G36*
G01*
X222743698Y-76073416D02*
X222743698Y-76073416D01*
G75*
G02*
X223554858Y-74914960I984808J173648D01*
G01*
X224047262Y-74828136D01*
G75*
G02*
X225205718Y-75639296I173648J-984808D01*
G01*
X225205718Y-75639296D01*
G75*
G02*
X224394558Y-76797752I-984808J-173648D01*
G01*
X223902154Y-76884576D01*
G75*
G02*
X222743698Y-76073416I-173648J984808D01*
G01*
G37*
D14*
X228320000Y-71130000D03*
D15*
X222903557Y-72085065D03*
X233736443Y-70174935D03*
G36*
G01*
X228113514Y-77157426D02*
X228113514Y-77157426D01*
G75*
G02*
X228924674Y-75998970I984808J173648D01*
G01*
X229417078Y-75912146D01*
G75*
G02*
X230575534Y-76723306I173648J-984808D01*
G01*
X230575534Y-76723306D01*
G75*
G02*
X229764374Y-77881762I-984808J-173648D01*
G01*
X229271970Y-77968586D01*
G75*
G02*
X228113514Y-77157426I-173648J984808D01*
G01*
G37*
G36*
G01*
X228708269Y-65903170D02*
X228708269Y-65903170D01*
G75*
G02*
X229519429Y-64744714I984808J173648D01*
G01*
X230011833Y-64657890D01*
G75*
G02*
X231170289Y-65469050I173648J-984808D01*
G01*
X231170289Y-65469050D01*
G75*
G02*
X230359129Y-66627506I-984808J-173648D01*
G01*
X229866725Y-66714330D01*
G75*
G02*
X228708269Y-65903170I-173648J984808D01*
G01*
G37*
G36*
G01*
X222895806Y-69507248D02*
X222895806Y-69507248D01*
G75*
G02*
X223706966Y-68348792I984808J173648D01*
G01*
X224199370Y-68261968D01*
G75*
G02*
X225357826Y-69073128I173648J-984808D01*
G01*
X225357826Y-69073128D01*
G75*
G02*
X224546666Y-70231584I-984808J-173648D01*
G01*
X224054262Y-70318408D01*
G75*
G02*
X222895806Y-69507248I-173648J984808D01*
G01*
G37*
D16*
X233322823Y-70247867D03*
X223317177Y-72012133D03*
G36*
G01*
X219433698Y-57333416D02*
X219433698Y-57333416D01*
G75*
G02*
X220244858Y-56174960I984808J173648D01*
G01*
X220737262Y-56088136D01*
G75*
G02*
X221895718Y-56899296I173648J-984808D01*
G01*
X221895718Y-56899296D01*
G75*
G02*
X221084558Y-58057752I-984808J-173648D01*
G01*
X220592154Y-58144576D01*
G75*
G02*
X219433698Y-57333416I-173648J984808D01*
G01*
G37*
D14*
X225010000Y-52390000D03*
D15*
X219593557Y-53345065D03*
X230426443Y-51434935D03*
G36*
G01*
X224803514Y-58417426D02*
X224803514Y-58417426D01*
G75*
G02*
X225614674Y-57258970I984808J173648D01*
G01*
X226107078Y-57172146D01*
G75*
G02*
X227265534Y-57983306I173648J-984808D01*
G01*
X227265534Y-57983306D01*
G75*
G02*
X226454374Y-59141762I-984808J-173648D01*
G01*
X225961970Y-59228586D01*
G75*
G02*
X224803514Y-58417426I-173648J984808D01*
G01*
G37*
G36*
G01*
X225398269Y-47163170D02*
X225398269Y-47163170D01*
G75*
G02*
X226209429Y-46004714I984808J173648D01*
G01*
X226701833Y-45917890D01*
G75*
G02*
X227860289Y-46729050I173648J-984808D01*
G01*
X227860289Y-46729050D01*
G75*
G02*
X227049129Y-47887506I-984808J-173648D01*
G01*
X226556725Y-47974330D01*
G75*
G02*
X225398269Y-47163170I-173648J984808D01*
G01*
G37*
G36*
G01*
X219585806Y-50767248D02*
X219585806Y-50767248D01*
G75*
G02*
X220396966Y-49608792I984808J173648D01*
G01*
X220889370Y-49521968D01*
G75*
G02*
X222047826Y-50333128I173648J-984808D01*
G01*
X222047826Y-50333128D01*
G75*
G02*
X221236666Y-51491584I-984808J-173648D01*
G01*
X220744262Y-51578408D01*
G75*
G02*
X219585806Y-50767248I-173648J984808D01*
G01*
G37*
D16*
X230012823Y-51507867D03*
X220007177Y-53272133D03*
G36*
G01*
X206673698Y-94693416D02*
X206673698Y-94693416D01*
G75*
G02*
X207484858Y-93534960I984808J173648D01*
G01*
X207977262Y-93448136D01*
G75*
G02*
X209135718Y-94259296I173648J-984808D01*
G01*
X209135718Y-94259296D01*
G75*
G02*
X208324558Y-95417752I-984808J-173648D01*
G01*
X207832154Y-95504576D01*
G75*
G02*
X206673698Y-94693416I-173648J984808D01*
G01*
G37*
D14*
X212250000Y-89750000D03*
D15*
X206833557Y-90705065D03*
X217666443Y-88794935D03*
G36*
G01*
X212043514Y-95777426D02*
X212043514Y-95777426D01*
G75*
G02*
X212854674Y-94618970I984808J173648D01*
G01*
X213347078Y-94532146D01*
G75*
G02*
X214505534Y-95343306I173648J-984808D01*
G01*
X214505534Y-95343306D01*
G75*
G02*
X213694374Y-96501762I-984808J-173648D01*
G01*
X213201970Y-96588586D01*
G75*
G02*
X212043514Y-95777426I-173648J984808D01*
G01*
G37*
G36*
G01*
X212638269Y-84523170D02*
X212638269Y-84523170D01*
G75*
G02*
X213449429Y-83364714I984808J173648D01*
G01*
X213941833Y-83277890D01*
G75*
G02*
X215100289Y-84089050I173648J-984808D01*
G01*
X215100289Y-84089050D01*
G75*
G02*
X214289129Y-85247506I-984808J-173648D01*
G01*
X213796725Y-85334330D01*
G75*
G02*
X212638269Y-84523170I-173648J984808D01*
G01*
G37*
G36*
G01*
X206825806Y-88127248D02*
X206825806Y-88127248D01*
G75*
G02*
X207636966Y-86968792I984808J173648D01*
G01*
X208129370Y-86881968D01*
G75*
G02*
X209287826Y-87693128I173648J-984808D01*
G01*
X209287826Y-87693128D01*
G75*
G02*
X208476666Y-88851584I-984808J-173648D01*
G01*
X207984262Y-88938408D01*
G75*
G02*
X206825806Y-88127248I-173648J984808D01*
G01*
G37*
D16*
X217252823Y-88867867D03*
X207247177Y-90632133D03*
G36*
G01*
X187293698Y-94563416D02*
X187293698Y-94563416D01*
G75*
G02*
X188104858Y-93404960I984808J173648D01*
G01*
X188597262Y-93318136D01*
G75*
G02*
X189755718Y-94129296I173648J-984808D01*
G01*
X189755718Y-94129296D01*
G75*
G02*
X188944558Y-95287752I-984808J-173648D01*
G01*
X188452154Y-95374576D01*
G75*
G02*
X187293698Y-94563416I-173648J984808D01*
G01*
G37*
D14*
X192870000Y-89620000D03*
D15*
X187453557Y-90575065D03*
X198286443Y-88664935D03*
G36*
G01*
X192663514Y-95647426D02*
X192663514Y-95647426D01*
G75*
G02*
X193474674Y-94488970I984808J173648D01*
G01*
X193967078Y-94402146D01*
G75*
G02*
X195125534Y-95213306I173648J-984808D01*
G01*
X195125534Y-95213306D01*
G75*
G02*
X194314374Y-96371762I-984808J-173648D01*
G01*
X193821970Y-96458586D01*
G75*
G02*
X192663514Y-95647426I-173648J984808D01*
G01*
G37*
G36*
G01*
X193258269Y-84393170D02*
X193258269Y-84393170D01*
G75*
G02*
X194069429Y-83234714I984808J173648D01*
G01*
X194561833Y-83147890D01*
G75*
G02*
X195720289Y-83959050I173648J-984808D01*
G01*
X195720289Y-83959050D01*
G75*
G02*
X194909129Y-85117506I-984808J-173648D01*
G01*
X194416725Y-85204330D01*
G75*
G02*
X193258269Y-84393170I-173648J984808D01*
G01*
G37*
G36*
G01*
X187445806Y-87997248D02*
X187445806Y-87997248D01*
G75*
G02*
X188256966Y-86838792I984808J173648D01*
G01*
X188749370Y-86751968D01*
G75*
G02*
X189907826Y-87563128I173648J-984808D01*
G01*
X189907826Y-87563128D01*
G75*
G02*
X189096666Y-88721584I-984808J-173648D01*
G01*
X188604262Y-88808408D01*
G75*
G02*
X187445806Y-87997248I-173648J984808D01*
G01*
G37*
D16*
X197872823Y-88737867D03*
X187867177Y-90502133D03*
G36*
G01*
X169123698Y-101323416D02*
X169123698Y-101323416D01*
G75*
G02*
X169934858Y-100164960I984808J173648D01*
G01*
X170427262Y-100078136D01*
G75*
G02*
X171585718Y-100889296I173648J-984808D01*
G01*
X171585718Y-100889296D01*
G75*
G02*
X170774558Y-102047752I-984808J-173648D01*
G01*
X170282154Y-102134576D01*
G75*
G02*
X169123698Y-101323416I-173648J984808D01*
G01*
G37*
D14*
X174700000Y-96380000D03*
D15*
X169283557Y-97335065D03*
X180116443Y-95424935D03*
G36*
G01*
X174493514Y-102407426D02*
X174493514Y-102407426D01*
G75*
G02*
X175304674Y-101248970I984808J173648D01*
G01*
X175797078Y-101162146D01*
G75*
G02*
X176955534Y-101973306I173648J-984808D01*
G01*
X176955534Y-101973306D01*
G75*
G02*
X176144374Y-103131762I-984808J-173648D01*
G01*
X175651970Y-103218586D01*
G75*
G02*
X174493514Y-102407426I-173648J984808D01*
G01*
G37*
G36*
G01*
X175088269Y-91153170D02*
X175088269Y-91153170D01*
G75*
G02*
X175899429Y-89994714I984808J173648D01*
G01*
X176391833Y-89907890D01*
G75*
G02*
X177550289Y-90719050I173648J-984808D01*
G01*
X177550289Y-90719050D01*
G75*
G02*
X176739129Y-91877506I-984808J-173648D01*
G01*
X176246725Y-91964330D01*
G75*
G02*
X175088269Y-91153170I-173648J984808D01*
G01*
G37*
G36*
G01*
X169275806Y-94757248D02*
X169275806Y-94757248D01*
G75*
G02*
X170086966Y-93598792I984808J173648D01*
G01*
X170579370Y-93511968D01*
G75*
G02*
X171737826Y-94323128I173648J-984808D01*
G01*
X171737826Y-94323128D01*
G75*
G02*
X170926666Y-95481584I-984808J-173648D01*
G01*
X170434262Y-95568408D01*
G75*
G02*
X169275806Y-94757248I-173648J984808D01*
G01*
G37*
D16*
X179702823Y-95497867D03*
X169697177Y-97262133D03*
G36*
G01*
X150973698Y-108103416D02*
X150973698Y-108103416D01*
G75*
G02*
X151784858Y-106944960I984808J173648D01*
G01*
X152277262Y-106858136D01*
G75*
G02*
X153435718Y-107669296I173648J-984808D01*
G01*
X153435718Y-107669296D01*
G75*
G02*
X152624558Y-108827752I-984808J-173648D01*
G01*
X152132154Y-108914576D01*
G75*
G02*
X150973698Y-108103416I-173648J984808D01*
G01*
G37*
D14*
X156550000Y-103160000D03*
D15*
X151133557Y-104115065D03*
X161966443Y-102204935D03*
G36*
G01*
X156343514Y-109187426D02*
X156343514Y-109187426D01*
G75*
G02*
X157154674Y-108028970I984808J173648D01*
G01*
X157647078Y-107942146D01*
G75*
G02*
X158805534Y-108753306I173648J-984808D01*
G01*
X158805534Y-108753306D01*
G75*
G02*
X157994374Y-109911762I-984808J-173648D01*
G01*
X157501970Y-109998586D01*
G75*
G02*
X156343514Y-109187426I-173648J984808D01*
G01*
G37*
G36*
G01*
X156938269Y-97933170D02*
X156938269Y-97933170D01*
G75*
G02*
X157749429Y-96774714I984808J173648D01*
G01*
X158241833Y-96687890D01*
G75*
G02*
X159400289Y-97499050I173648J-984808D01*
G01*
X159400289Y-97499050D01*
G75*
G02*
X158589129Y-98657506I-984808J-173648D01*
G01*
X158096725Y-98744330D01*
G75*
G02*
X156938269Y-97933170I-173648J984808D01*
G01*
G37*
G36*
G01*
X151125806Y-101537248D02*
X151125806Y-101537248D01*
G75*
G02*
X151936966Y-100378792I984808J173648D01*
G01*
X152429370Y-100291968D01*
G75*
G02*
X153587826Y-101103128I173648J-984808D01*
G01*
X153587826Y-101103128D01*
G75*
G02*
X152776666Y-102261584I-984808J-173648D01*
G01*
X152284262Y-102348408D01*
G75*
G02*
X151125806Y-101537248I-173648J984808D01*
G01*
G37*
D16*
X161552823Y-102277867D03*
X151547177Y-104042133D03*
G36*
G01*
X203373698Y-75953416D02*
X203373698Y-75953416D01*
G75*
G02*
X204184858Y-74794960I984808J173648D01*
G01*
X204677262Y-74708136D01*
G75*
G02*
X205835718Y-75519296I173648J-984808D01*
G01*
X205835718Y-75519296D01*
G75*
G02*
X205024558Y-76677752I-984808J-173648D01*
G01*
X204532154Y-76764576D01*
G75*
G02*
X203373698Y-75953416I-173648J984808D01*
G01*
G37*
D14*
X208950000Y-71010000D03*
D15*
X203533557Y-71965065D03*
X214366443Y-70054935D03*
G36*
G01*
X208743514Y-77037426D02*
X208743514Y-77037426D01*
G75*
G02*
X209554674Y-75878970I984808J173648D01*
G01*
X210047078Y-75792146D01*
G75*
G02*
X211205534Y-76603306I173648J-984808D01*
G01*
X211205534Y-76603306D01*
G75*
G02*
X210394374Y-77761762I-984808J-173648D01*
G01*
X209901970Y-77848586D01*
G75*
G02*
X208743514Y-77037426I-173648J984808D01*
G01*
G37*
G36*
G01*
X209338269Y-65783170D02*
X209338269Y-65783170D01*
G75*
G02*
X210149429Y-64624714I984808J173648D01*
G01*
X210641833Y-64537890D01*
G75*
G02*
X211800289Y-65349050I173648J-984808D01*
G01*
X211800289Y-65349050D01*
G75*
G02*
X210989129Y-66507506I-984808J-173648D01*
G01*
X210496725Y-66594330D01*
G75*
G02*
X209338269Y-65783170I-173648J984808D01*
G01*
G37*
G36*
G01*
X203525806Y-69387248D02*
X203525806Y-69387248D01*
G75*
G02*
X204336966Y-68228792I984808J173648D01*
G01*
X204829370Y-68141968D01*
G75*
G02*
X205987826Y-68953128I173648J-984808D01*
G01*
X205987826Y-68953128D01*
G75*
G02*
X205176666Y-70111584I-984808J-173648D01*
G01*
X204684262Y-70198408D01*
G75*
G02*
X203525806Y-69387248I-173648J984808D01*
G01*
G37*
D16*
X213952823Y-70127867D03*
X203947177Y-71892133D03*
G36*
G01*
X183973698Y-75823416D02*
X183973698Y-75823416D01*
G75*
G02*
X184784858Y-74664960I984808J173648D01*
G01*
X185277262Y-74578136D01*
G75*
G02*
X186435718Y-75389296I173648J-984808D01*
G01*
X186435718Y-75389296D01*
G75*
G02*
X185624558Y-76547752I-984808J-173648D01*
G01*
X185132154Y-76634576D01*
G75*
G02*
X183973698Y-75823416I-173648J984808D01*
G01*
G37*
D14*
X189550000Y-70880000D03*
D15*
X184133557Y-71835065D03*
X194966443Y-69924935D03*
G36*
G01*
X189343514Y-76907426D02*
X189343514Y-76907426D01*
G75*
G02*
X190154674Y-75748970I984808J173648D01*
G01*
X190647078Y-75662146D01*
G75*
G02*
X191805534Y-76473306I173648J-984808D01*
G01*
X191805534Y-76473306D01*
G75*
G02*
X190994374Y-77631762I-984808J-173648D01*
G01*
X190501970Y-77718586D01*
G75*
G02*
X189343514Y-76907426I-173648J984808D01*
G01*
G37*
G36*
G01*
X189938269Y-65653170D02*
X189938269Y-65653170D01*
G75*
G02*
X190749429Y-64494714I984808J173648D01*
G01*
X191241833Y-64407890D01*
G75*
G02*
X192400289Y-65219050I173648J-984808D01*
G01*
X192400289Y-65219050D01*
G75*
G02*
X191589129Y-66377506I-984808J-173648D01*
G01*
X191096725Y-66464330D01*
G75*
G02*
X189938269Y-65653170I-173648J984808D01*
G01*
G37*
G36*
G01*
X184125806Y-69257248D02*
X184125806Y-69257248D01*
G75*
G02*
X184936966Y-68098792I984808J173648D01*
G01*
X185429370Y-68011968D01*
G75*
G02*
X186587826Y-68823128I173648J-984808D01*
G01*
X186587826Y-68823128D01*
G75*
G02*
X185776666Y-69981584I-984808J-173648D01*
G01*
X185284262Y-70068408D01*
G75*
G02*
X184125806Y-69257248I-173648J984808D01*
G01*
G37*
D16*
X194552823Y-69997867D03*
X184547177Y-71762133D03*
G36*
G01*
X165833698Y-82553416D02*
X165833698Y-82553416D01*
G75*
G02*
X166644858Y-81394960I984808J173648D01*
G01*
X167137262Y-81308136D01*
G75*
G02*
X168295718Y-82119296I173648J-984808D01*
G01*
X168295718Y-82119296D01*
G75*
G02*
X167484558Y-83277752I-984808J-173648D01*
G01*
X166992154Y-83364576D01*
G75*
G02*
X165833698Y-82553416I-173648J984808D01*
G01*
G37*
D14*
X171410000Y-77610000D03*
D15*
X165993557Y-78565065D03*
X176826443Y-76654935D03*
G36*
G01*
X171203514Y-83637426D02*
X171203514Y-83637426D01*
G75*
G02*
X172014674Y-82478970I984808J173648D01*
G01*
X172507078Y-82392146D01*
G75*
G02*
X173665534Y-83203306I173648J-984808D01*
G01*
X173665534Y-83203306D01*
G75*
G02*
X172854374Y-84361762I-984808J-173648D01*
G01*
X172361970Y-84448586D01*
G75*
G02*
X171203514Y-83637426I-173648J984808D01*
G01*
G37*
G36*
G01*
X171798269Y-72383170D02*
X171798269Y-72383170D01*
G75*
G02*
X172609429Y-71224714I984808J173648D01*
G01*
X173101833Y-71137890D01*
G75*
G02*
X174260289Y-71949050I173648J-984808D01*
G01*
X174260289Y-71949050D01*
G75*
G02*
X173449129Y-73107506I-984808J-173648D01*
G01*
X172956725Y-73194330D01*
G75*
G02*
X171798269Y-72383170I-173648J984808D01*
G01*
G37*
G36*
G01*
X165985806Y-75987248D02*
X165985806Y-75987248D01*
G75*
G02*
X166796966Y-74828792I984808J173648D01*
G01*
X167289370Y-74741968D01*
G75*
G02*
X168447826Y-75553128I173648J-984808D01*
G01*
X168447826Y-75553128D01*
G75*
G02*
X167636666Y-76711584I-984808J-173648D01*
G01*
X167144262Y-76798408D01*
G75*
G02*
X165985806Y-75987248I-173648J984808D01*
G01*
G37*
D16*
X176412823Y-76727867D03*
X166407177Y-78492133D03*
G36*
G01*
X147673698Y-89323416D02*
X147673698Y-89323416D01*
G75*
G02*
X148484858Y-88164960I984808J173648D01*
G01*
X148977262Y-88078136D01*
G75*
G02*
X150135718Y-88889296I173648J-984808D01*
G01*
X150135718Y-88889296D01*
G75*
G02*
X149324558Y-90047752I-984808J-173648D01*
G01*
X148832154Y-90134576D01*
G75*
G02*
X147673698Y-89323416I-173648J984808D01*
G01*
G37*
D14*
X153250000Y-84380000D03*
D15*
X147833557Y-85335065D03*
X158666443Y-83424935D03*
G36*
G01*
X153043514Y-90407426D02*
X153043514Y-90407426D01*
G75*
G02*
X153854674Y-89248970I984808J173648D01*
G01*
X154347078Y-89162146D01*
G75*
G02*
X155505534Y-89973306I173648J-984808D01*
G01*
X155505534Y-89973306D01*
G75*
G02*
X154694374Y-91131762I-984808J-173648D01*
G01*
X154201970Y-91218586D01*
G75*
G02*
X153043514Y-90407426I-173648J984808D01*
G01*
G37*
G36*
G01*
X153638269Y-79153170D02*
X153638269Y-79153170D01*
G75*
G02*
X154449429Y-77994714I984808J173648D01*
G01*
X154941833Y-77907890D01*
G75*
G02*
X156100289Y-78719050I173648J-984808D01*
G01*
X156100289Y-78719050D01*
G75*
G02*
X155289129Y-79877506I-984808J-173648D01*
G01*
X154796725Y-79964330D01*
G75*
G02*
X153638269Y-79153170I-173648J984808D01*
G01*
G37*
G36*
G01*
X147825806Y-82757248D02*
X147825806Y-82757248D01*
G75*
G02*
X148636966Y-81598792I984808J173648D01*
G01*
X149129370Y-81511968D01*
G75*
G02*
X150287826Y-82323128I173648J-984808D01*
G01*
X150287826Y-82323128D01*
G75*
G02*
X149476666Y-83481584I-984808J-173648D01*
G01*
X148984262Y-83568408D01*
G75*
G02*
X147825806Y-82757248I-173648J984808D01*
G01*
G37*
D16*
X158252823Y-83497867D03*
X148247177Y-85262133D03*
G36*
G01*
X200033698Y-57193416D02*
X200033698Y-57193416D01*
G75*
G02*
X200844858Y-56034960I984808J173648D01*
G01*
X201337262Y-55948136D01*
G75*
G02*
X202495718Y-56759296I173648J-984808D01*
G01*
X202495718Y-56759296D01*
G75*
G02*
X201684558Y-57917752I-984808J-173648D01*
G01*
X201192154Y-58004576D01*
G75*
G02*
X200033698Y-57193416I-173648J984808D01*
G01*
G37*
D14*
X205610000Y-52250000D03*
D15*
X200193557Y-53205065D03*
X211026443Y-51294935D03*
G36*
G01*
X205403514Y-58277426D02*
X205403514Y-58277426D01*
G75*
G02*
X206214674Y-57118970I984808J173648D01*
G01*
X206707078Y-57032146D01*
G75*
G02*
X207865534Y-57843306I173648J-984808D01*
G01*
X207865534Y-57843306D01*
G75*
G02*
X207054374Y-59001762I-984808J-173648D01*
G01*
X206561970Y-59088586D01*
G75*
G02*
X205403514Y-58277426I-173648J984808D01*
G01*
G37*
G36*
G01*
X205998269Y-47023170D02*
X205998269Y-47023170D01*
G75*
G02*
X206809429Y-45864714I984808J173648D01*
G01*
X207301833Y-45777890D01*
G75*
G02*
X208460289Y-46589050I173648J-984808D01*
G01*
X208460289Y-46589050D01*
G75*
G02*
X207649129Y-47747506I-984808J-173648D01*
G01*
X207156725Y-47834330D01*
G75*
G02*
X205998269Y-47023170I-173648J984808D01*
G01*
G37*
G36*
G01*
X200185806Y-50627248D02*
X200185806Y-50627248D01*
G75*
G02*
X200996966Y-49468792I984808J173648D01*
G01*
X201489370Y-49381968D01*
G75*
G02*
X202647826Y-50193128I173648J-984808D01*
G01*
X202647826Y-50193128D01*
G75*
G02*
X201836666Y-51351584I-984808J-173648D01*
G01*
X201344262Y-51438408D01*
G75*
G02*
X200185806Y-50627248I-173648J984808D01*
G01*
G37*
D16*
X210612823Y-51367867D03*
X200607177Y-53132133D03*
G36*
G01*
X162513698Y-63813416D02*
X162513698Y-63813416D01*
G75*
G02*
X163324858Y-62654960I984808J173648D01*
G01*
X163817262Y-62568136D01*
G75*
G02*
X164975718Y-63379296I173648J-984808D01*
G01*
X164975718Y-63379296D01*
G75*
G02*
X164164558Y-64537752I-984808J-173648D01*
G01*
X163672154Y-64624576D01*
G75*
G02*
X162513698Y-63813416I-173648J984808D01*
G01*
G37*
D14*
X168090000Y-58870000D03*
D15*
X162673557Y-59825065D03*
X173506443Y-57914935D03*
G36*
G01*
X167883514Y-64897426D02*
X167883514Y-64897426D01*
G75*
G02*
X168694674Y-63738970I984808J173648D01*
G01*
X169187078Y-63652146D01*
G75*
G02*
X170345534Y-64463306I173648J-984808D01*
G01*
X170345534Y-64463306D01*
G75*
G02*
X169534374Y-65621762I-984808J-173648D01*
G01*
X169041970Y-65708586D01*
G75*
G02*
X167883514Y-64897426I-173648J984808D01*
G01*
G37*
G36*
G01*
X168478269Y-53643170D02*
X168478269Y-53643170D01*
G75*
G02*
X169289429Y-52484714I984808J173648D01*
G01*
X169781833Y-52397890D01*
G75*
G02*
X170940289Y-53209050I173648J-984808D01*
G01*
X170940289Y-53209050D01*
G75*
G02*
X170129129Y-54367506I-984808J-173648D01*
G01*
X169636725Y-54454330D01*
G75*
G02*
X168478269Y-53643170I-173648J984808D01*
G01*
G37*
G36*
G01*
X162665806Y-57247248D02*
X162665806Y-57247248D01*
G75*
G02*
X163476966Y-56088792I984808J173648D01*
G01*
X163969370Y-56001968D01*
G75*
G02*
X165127826Y-56813128I173648J-984808D01*
G01*
X165127826Y-56813128D01*
G75*
G02*
X164316666Y-57971584I-984808J-173648D01*
G01*
X163824262Y-58058408D01*
G75*
G02*
X162665806Y-57247248I-173648J984808D01*
G01*
G37*
D16*
X173092823Y-57987867D03*
X163087177Y-59752133D03*
G36*
G01*
X144373698Y-70543416D02*
X144373698Y-70543416D01*
G75*
G02*
X145184858Y-69384960I984808J173648D01*
G01*
X145677262Y-69298136D01*
G75*
G02*
X146835718Y-70109296I173648J-984808D01*
G01*
X146835718Y-70109296D01*
G75*
G02*
X146024558Y-71267752I-984808J-173648D01*
G01*
X145532154Y-71354576D01*
G75*
G02*
X144373698Y-70543416I-173648J984808D01*
G01*
G37*
D14*
X149950000Y-65600000D03*
D15*
X144533557Y-66555065D03*
X155366443Y-64644935D03*
G36*
G01*
X149743514Y-71627426D02*
X149743514Y-71627426D01*
G75*
G02*
X150554674Y-70468970I984808J173648D01*
G01*
X151047078Y-70382146D01*
G75*
G02*
X152205534Y-71193306I173648J-984808D01*
G01*
X152205534Y-71193306D01*
G75*
G02*
X151394374Y-72351762I-984808J-173648D01*
G01*
X150901970Y-72438586D01*
G75*
G02*
X149743514Y-71627426I-173648J984808D01*
G01*
G37*
G36*
G01*
X150338269Y-60373170D02*
X150338269Y-60373170D01*
G75*
G02*
X151149429Y-59214714I984808J173648D01*
G01*
X151641833Y-59127890D01*
G75*
G02*
X152800289Y-59939050I173648J-984808D01*
G01*
X152800289Y-59939050D01*
G75*
G02*
X151989129Y-61097506I-984808J-173648D01*
G01*
X151496725Y-61184330D01*
G75*
G02*
X150338269Y-60373170I-173648J984808D01*
G01*
G37*
G36*
G01*
X144525806Y-63977248D02*
X144525806Y-63977248D01*
G75*
G02*
X145336966Y-62818792I984808J173648D01*
G01*
X145829370Y-62731968D01*
G75*
G02*
X146987826Y-63543128I173648J-984808D01*
G01*
X146987826Y-63543128D01*
G75*
G02*
X146176666Y-64701584I-984808J-173648D01*
G01*
X145684262Y-64788408D01*
G75*
G02*
X144525806Y-63977248I-173648J984808D01*
G01*
G37*
D16*
X154952823Y-64717867D03*
X144947177Y-66482133D03*
G36*
G01*
X112339243Y-105848085D02*
X112339243Y-105848085D01*
G75*
G02*
X113497699Y-105036925I984808J-173648D01*
G01*
X113990103Y-105123749D01*
G75*
G02*
X114801263Y-106282205I-173648J-984808D01*
G01*
X114801263Y-106282205D01*
G75*
G02*
X113642807Y-107093365I-984808J173648D01*
G01*
X113150403Y-107006541D01*
G75*
G02*
X112339243Y-105848085I173648J984808D01*
G01*
G37*
D14*
X119270000Y-103110000D03*
D15*
X113853557Y-102154935D03*
X124686443Y-104065065D03*
G36*
G01*
X117014466Y-108703306D02*
X117014466Y-108703306D01*
G75*
G02*
X118172922Y-107892146I984808J-173648D01*
G01*
X118665326Y-107978970D01*
G75*
G02*
X119476486Y-109137426I-173648J-984808D01*
G01*
X119476486Y-109137426D01*
G75*
G02*
X118318030Y-109948586I-984808J173648D01*
G01*
X117825626Y-109861762D01*
G75*
G02*
X117014466Y-108703306I173648J984808D01*
G01*
G37*
G36*
G01*
X121422534Y-98331183D02*
X121422534Y-98331183D01*
G75*
G02*
X122580990Y-97520023I984808J-173648D01*
G01*
X123073394Y-97606847D01*
G75*
G02*
X123884554Y-98765303I-173648J-984808D01*
G01*
X123884554Y-98765303D01*
G75*
G02*
X122726098Y-99576463I-984808J173648D01*
G01*
X122233694Y-99489639D01*
G75*
G02*
X121422534Y-98331183I173648J984808D01*
G01*
G37*
G36*
G01*
X114727939Y-99729929D02*
X114727939Y-99729929D01*
G75*
G02*
X115886395Y-98918769I984808J-173648D01*
G01*
X116378799Y-99005593D01*
G75*
G02*
X117189959Y-100164049I-173648J-984808D01*
G01*
X117189959Y-100164049D01*
G75*
G02*
X116031503Y-100975209I-984808J173648D01*
G01*
X115539099Y-100888385D01*
G75*
G02*
X114727939Y-99729929I173648J984808D01*
G01*
G37*
D16*
X124272823Y-103992133D03*
X114267177Y-102227867D03*
G36*
G01*
X94149243Y-99148085D02*
X94149243Y-99148085D01*
G75*
G02*
X95307699Y-98336925I984808J-173648D01*
G01*
X95800103Y-98423749D01*
G75*
G02*
X96611263Y-99582205I-173648J-984808D01*
G01*
X96611263Y-99582205D01*
G75*
G02*
X95452807Y-100393365I-984808J173648D01*
G01*
X94960403Y-100306541D01*
G75*
G02*
X94149243Y-99148085I173648J984808D01*
G01*
G37*
D14*
X101080000Y-96410000D03*
D15*
X95663557Y-95454935D03*
X106496443Y-97365065D03*
G36*
G01*
X98824466Y-102003306D02*
X98824466Y-102003306D01*
G75*
G02*
X99982922Y-101192146I984808J-173648D01*
G01*
X100475326Y-101278970D01*
G75*
G02*
X101286486Y-102437426I-173648J-984808D01*
G01*
X101286486Y-102437426D01*
G75*
G02*
X100128030Y-103248586I-984808J173648D01*
G01*
X99635626Y-103161762D01*
G75*
G02*
X98824466Y-102003306I173648J984808D01*
G01*
G37*
G36*
G01*
X103232534Y-91631183D02*
X103232534Y-91631183D01*
G75*
G02*
X104390990Y-90820023I984808J-173648D01*
G01*
X104883394Y-90906847D01*
G75*
G02*
X105694554Y-92065303I-173648J-984808D01*
G01*
X105694554Y-92065303D01*
G75*
G02*
X104536098Y-92876463I-984808J173648D01*
G01*
X104043694Y-92789639D01*
G75*
G02*
X103232534Y-91631183I173648J984808D01*
G01*
G37*
G36*
G01*
X96537939Y-93029929D02*
X96537939Y-93029929D01*
G75*
G02*
X97696395Y-92218769I984808J-173648D01*
G01*
X98188799Y-92305593D01*
G75*
G02*
X98999959Y-93464049I-173648J-984808D01*
G01*
X98999959Y-93464049D01*
G75*
G02*
X97841503Y-94275209I-984808J173648D01*
G01*
X97349099Y-94188385D01*
G75*
G02*
X96537939Y-93029929I173648J984808D01*
G01*
G37*
D16*
X106082823Y-97292133D03*
X96077177Y-95527867D03*
G36*
G01*
X76009243Y-92418085D02*
X76009243Y-92418085D01*
G75*
G02*
X77167699Y-91606925I984808J-173648D01*
G01*
X77660103Y-91693749D01*
G75*
G02*
X78471263Y-92852205I-173648J-984808D01*
G01*
X78471263Y-92852205D01*
G75*
G02*
X77312807Y-93663365I-984808J173648D01*
G01*
X76820403Y-93576541D01*
G75*
G02*
X76009243Y-92418085I173648J984808D01*
G01*
G37*
D14*
X82940000Y-89680000D03*
D15*
X77523557Y-88724935D03*
X88356443Y-90635065D03*
G36*
G01*
X80684466Y-95273306D02*
X80684466Y-95273306D01*
G75*
G02*
X81842922Y-94462146I984808J-173648D01*
G01*
X82335326Y-94548970D01*
G75*
G02*
X83146486Y-95707426I-173648J-984808D01*
G01*
X83146486Y-95707426D01*
G75*
G02*
X81988030Y-96518586I-984808J173648D01*
G01*
X81495626Y-96431762D01*
G75*
G02*
X80684466Y-95273306I173648J984808D01*
G01*
G37*
G36*
G01*
X85092534Y-84901183D02*
X85092534Y-84901183D01*
G75*
G02*
X86250990Y-84090023I984808J-173648D01*
G01*
X86743394Y-84176847D01*
G75*
G02*
X87554554Y-85335303I-173648J-984808D01*
G01*
X87554554Y-85335303D01*
G75*
G02*
X86396098Y-86146463I-984808J173648D01*
G01*
X85903694Y-86059639D01*
G75*
G02*
X85092534Y-84901183I173648J984808D01*
G01*
G37*
G36*
G01*
X78397939Y-86299929D02*
X78397939Y-86299929D01*
G75*
G02*
X79556395Y-85488769I984808J-173648D01*
G01*
X80048799Y-85575593D01*
G75*
G02*
X80859959Y-86734049I-173648J-984808D01*
G01*
X80859959Y-86734049D01*
G75*
G02*
X79701503Y-87545209I-984808J173648D01*
G01*
X79209099Y-87458385D01*
G75*
G02*
X78397939Y-86299929I173648J984808D01*
G01*
G37*
D16*
X87942823Y-90562133D03*
X77937177Y-88797867D03*
G36*
G01*
X56659243Y-92498085D02*
X56659243Y-92498085D01*
G75*
G02*
X57817699Y-91686925I984808J-173648D01*
G01*
X58310103Y-91773749D01*
G75*
G02*
X59121263Y-92932205I-173648J-984808D01*
G01*
X59121263Y-92932205D01*
G75*
G02*
X57962807Y-93743365I-984808J173648D01*
G01*
X57470403Y-93656541D01*
G75*
G02*
X56659243Y-92498085I173648J984808D01*
G01*
G37*
D14*
X63590000Y-89760000D03*
D15*
X58173557Y-88804935D03*
X69006443Y-90715065D03*
G36*
G01*
X61334466Y-95353306D02*
X61334466Y-95353306D01*
G75*
G02*
X62492922Y-94542146I984808J-173648D01*
G01*
X62985326Y-94628970D01*
G75*
G02*
X63796486Y-95787426I-173648J-984808D01*
G01*
X63796486Y-95787426D01*
G75*
G02*
X62638030Y-96598586I-984808J173648D01*
G01*
X62145626Y-96511762D01*
G75*
G02*
X61334466Y-95353306I173648J984808D01*
G01*
G37*
G36*
G01*
X65742534Y-84981183D02*
X65742534Y-84981183D01*
G75*
G02*
X66900990Y-84170023I984808J-173648D01*
G01*
X67393394Y-84256847D01*
G75*
G02*
X68204554Y-85415303I-173648J-984808D01*
G01*
X68204554Y-85415303D01*
G75*
G02*
X67046098Y-86226463I-984808J173648D01*
G01*
X66553694Y-86139639D01*
G75*
G02*
X65742534Y-84981183I173648J984808D01*
G01*
G37*
G36*
G01*
X59047939Y-86379929D02*
X59047939Y-86379929D01*
G75*
G02*
X60206395Y-85568769I984808J-173648D01*
G01*
X60698799Y-85655593D01*
G75*
G02*
X61509959Y-86814049I-173648J-984808D01*
G01*
X61509959Y-86814049D01*
G75*
G02*
X60351503Y-87625209I-984808J173648D01*
G01*
X59859099Y-87538385D01*
G75*
G02*
X59047939Y-86379929I173648J984808D01*
G01*
G37*
D16*
X68592823Y-90642133D03*
X58587177Y-88877867D03*
G36*
G01*
X37289243Y-92668085D02*
X37289243Y-92668085D01*
G75*
G02*
X38447699Y-91856925I984808J-173648D01*
G01*
X38940103Y-91943749D01*
G75*
G02*
X39751263Y-93102205I-173648J-984808D01*
G01*
X39751263Y-93102205D01*
G75*
G02*
X38592807Y-93913365I-984808J173648D01*
G01*
X38100403Y-93826541D01*
G75*
G02*
X37289243Y-92668085I173648J984808D01*
G01*
G37*
D14*
X44220000Y-89930000D03*
D15*
X38803557Y-88974935D03*
X49636443Y-90885065D03*
G36*
G01*
X41964466Y-95523306D02*
X41964466Y-95523306D01*
G75*
G02*
X43122922Y-94712146I984808J-173648D01*
G01*
X43615326Y-94798970D01*
G75*
G02*
X44426486Y-95957426I-173648J-984808D01*
G01*
X44426486Y-95957426D01*
G75*
G02*
X43268030Y-96768586I-984808J173648D01*
G01*
X42775626Y-96681762D01*
G75*
G02*
X41964466Y-95523306I173648J984808D01*
G01*
G37*
G36*
G01*
X46372534Y-85151183D02*
X46372534Y-85151183D01*
G75*
G02*
X47530990Y-84340023I984808J-173648D01*
G01*
X48023394Y-84426847D01*
G75*
G02*
X48834554Y-85585303I-173648J-984808D01*
G01*
X48834554Y-85585303D01*
G75*
G02*
X47676098Y-86396463I-984808J173648D01*
G01*
X47183694Y-86309639D01*
G75*
G02*
X46372534Y-85151183I173648J984808D01*
G01*
G37*
G36*
G01*
X39677939Y-86549929D02*
X39677939Y-86549929D01*
G75*
G02*
X40836395Y-85738769I984808J-173648D01*
G01*
X41328799Y-85825593D01*
G75*
G02*
X42139959Y-86984049I-173648J-984808D01*
G01*
X42139959Y-86984049D01*
G75*
G02*
X40981503Y-87795209I-984808J173648D01*
G01*
X40489099Y-87708385D01*
G75*
G02*
X39677939Y-86549929I173648J984808D01*
G01*
G37*
D16*
X49222823Y-90812133D03*
X39217177Y-89047867D03*
G36*
G01*
X115629243Y-87128085D02*
X115629243Y-87128085D01*
G75*
G02*
X116787699Y-86316925I984808J-173648D01*
G01*
X117280103Y-86403749D01*
G75*
G02*
X118091263Y-87562205I-173648J-984808D01*
G01*
X118091263Y-87562205D01*
G75*
G02*
X116932807Y-88373365I-984808J173648D01*
G01*
X116440403Y-88286541D01*
G75*
G02*
X115629243Y-87128085I173648J984808D01*
G01*
G37*
D14*
X122560000Y-84390000D03*
D15*
X117143557Y-83434935D03*
X127976443Y-85345065D03*
G36*
G01*
X120304466Y-89983306D02*
X120304466Y-89983306D01*
G75*
G02*
X121462922Y-89172146I984808J-173648D01*
G01*
X121955326Y-89258970D01*
G75*
G02*
X122766486Y-90417426I-173648J-984808D01*
G01*
X122766486Y-90417426D01*
G75*
G02*
X121608030Y-91228586I-984808J173648D01*
G01*
X121115626Y-91141762D01*
G75*
G02*
X120304466Y-89983306I173648J984808D01*
G01*
G37*
G36*
G01*
X124712534Y-79611183D02*
X124712534Y-79611183D01*
G75*
G02*
X125870990Y-78800023I984808J-173648D01*
G01*
X126363394Y-78886847D01*
G75*
G02*
X127174554Y-80045303I-173648J-984808D01*
G01*
X127174554Y-80045303D01*
G75*
G02*
X126016098Y-80856463I-984808J173648D01*
G01*
X125523694Y-80769639D01*
G75*
G02*
X124712534Y-79611183I173648J984808D01*
G01*
G37*
G36*
G01*
X118017939Y-81009929D02*
X118017939Y-81009929D01*
G75*
G02*
X119176395Y-80198769I984808J-173648D01*
G01*
X119668799Y-80285593D01*
G75*
G02*
X120479959Y-81444049I-173648J-984808D01*
G01*
X120479959Y-81444049D01*
G75*
G02*
X119321503Y-82255209I-984808J173648D01*
G01*
X118829099Y-82168385D01*
G75*
G02*
X118017939Y-81009929I173648J984808D01*
G01*
G37*
D16*
X127562823Y-85272133D03*
X117557177Y-83507867D03*
G36*
G01*
X97459243Y-80358085D02*
X97459243Y-80358085D01*
G75*
G02*
X98617699Y-79546925I984808J-173648D01*
G01*
X99110103Y-79633749D01*
G75*
G02*
X99921263Y-80792205I-173648J-984808D01*
G01*
X99921263Y-80792205D01*
G75*
G02*
X98762807Y-81603365I-984808J173648D01*
G01*
X98270403Y-81516541D01*
G75*
G02*
X97459243Y-80358085I173648J984808D01*
G01*
G37*
D14*
X104390000Y-77620000D03*
D15*
X98973557Y-76664935D03*
X109806443Y-78575065D03*
G36*
G01*
X102134466Y-83213306D02*
X102134466Y-83213306D01*
G75*
G02*
X103292922Y-82402146I984808J-173648D01*
G01*
X103785326Y-82488970D01*
G75*
G02*
X104596486Y-83647426I-173648J-984808D01*
G01*
X104596486Y-83647426D01*
G75*
G02*
X103438030Y-84458586I-984808J173648D01*
G01*
X102945626Y-84371762D01*
G75*
G02*
X102134466Y-83213306I173648J984808D01*
G01*
G37*
G36*
G01*
X106542534Y-72841183D02*
X106542534Y-72841183D01*
G75*
G02*
X107700990Y-72030023I984808J-173648D01*
G01*
X108193394Y-72116847D01*
G75*
G02*
X109004554Y-73275303I-173648J-984808D01*
G01*
X109004554Y-73275303D01*
G75*
G02*
X107846098Y-74086463I-984808J173648D01*
G01*
X107353694Y-73999639D01*
G75*
G02*
X106542534Y-72841183I173648J984808D01*
G01*
G37*
G36*
G01*
X99847939Y-74239929D02*
X99847939Y-74239929D01*
G75*
G02*
X101006395Y-73428769I984808J-173648D01*
G01*
X101498799Y-73515593D01*
G75*
G02*
X102309959Y-74674049I-173648J-984808D01*
G01*
X102309959Y-74674049D01*
G75*
G02*
X101151503Y-75485209I-984808J173648D01*
G01*
X100659099Y-75398385D01*
G75*
G02*
X99847939Y-74239929I173648J984808D01*
G01*
G37*
D16*
X109392823Y-78502133D03*
X99387177Y-76737867D03*
G36*
G01*
X79349243Y-73608085D02*
X79349243Y-73608085D01*
G75*
G02*
X80507699Y-72796925I984808J-173648D01*
G01*
X81000103Y-72883749D01*
G75*
G02*
X81811263Y-74042205I-173648J-984808D01*
G01*
X81811263Y-74042205D01*
G75*
G02*
X80652807Y-74853365I-984808J173648D01*
G01*
X80160403Y-74766541D01*
G75*
G02*
X79349243Y-73608085I173648J984808D01*
G01*
G37*
D14*
X86280000Y-70870000D03*
D15*
X80863557Y-69914935D03*
X91696443Y-71825065D03*
G36*
G01*
X84024466Y-76463306D02*
X84024466Y-76463306D01*
G75*
G02*
X85182922Y-75652146I984808J-173648D01*
G01*
X85675326Y-75738970D01*
G75*
G02*
X86486486Y-76897426I-173648J-984808D01*
G01*
X86486486Y-76897426D01*
G75*
G02*
X85328030Y-77708586I-984808J173648D01*
G01*
X84835626Y-77621762D01*
G75*
G02*
X84024466Y-76463306I173648J984808D01*
G01*
G37*
G36*
G01*
X88432534Y-66091183D02*
X88432534Y-66091183D01*
G75*
G02*
X89590990Y-65280023I984808J-173648D01*
G01*
X90083394Y-65366847D01*
G75*
G02*
X90894554Y-66525303I-173648J-984808D01*
G01*
X90894554Y-66525303D01*
G75*
G02*
X89736098Y-67336463I-984808J173648D01*
G01*
X89243694Y-67249639D01*
G75*
G02*
X88432534Y-66091183I173648J984808D01*
G01*
G37*
G36*
G01*
X81737939Y-67489929D02*
X81737939Y-67489929D01*
G75*
G02*
X82896395Y-66678769I984808J-173648D01*
G01*
X83388799Y-66765593D01*
G75*
G02*
X84199959Y-67924049I-173648J-984808D01*
G01*
X84199959Y-67924049D01*
G75*
G02*
X83041503Y-68735209I-984808J173648D01*
G01*
X82549099Y-68648385D01*
G75*
G02*
X81737939Y-67489929I173648J984808D01*
G01*
G37*
D16*
X91282823Y-71752133D03*
X81277177Y-69987867D03*
G36*
G01*
X59929243Y-73768085D02*
X59929243Y-73768085D01*
G75*
G02*
X61087699Y-72956925I984808J-173648D01*
G01*
X61580103Y-73043749D01*
G75*
G02*
X62391263Y-74202205I-173648J-984808D01*
G01*
X62391263Y-74202205D01*
G75*
G02*
X61232807Y-75013365I-984808J173648D01*
G01*
X60740403Y-74926541D01*
G75*
G02*
X59929243Y-73768085I173648J984808D01*
G01*
G37*
D14*
X66860000Y-71030000D03*
D15*
X61443557Y-70074935D03*
X72276443Y-71985065D03*
G36*
G01*
X64604466Y-76623306D02*
X64604466Y-76623306D01*
G75*
G02*
X65762922Y-75812146I984808J-173648D01*
G01*
X66255326Y-75898970D01*
G75*
G02*
X67066486Y-77057426I-173648J-984808D01*
G01*
X67066486Y-77057426D01*
G75*
G02*
X65908030Y-77868586I-984808J173648D01*
G01*
X65415626Y-77781762D01*
G75*
G02*
X64604466Y-76623306I173648J984808D01*
G01*
G37*
G36*
G01*
X69012534Y-66251183D02*
X69012534Y-66251183D01*
G75*
G02*
X70170990Y-65440023I984808J-173648D01*
G01*
X70663394Y-65526847D01*
G75*
G02*
X71474554Y-66685303I-173648J-984808D01*
G01*
X71474554Y-66685303D01*
G75*
G02*
X70316098Y-67496463I-984808J173648D01*
G01*
X69823694Y-67409639D01*
G75*
G02*
X69012534Y-66251183I173648J984808D01*
G01*
G37*
G36*
G01*
X62317939Y-67649929D02*
X62317939Y-67649929D01*
G75*
G02*
X63476395Y-66838769I984808J-173648D01*
G01*
X63968799Y-66925593D01*
G75*
G02*
X64779959Y-68084049I-173648J-984808D01*
G01*
X64779959Y-68084049D01*
G75*
G02*
X63621503Y-68895209I-984808J173648D01*
G01*
X63129099Y-68808385D01*
G75*
G02*
X62317939Y-67649929I173648J984808D01*
G01*
G37*
D16*
X71862823Y-71912133D03*
X61857177Y-70147867D03*
G36*
G01*
X40589243Y-73898085D02*
X40589243Y-73898085D01*
G75*
G02*
X41747699Y-73086925I984808J-173648D01*
G01*
X42240103Y-73173749D01*
G75*
G02*
X43051263Y-74332205I-173648J-984808D01*
G01*
X43051263Y-74332205D01*
G75*
G02*
X41892807Y-75143365I-984808J173648D01*
G01*
X41400403Y-75056541D01*
G75*
G02*
X40589243Y-73898085I173648J984808D01*
G01*
G37*
D14*
X47520000Y-71160000D03*
D15*
X42103557Y-70204935D03*
X52936443Y-72115065D03*
G36*
G01*
X45264466Y-76753306D02*
X45264466Y-76753306D01*
G75*
G02*
X46422922Y-75942146I984808J-173648D01*
G01*
X46915326Y-76028970D01*
G75*
G02*
X47726486Y-77187426I-173648J-984808D01*
G01*
X47726486Y-77187426D01*
G75*
G02*
X46568030Y-77998586I-984808J173648D01*
G01*
X46075626Y-77911762D01*
G75*
G02*
X45264466Y-76753306I173648J984808D01*
G01*
G37*
G36*
G01*
X49672534Y-66381183D02*
X49672534Y-66381183D01*
G75*
G02*
X50830990Y-65570023I984808J-173648D01*
G01*
X51323394Y-65656847D01*
G75*
G02*
X52134554Y-66815303I-173648J-984808D01*
G01*
X52134554Y-66815303D01*
G75*
G02*
X50976098Y-67626463I-984808J173648D01*
G01*
X50483694Y-67539639D01*
G75*
G02*
X49672534Y-66381183I173648J984808D01*
G01*
G37*
G36*
G01*
X42977939Y-67779929D02*
X42977939Y-67779929D01*
G75*
G02*
X44136395Y-66968769I984808J-173648D01*
G01*
X44628799Y-67055593D01*
G75*
G02*
X45439959Y-68214049I-173648J-984808D01*
G01*
X45439959Y-68214049D01*
G75*
G02*
X44281503Y-69025209I-984808J173648D01*
G01*
X43789099Y-68938385D01*
G75*
G02*
X42977939Y-67779929I173648J984808D01*
G01*
G37*
D16*
X52522823Y-72042133D03*
X42517177Y-70277867D03*
G36*
G01*
X118979243Y-68328085D02*
X118979243Y-68328085D01*
G75*
G02*
X120137699Y-67516925I984808J-173648D01*
G01*
X120630103Y-67603749D01*
G75*
G02*
X121441263Y-68762205I-173648J-984808D01*
G01*
X121441263Y-68762205D01*
G75*
G02*
X120282807Y-69573365I-984808J173648D01*
G01*
X119790403Y-69486541D01*
G75*
G02*
X118979243Y-68328085I173648J984808D01*
G01*
G37*
D14*
X125910000Y-65590000D03*
D15*
X120493557Y-64634935D03*
X131326443Y-66545065D03*
G36*
G01*
X123654466Y-71183306D02*
X123654466Y-71183306D01*
G75*
G02*
X124812922Y-70372146I984808J-173648D01*
G01*
X125305326Y-70458970D01*
G75*
G02*
X126116486Y-71617426I-173648J-984808D01*
G01*
X126116486Y-71617426D01*
G75*
G02*
X124958030Y-72428586I-984808J173648D01*
G01*
X124465626Y-72341762D01*
G75*
G02*
X123654466Y-71183306I173648J984808D01*
G01*
G37*
G36*
G01*
X128062534Y-60811183D02*
X128062534Y-60811183D01*
G75*
G02*
X129220990Y-60000023I984808J-173648D01*
G01*
X129713394Y-60086847D01*
G75*
G02*
X130524554Y-61245303I-173648J-984808D01*
G01*
X130524554Y-61245303D01*
G75*
G02*
X129366098Y-62056463I-984808J173648D01*
G01*
X128873694Y-61969639D01*
G75*
G02*
X128062534Y-60811183I173648J984808D01*
G01*
G37*
G36*
G01*
X121367939Y-62209929D02*
X121367939Y-62209929D01*
G75*
G02*
X122526395Y-61398769I984808J-173648D01*
G01*
X123018799Y-61485593D01*
G75*
G02*
X123829959Y-62644049I-173648J-984808D01*
G01*
X123829959Y-62644049D01*
G75*
G02*
X122671503Y-63455209I-984808J173648D01*
G01*
X122179099Y-63368385D01*
G75*
G02*
X121367939Y-62209929I173648J984808D01*
G01*
G37*
D16*
X130912823Y-66472133D03*
X120907177Y-64707867D03*
G36*
G01*
X100799243Y-61608085D02*
X100799243Y-61608085D01*
G75*
G02*
X101957699Y-60796925I984808J-173648D01*
G01*
X102450103Y-60883749D01*
G75*
G02*
X103261263Y-62042205I-173648J-984808D01*
G01*
X103261263Y-62042205D01*
G75*
G02*
X102102807Y-62853365I-984808J173648D01*
G01*
X101610403Y-62766541D01*
G75*
G02*
X100799243Y-61608085I173648J984808D01*
G01*
G37*
D14*
X107730000Y-58870000D03*
D15*
X102313557Y-57914935D03*
X113146443Y-59825065D03*
G36*
G01*
X105474466Y-64463306D02*
X105474466Y-64463306D01*
G75*
G02*
X106632922Y-63652146I984808J-173648D01*
G01*
X107125326Y-63738970D01*
G75*
G02*
X107936486Y-64897426I-173648J-984808D01*
G01*
X107936486Y-64897426D01*
G75*
G02*
X106778030Y-65708586I-984808J173648D01*
G01*
X106285626Y-65621762D01*
G75*
G02*
X105474466Y-64463306I173648J984808D01*
G01*
G37*
G36*
G01*
X109882534Y-54091183D02*
X109882534Y-54091183D01*
G75*
G02*
X111040990Y-53280023I984808J-173648D01*
G01*
X111533394Y-53366847D01*
G75*
G02*
X112344554Y-54525303I-173648J-984808D01*
G01*
X112344554Y-54525303D01*
G75*
G02*
X111186098Y-55336463I-984808J173648D01*
G01*
X110693694Y-55249639D01*
G75*
G02*
X109882534Y-54091183I173648J984808D01*
G01*
G37*
G36*
G01*
X103187939Y-55489929D02*
X103187939Y-55489929D01*
G75*
G02*
X104346395Y-54678769I984808J-173648D01*
G01*
X104838799Y-54765593D01*
G75*
G02*
X105649959Y-55924049I-173648J-984808D01*
G01*
X105649959Y-55924049D01*
G75*
G02*
X104491503Y-56735209I-984808J173648D01*
G01*
X103999099Y-56648385D01*
G75*
G02*
X103187939Y-55489929I173648J984808D01*
G01*
G37*
D16*
X112732823Y-59752133D03*
X102727177Y-57987867D03*
G36*
G01*
X63219243Y-55058085D02*
X63219243Y-55058085D01*
G75*
G02*
X64377699Y-54246925I984808J-173648D01*
G01*
X64870103Y-54333749D01*
G75*
G02*
X65681263Y-55492205I-173648J-984808D01*
G01*
X65681263Y-55492205D01*
G75*
G02*
X64522807Y-56303365I-984808J173648D01*
G01*
X64030403Y-56216541D01*
G75*
G02*
X63219243Y-55058085I173648J984808D01*
G01*
G37*
D14*
X70150000Y-52320000D03*
D15*
X64733557Y-51364935D03*
X75566443Y-53275065D03*
G36*
G01*
X67894466Y-57913306D02*
X67894466Y-57913306D01*
G75*
G02*
X69052922Y-57102146I984808J-173648D01*
G01*
X69545326Y-57188970D01*
G75*
G02*
X70356486Y-58347426I-173648J-984808D01*
G01*
X70356486Y-58347426D01*
G75*
G02*
X69198030Y-59158586I-984808J173648D01*
G01*
X68705626Y-59071762D01*
G75*
G02*
X67894466Y-57913306I173648J984808D01*
G01*
G37*
G36*
G01*
X72302534Y-47541183D02*
X72302534Y-47541183D01*
G75*
G02*
X73460990Y-46730023I984808J-173648D01*
G01*
X73953394Y-46816847D01*
G75*
G02*
X74764554Y-47975303I-173648J-984808D01*
G01*
X74764554Y-47975303D01*
G75*
G02*
X73606098Y-48786463I-984808J173648D01*
G01*
X73113694Y-48699639D01*
G75*
G02*
X72302534Y-47541183I173648J984808D01*
G01*
G37*
G36*
G01*
X65607939Y-48939929D02*
X65607939Y-48939929D01*
G75*
G02*
X66766395Y-48128769I984808J-173648D01*
G01*
X67258799Y-48215593D01*
G75*
G02*
X68069959Y-49374049I-173648J-984808D01*
G01*
X68069959Y-49374049D01*
G75*
G02*
X66911503Y-50185209I-984808J173648D01*
G01*
X66419099Y-50098385D01*
G75*
G02*
X65607939Y-48939929I173648J984808D01*
G01*
G37*
D16*
X75152823Y-53202133D03*
X65147177Y-51437867D03*
G36*
G01*
X43869243Y-55158085D02*
X43869243Y-55158085D01*
G75*
G02*
X45027699Y-54346925I984808J-173648D01*
G01*
X45520103Y-54433749D01*
G75*
G02*
X46331263Y-55592205I-173648J-984808D01*
G01*
X46331263Y-55592205D01*
G75*
G02*
X45172807Y-56403365I-984808J173648D01*
G01*
X44680403Y-56316541D01*
G75*
G02*
X43869243Y-55158085I173648J984808D01*
G01*
G37*
D14*
X50800000Y-52420000D03*
D15*
X45383557Y-51464935D03*
X56216443Y-53375065D03*
G36*
G01*
X48544466Y-58013306D02*
X48544466Y-58013306D01*
G75*
G02*
X49702922Y-57202146I984808J-173648D01*
G01*
X50195326Y-57288970D01*
G75*
G02*
X51006486Y-58447426I-173648J-984808D01*
G01*
X51006486Y-58447426D01*
G75*
G02*
X49848030Y-59258586I-984808J173648D01*
G01*
X49355626Y-59171762D01*
G75*
G02*
X48544466Y-58013306I173648J984808D01*
G01*
G37*
G36*
G01*
X52952534Y-47641183D02*
X52952534Y-47641183D01*
G75*
G02*
X54110990Y-46830023I984808J-173648D01*
G01*
X54603394Y-46916847D01*
G75*
G02*
X55414554Y-48075303I-173648J-984808D01*
G01*
X55414554Y-48075303D01*
G75*
G02*
X54256098Y-48886463I-984808J173648D01*
G01*
X53763694Y-48799639D01*
G75*
G02*
X52952534Y-47641183I173648J984808D01*
G01*
G37*
G36*
G01*
X46257939Y-49039929D02*
X46257939Y-49039929D01*
G75*
G02*
X47416395Y-48228769I984808J-173648D01*
G01*
X47908799Y-48315593D01*
G75*
G02*
X48719959Y-49474049I-173648J-984808D01*
G01*
X48719959Y-49474049D01*
G75*
G02*
X47561503Y-50285209I-984808J173648D01*
G01*
X47069099Y-50198385D01*
G75*
G02*
X46257939Y-49039929I173648J984808D01*
G01*
G37*
D16*
X55802823Y-53302133D03*
X45797177Y-51537867D03*
D10*
G36*
X200756924Y-60650230D02*
G01*
X200930572Y-61635038D01*
X199453360Y-61895510D01*
X199279712Y-60910702D01*
X200756924Y-60650230D01*
G37*
G36*
X201312598Y-63801614D02*
G01*
X201486246Y-64786422D01*
X200009034Y-65046894D01*
X199835386Y-64062086D01*
X201312598Y-63801614D01*
G37*
G36*
X195931366Y-61501106D02*
G01*
X196105014Y-62485914D01*
X194627802Y-62746386D01*
X194454154Y-61761578D01*
X195931366Y-61501106D01*
G37*
G36*
X196487040Y-64652490D02*
G01*
X196660688Y-65637298D01*
X195183476Y-65897770D01*
X195009828Y-64912962D01*
X196487040Y-64652490D01*
G37*
G36*
X221811740Y-75948284D02*
G01*
X221985388Y-76933092D01*
X220508176Y-77193564D01*
X220334528Y-76208756D01*
X221811740Y-75948284D01*
G37*
G36*
X222367414Y-79099668D02*
G01*
X222541062Y-80084476D01*
X221063850Y-80344948D01*
X220890202Y-79360140D01*
X222367414Y-79099668D01*
G37*
G36*
X216986182Y-76799160D02*
G01*
X217159830Y-77783968D01*
X215682618Y-78044440D01*
X215508970Y-77059632D01*
X216986182Y-76799160D01*
G37*
G36*
X217541856Y-79950544D02*
G01*
X217715504Y-80935352D01*
X216238292Y-81195824D01*
X216064644Y-80211016D01*
X217541856Y-79950544D01*
G37*
G36*
X197505724Y-97353230D02*
G01*
X197679372Y-98338038D01*
X196202160Y-98598510D01*
X196028512Y-97613702D01*
X197505724Y-97353230D01*
G37*
G36*
X198061398Y-100504614D02*
G01*
X198235046Y-101489422D01*
X196757834Y-101749894D01*
X196584186Y-100765086D01*
X198061398Y-100504614D01*
G37*
G36*
X192680166Y-98204106D02*
G01*
X192853814Y-99188914D01*
X191376602Y-99449386D01*
X191202954Y-98464578D01*
X192680166Y-98204106D01*
G37*
G36*
X193235840Y-101355490D02*
G01*
X193409488Y-102340298D01*
X191932276Y-102600770D01*
X191758628Y-101615962D01*
X193235840Y-101355490D01*
G37*
D20*
X159420000Y-114330000D03*
X159420000Y-117530000D03*
X154520000Y-114330000D03*
X154520000Y-117530000D03*
X121340000Y-114330000D03*
X121340000Y-117530000D03*
X116440000Y-114330000D03*
X116440000Y-117530000D03*
D10*
G36*
X84811346Y-98502678D02*
G01*
X84637698Y-99487486D01*
X83160486Y-99227014D01*
X83334134Y-98242206D01*
X84811346Y-98502678D01*
G37*
G36*
X84255672Y-101654062D02*
G01*
X84082024Y-102638870D01*
X82604812Y-102378398D01*
X82778460Y-101393590D01*
X84255672Y-101654062D01*
G37*
G36*
X79985788Y-97651802D02*
G01*
X79812140Y-98636610D01*
X78334928Y-98376138D01*
X78508576Y-97391330D01*
X79985788Y-97651802D01*
G37*
G36*
X79430114Y-100803186D02*
G01*
X79256466Y-101787994D01*
X77779254Y-101527522D01*
X77952902Y-100542714D01*
X79430114Y-100803186D01*
G37*
G36*
X59322446Y-77395278D02*
G01*
X59148798Y-78380086D01*
X57671586Y-78119614D01*
X57845234Y-77134806D01*
X59322446Y-77395278D01*
G37*
G36*
X58766772Y-80546662D02*
G01*
X58593124Y-81531470D01*
X57115912Y-81270998D01*
X57289560Y-80286190D01*
X58766772Y-80546662D01*
G37*
G36*
X54496888Y-76544402D02*
G01*
X54323240Y-77529210D01*
X52846028Y-77268738D01*
X53019676Y-76283930D01*
X54496888Y-76544402D01*
G37*
G36*
X53941214Y-79695786D02*
G01*
X53767566Y-80680594D01*
X52290354Y-80420122D01*
X52464002Y-79435314D01*
X53941214Y-79695786D01*
G37*
G36*
X81623646Y-61063078D02*
G01*
X81449998Y-62047886D01*
X79972786Y-61787414D01*
X80146434Y-60802606D01*
X81623646Y-61063078D01*
G37*
G36*
X81067972Y-64214462D02*
G01*
X80894324Y-65199270D01*
X79417112Y-64938798D01*
X79590760Y-63953990D01*
X81067972Y-64214462D01*
G37*
G36*
X76798088Y-60212202D02*
G01*
X76624440Y-61197010D01*
X75147228Y-60936538D01*
X75320876Y-59951730D01*
X76798088Y-60212202D01*
G37*
G36*
X76242414Y-63363586D02*
G01*
X76068766Y-64348394D01*
X74591554Y-64087922D01*
X74765202Y-63103114D01*
X76242414Y-63363586D01*
G37*
D21*
X160110000Y-39870000D03*
X133810000Y-54320000D03*
X122560000Y-52320000D03*
D22*
X222910000Y-95530000D03*
X216320000Y-58020000D03*
X160020000Y-67940000D03*
X183800000Y-106980000D03*
X137910000Y-109960000D03*
X115800000Y-67940000D03*
X92020000Y-106970000D03*
X52920000Y-95540000D03*
X59540000Y-58030000D03*
M02*
