M48
; DRILL file {KiCad (5.1.10-1-10_14)} date Sunday, November 21, 2021 at 05:37:38 PM
; FORMAT={-:-/ absolute / metric / decimal}
; #@! TF.CreationDate,2021-11-21T17:37:38-05:00
; #@! TF.GenerationSoftware,Kicad,Pcbnew,(5.1.10-1-10_14)
; #@! TF.FileFunction,NonPlated,1,2,NPTH
FMAT,2
METRIC
T1C1.700
T2C1.900
T3C2.200
T4C3.400
T5C4.000
%
G90
G05
T1
X39.217Y-89.048
X42.517Y-70.278
X45.797Y-51.538
X49.223Y-90.812
X52.523Y-72.042
X55.803Y-53.302
X58.587Y-88.878
X61.857Y-70.148
X65.147Y-51.438
X68.593Y-90.642
X71.863Y-71.912
X75.153Y-53.202
X77.937Y-88.798
X81.277Y-69.988
X84.567Y-51.258
X87.943Y-90.562
X91.283Y-71.752
X94.573Y-53.022
X96.077Y-95.528
X99.387Y-76.738
X101.823Y-121.355
X102.727Y-57.988
X106.083Y-97.292
X109.393Y-78.502
X111.637Y-123.985
X112.733Y-59.752
X114.267Y-102.228
X117.557Y-83.508
X120.907Y-64.708
X123.31Y-125.5
X124.273Y-103.992
X127.563Y-85.272
X130.913Y-66.472
X132.37Y-125.46
X133.47Y-125.5
X142.35Y-125.5
X143.37Y-125.46
X144.947Y-66.482
X148.247Y-85.262
X151.547Y-104.042
X152.51Y-125.5
X154.953Y-64.718
X158.253Y-83.498
X161.553Y-102.278
X163.087Y-59.752
X164.183Y-123.975
X166.407Y-78.492
X169.697Y-97.262
X173.093Y-57.988
X173.997Y-121.345
X176.413Y-76.728
X179.703Y-95.498
X181.257Y-53.002
X184.547Y-71.762
X187.867Y-90.502
X191.263Y-51.238
X194.553Y-69.998
X197.873Y-88.738
X200.607Y-53.132
X203.947Y-71.892
X207.247Y-90.632
X210.613Y-51.368
X213.953Y-70.128
X217.253Y-88.868
X220.007Y-53.272
X223.317Y-72.012
X226.587Y-90.792
X230.013Y-51.508
X233.323Y-70.248
X236.593Y-89.028
T2
X38.804Y-88.975
X42.104Y-70.205
X45.384Y-51.465
X49.636Y-90.885
X52.936Y-72.115
X56.216Y-53.375
X58.174Y-88.805
X61.444Y-70.075
X64.734Y-51.365
X69.006Y-90.715
X72.276Y-71.985
X75.566Y-53.275
X77.524Y-88.725
X80.864Y-69.915
X84.154Y-51.185
X88.356Y-90.635
X91.696Y-71.825
X94.986Y-53.095
X95.664Y-95.455
X98.974Y-76.665
X101.417Y-121.246
X102.314Y-57.915
X106.496Y-97.365
X109.806Y-78.575
X112.043Y-124.094
X113.146Y-59.825
X113.854Y-102.155
X117.144Y-83.435
X120.494Y-64.635
X122.89Y-125.5
X124.686Y-104.065
X127.976Y-85.345
X131.326Y-66.545
X133.89Y-125.5
X141.93Y-125.5
X144.534Y-66.555
X147.834Y-85.335
X151.134Y-104.115
X152.93Y-125.5
X155.366Y-64.645
X158.666Y-83.425
X161.966Y-102.205
X162.674Y-59.825
X163.777Y-124.084
X165.994Y-78.565
X169.284Y-97.335
X173.506Y-57.915
X174.403Y-121.236
X176.826Y-76.655
X180.116Y-95.425
X180.844Y-53.075
X184.134Y-71.835
X187.454Y-90.575
X191.676Y-51.165
X194.966Y-69.925
X198.286Y-88.665
X200.194Y-53.205
X203.534Y-71.965
X206.834Y-90.705
X211.026Y-51.295
X214.366Y-70.055
X217.666Y-88.795
X219.594Y-53.345
X222.904Y-72.085
X226.174Y-90.865
X230.426Y-51.435
X233.736Y-70.175
X237.006Y-88.955
T3
X122.56Y-52.32
X133.81Y-54.32
X160.11Y-39.87
T4
X137.87Y-125.46
T5
X44.22Y-89.93
X47.52Y-71.16
X50.8Y-52.42
X63.59Y-89.76
X66.86Y-71.03
X70.15Y-52.32
X82.94Y-89.68
X86.28Y-70.87
X89.57Y-52.14
X101.08Y-96.41
X104.39Y-77.62
X106.73Y-122.67
X107.73Y-58.87
X119.27Y-103.11
X122.56Y-84.39
X125.91Y-65.59
X128.39Y-125.5
X147.43Y-125.5
X149.95Y-65.6
X153.25Y-84.38
X156.55Y-103.16
X168.09Y-58.87
X169.09Y-122.66
X171.41Y-77.61
X174.7Y-96.38
X186.26Y-52.12
X189.55Y-70.88
X192.87Y-89.62
X205.61Y-52.25
X208.95Y-71.01
X212.25Y-89.75
X225.01Y-52.39
X228.32Y-71.13
X231.59Y-89.91
T0
M30
