G04 #@! TF.GenerationSoftware,KiCad,Pcbnew,(5.1.10-1-10_14)*
G04 #@! TF.CreationDate,2021-11-21T17:36:23-05:00*
G04 #@! TF.ProjectId,reviung34,72657669-756e-4673-9334-2e6b69636164,1*
G04 #@! TF.SameCoordinates,Original*
G04 #@! TF.FileFunction,Soldermask,Top*
G04 #@! TF.FilePolarity,Negative*
%FSLAX46Y46*%
G04 Gerber Fmt 4.6, Leading zero omitted, Abs format (unit mm)*
G04 Created by KiCad (PCBNEW (5.1.10-1-10_14)) date 2021-11-21 17:36:23*
%MOMM*%
%LPD*%
G01*
G04 APERTURE LIST*
%ADD10C,1.700000*%
%ADD11C,2.000000*%
%ADD12C,3.400000*%
%ADD13C,4.000000*%
%ADD14C,2.100000*%
%ADD15C,1.900000*%
%ADD16R,1.500000X1.000000*%
%ADD17C,2.200000*%
%ADD18C,4.500000*%
G04 APERTURE END LIST*
D10*
X143370000Y-125460000D03*
X132370000Y-125460000D03*
D11*
X132870000Y-129260000D03*
X137870000Y-131360000D03*
D12*
X137870000Y-125460000D03*
D13*
X89570000Y-52140000D03*
D14*
X84153557Y-51184935D03*
X94986443Y-53095065D03*
D15*
X94572823Y-53022133D03*
X84567177Y-51257867D03*
D13*
X186260000Y-52120000D03*
D14*
X180843557Y-53075065D03*
X191676443Y-51164935D03*
D15*
X191262823Y-51237867D03*
X181257177Y-53002133D03*
D13*
X169090000Y-122660000D03*
D14*
X163777408Y-124083505D03*
X174402592Y-121236495D03*
D15*
X173996903Y-121345199D03*
X164183097Y-123974801D03*
D13*
X147430000Y-125500000D03*
D14*
X141930000Y-125500000D03*
X152930000Y-125500000D03*
D15*
X152510000Y-125500000D03*
X142350000Y-125500000D03*
D13*
X128390000Y-125500000D03*
D14*
X122890000Y-125500000D03*
X133890000Y-125500000D03*
D15*
X133470000Y-125500000D03*
X123310000Y-125500000D03*
D13*
X106730000Y-122670000D03*
D14*
X101417408Y-121246495D03*
X112042592Y-124093505D03*
D15*
X111636903Y-123984801D03*
X101823097Y-121355199D03*
D13*
X231590000Y-89910000D03*
D14*
X226173557Y-90865065D03*
X237006443Y-88954935D03*
D15*
X236592823Y-89027867D03*
X226587177Y-90792133D03*
D13*
X228320000Y-71130000D03*
D14*
X222903557Y-72085065D03*
X233736443Y-70174935D03*
D15*
X233322823Y-70247867D03*
X223317177Y-72012133D03*
D13*
X225010000Y-52390000D03*
D14*
X219593557Y-53345065D03*
X230426443Y-51434935D03*
D15*
X230012823Y-51507867D03*
X220007177Y-53272133D03*
D13*
X212250000Y-89750000D03*
D14*
X206833557Y-90705065D03*
X217666443Y-88794935D03*
D15*
X217252823Y-88867867D03*
X207247177Y-90632133D03*
D13*
X192870000Y-89620000D03*
D14*
X187453557Y-90575065D03*
X198286443Y-88664935D03*
D15*
X197872823Y-88737867D03*
X187867177Y-90502133D03*
D13*
X174700000Y-96380000D03*
D14*
X169283557Y-97335065D03*
X180116443Y-95424935D03*
D15*
X179702823Y-95497867D03*
X169697177Y-97262133D03*
D13*
X156550000Y-103160000D03*
D14*
X151133557Y-104115065D03*
X161966443Y-102204935D03*
D15*
X161552823Y-102277867D03*
X151547177Y-104042133D03*
D13*
X208950000Y-71010000D03*
D14*
X203533557Y-71965065D03*
X214366443Y-70054935D03*
D15*
X213952823Y-70127867D03*
X203947177Y-71892133D03*
D13*
X189550000Y-70880000D03*
D14*
X184133557Y-71835065D03*
X194966443Y-69924935D03*
D15*
X194552823Y-69997867D03*
X184547177Y-71762133D03*
D13*
X171410000Y-77610000D03*
D14*
X165993557Y-78565065D03*
X176826443Y-76654935D03*
D15*
X176412823Y-76727867D03*
X166407177Y-78492133D03*
D13*
X153250000Y-84380000D03*
D14*
X147833557Y-85335065D03*
X158666443Y-83424935D03*
D15*
X158252823Y-83497867D03*
X148247177Y-85262133D03*
D13*
X205610000Y-52250000D03*
D14*
X200193557Y-53205065D03*
X211026443Y-51294935D03*
D15*
X210612823Y-51367867D03*
X200607177Y-53132133D03*
D13*
X168090000Y-58870000D03*
D14*
X162673557Y-59825065D03*
X173506443Y-57914935D03*
D15*
X173092823Y-57987867D03*
X163087177Y-59752133D03*
D13*
X149950000Y-65600000D03*
D14*
X144533557Y-66555065D03*
X155366443Y-64644935D03*
D15*
X154952823Y-64717867D03*
X144947177Y-66482133D03*
D13*
X119270000Y-103110000D03*
D14*
X113853557Y-102154935D03*
X124686443Y-104065065D03*
D15*
X124272823Y-103992133D03*
X114267177Y-102227867D03*
D13*
X101080000Y-96410000D03*
D14*
X95663557Y-95454935D03*
X106496443Y-97365065D03*
D15*
X106082823Y-97292133D03*
X96077177Y-95527867D03*
D13*
X82940000Y-89680000D03*
D14*
X77523557Y-88724935D03*
X88356443Y-90635065D03*
D15*
X87942823Y-90562133D03*
X77937177Y-88797867D03*
D13*
X63590000Y-89760000D03*
D14*
X58173557Y-88804935D03*
X69006443Y-90715065D03*
D15*
X68592823Y-90642133D03*
X58587177Y-88877867D03*
D13*
X44220000Y-89930000D03*
D14*
X38803557Y-88974935D03*
X49636443Y-90885065D03*
D15*
X49222823Y-90812133D03*
X39217177Y-89047867D03*
D13*
X122560000Y-84390000D03*
D14*
X117143557Y-83434935D03*
X127976443Y-85345065D03*
D15*
X127562823Y-85272133D03*
X117557177Y-83507867D03*
D13*
X104390000Y-77620000D03*
D14*
X98973557Y-76664935D03*
X109806443Y-78575065D03*
D15*
X109392823Y-78502133D03*
X99387177Y-76737867D03*
D13*
X86280000Y-70870000D03*
D14*
X80863557Y-69914935D03*
X91696443Y-71825065D03*
D15*
X91282823Y-71752133D03*
X81277177Y-69987867D03*
D13*
X66860000Y-71030000D03*
D14*
X61443557Y-70074935D03*
X72276443Y-71985065D03*
D15*
X71862823Y-71912133D03*
X61857177Y-70147867D03*
D13*
X47520000Y-71160000D03*
D14*
X42103557Y-70204935D03*
X52936443Y-72115065D03*
D15*
X52522823Y-72042133D03*
X42517177Y-70277867D03*
D13*
X125910000Y-65590000D03*
D14*
X120493557Y-64634935D03*
X131326443Y-66545065D03*
D15*
X130912823Y-66472133D03*
X120907177Y-64707867D03*
D13*
X107730000Y-58870000D03*
D14*
X102313557Y-57914935D03*
X113146443Y-59825065D03*
D15*
X112732823Y-59752133D03*
X102727177Y-57987867D03*
D13*
X70150000Y-52320000D03*
D14*
X64733557Y-51364935D03*
X75566443Y-53275065D03*
D15*
X75152823Y-53202133D03*
X65147177Y-51437867D03*
D13*
X50800000Y-52420000D03*
D14*
X45383557Y-51464935D03*
X56216443Y-53375065D03*
D15*
X55802823Y-53302133D03*
X45797177Y-51537867D03*
D16*
X140390000Y-95960000D03*
X140390000Y-92760000D03*
X135490000Y-95960000D03*
X135490000Y-92760000D03*
D11*
X164879375Y-41385643D03*
X171280625Y-42514357D03*
D17*
X160110000Y-39870000D03*
X133810000Y-54320000D03*
X122560000Y-52320000D03*
D18*
X222910000Y-95530000D03*
X216320000Y-58020000D03*
X160020000Y-67940000D03*
X183800000Y-106980000D03*
X137910000Y-109960000D03*
X115800000Y-67940000D03*
X92020000Y-106970000D03*
X52920000Y-95540000D03*
X59540000Y-58030000D03*
M02*
